<svg xmlns="http://www.w3.org/2000/svg" xmlns:xlink="http://www.w3.org/1999/xlink" width="231.925" height="215.12" viewBox="0 0 231.925 215.12">
  <defs>
    <linearGradient id="linear-gradient" x1="-0.059" y1="0.093" x2="1.412" y2="1.778" gradientUnits="objectBoundingBox">
      <stop offset="0" stop-color="#97f5f2"/>
      <stop offset="1" stop-color="#3469b7"/>
    </linearGradient>
  </defs>
  <g id="_3A" data-name="3A" transform="translate(0 0)">
    <g id="Group_57122" data-name="Group 57122" transform="translate(0)">
      <g id="Group_57121" data-name="Group 57121" transform="translate(0 0)">
        <g id="Group_57119" data-name="Group 57119" transform="translate(0 0)">
          <path id="Subtraction_2" data-name="Subtraction 2" d="M223.925,211.759H8a8.009,8.009,0,0,1-8-8V151.525c6.914,0,12.537-5.12,12.537-11.413S6.913,128.7,0,128.7V8A8.009,8.009,0,0,1,8,0H223.925a8.009,8.009,0,0,1,8,8V128.737c-6.444.484-11.491,5.48-11.491,11.375s5.048,10.89,11.491,11.374v52.273A8.009,8.009,0,0,1,223.925,211.759Z" transform="translate(0 3.361)" fill="#50819e"/>
          <g id="Group_57118" data-name="Group 57118" transform="translate(0)">
            <path id="Subtraction_1" data-name="Subtraction 1" d="M223.925,211.759H8a8.009,8.009,0,0,1-8-8V154.3a12.684,12.684,0,0,0,12.537-12.8A12.684,12.684,0,0,0,0,128.7V8A8.009,8.009,0,0,1,8,0H223.925a8.009,8.009,0,0,1,8,8V128.742a12.824,12.824,0,0,0,0,25.509v49.508A8.009,8.009,0,0,1,223.925,211.759Z" transform="translate(0 0)" fill="url(#linear-gradient)"/>
          </g>
        </g>
        <g id="Group_57120" data-name="Group 57120" transform="translate(14.404 85.516)" opacity="0.35">
          <line id="Line_95" data-name="Line 95" x2="201.521" fill="none" stroke="#fff" stroke-linecap="round" stroke-width="1"/>
          <line id="Line_96" data-name="Line 96" y2="36.974" transform="translate(133.491 1.877)" fill="none" stroke="#fff" stroke-linecap="round" stroke-width="1"/>
        </g>
      </g>
      <line id="Line_97" data-name="Line 97" x2="209.166" transform="translate(12.299 139.749)" fill="none" stroke="#fff" stroke-width="1" stroke-dasharray="6" opacity="0.41"/>
    </g>
  </g>
</svg>
