<svg xmlns="http://www.w3.org/2000/svg" xmlns:xlink="http://www.w3.org/1999/xlink" width="231.926" height="214.481" viewBox="0 0 231.926 214.481">
  <defs>
    <linearGradient id="linear-gradient" x1="-0.059" y1="0.093" x2="1.412" y2="1.778" gradientUnits="objectBoundingBox">
      <stop offset="0" stop-color="#a0c44d"/>
      <stop offset="1" stop-color="#53ce4b"/>
    </linearGradient>
  </defs>
  <g id="_5A" data-name="5A" transform="translate(0 0)">
    <g id="Group_57122" data-name="Group 57122" transform="translate(0 0)">
      <g id="Group_57121" data-name="Group 57121" transform="translate(0 0)">
        <g id="Group_57119" data-name="Group 57119" transform="translate(0 0)">
          <path id="Subtraction_2" data-name="Subtraction 2" d="M223.926,211.12H8a8.009,8.009,0,0,1-8-8v-51.6c6.914,0,12.536-5.12,12.536-11.413S6.913,128.7,0,128.7V6A8.009,8.009,0,0,1,8-2H223.926a8.009,8.009,0,0,1,8,8V128.893a13.853,13.853,0,0,0-2.317-.195c-6.913,0-12.537,5.12-12.537,11.414s5.624,11.413,12.537,11.413a13.856,13.856,0,0,0,2.317-.194v51.79A8.009,8.009,0,0,1,223.926,211.12Z" transform="translate(0 3.361)" fill="#4d8432"/>
          <g id="Group_57118" data-name="Group 57118" transform="translate(0 0)">
            <path id="Subtraction_1" data-name="Subtraction 1" d="M223.926,211.759H8a8.009,8.009,0,0,1-8-8V154.3a12.684,12.684,0,0,0,12.537-12.8A12.684,12.684,0,0,0,0,128.7V8A8.009,8.009,0,0,1,8,0H223.926a8.009,8.009,0,0,1,8,8V128.916a12.394,12.394,0,0,0-2.317-.218,12.8,12.8,0,0,0,0,25.6,12.4,12.4,0,0,0,2.317-.218v49.682A8.009,8.009,0,0,1,223.926,211.759Z" transform="translate(0)" fill="url(#linear-gradient)"/>
          </g>
        </g>
        <g id="Group_57120" data-name="Group 57120" transform="translate(12.082 86.253)" opacity="0.35">
          <line id="Line_95" data-name="Line 95" x2="200.888" fill="none" stroke="#fff" stroke-linecap="round" stroke-width="1"/>
          <line id="Line_96" data-name="Line 96" y2="36.974" transform="translate(132.452 1.139)" fill="none" stroke="#fff" stroke-linecap="round" stroke-width="1"/>
        </g>
      </g>
      <line id="Line_97" data-name="Line 97" x2="208.509" transform="translate(9.984 140.316)" fill="none" stroke="#fff" stroke-width="1" stroke-dasharray="6" opacity="0.41"/>
    </g>
  </g>
</svg>
