<svg id="_5A" data-name="5A" xmlns="http://www.w3.org/2000/svg" xmlns:xlink="http://www.w3.org/1999/xlink" width="235" height="215" viewBox="0 0 235 215">
  <defs>
    <linearGradient id="linear-gradient" x1="-0.059" y1="0.093" x2="1.412" y2="1.778" gradientUnits="objectBoundingBox">
      <stop offset="0" stop-color="#a0c44d"/>
      <stop offset="1" stop-color="#53ce4b"/>
    </linearGradient>
  </defs>
  <g id="Group_57122" data-name="Group 57122">
    <g id="Group_57121" data-name="Group 57121">
      <g id="Group_57119" data-name="Group 57119">
        <path id="Subtraction_2" data-name="Subtraction 2" d="M226.892,211.639H8.106A8.072,8.072,0,0,1,0,203.62V151.894c7.006,0,12.7-5.132,12.7-11.441S7,129.018,0,129.018v-123A8.072,8.072,0,0,1,8.106-2H226.892A8.072,8.072,0,0,1,235,6.019V129.212a14.184,14.184,0,0,0-2.348-.2c-7,0-12.7,5.132-12.7,11.442s5.7,11.441,12.7,11.441A14.188,14.188,0,0,0,235,151.7v51.916A8.072,8.072,0,0,1,226.892,211.639Z" transform="translate(0 3.361)" fill="#4d8432"/>
        <g id="Group_57118" data-name="Group 57118">
          <path id="Subtraction_1" data-name="Subtraction 1" d="M226.892,212.278H8.106A8.072,8.072,0,0,1,0,204.258v-49.58a12.781,12.781,0,0,0,12.7-12.831A12.781,12.781,0,0,0,0,129.015V8.02A8.072,8.072,0,0,1,8.106,0H226.892A8.072,8.072,0,0,1,235,8.02V129.232a12.69,12.69,0,0,0-2.348-.219,12.832,12.832,0,1,0,0,25.663,12.7,12.7,0,0,0,2.35-.219l0,49.8A8.072,8.072,0,0,1,226.892,212.278Z" fill="url(#linear-gradient)"/>
        </g>
      </g>
      <g id="Group_57120" data-name="Group 57120" transform="translate(12.082 86.507)" opacity="0.35">
        <line id="Line_95" data-name="Line 95" x2="203.96" fill="none" stroke="#fff" stroke-linecap="round" stroke-width="1"/>
        <line id="Line_96" data-name="Line 96" y2="36.974" transform="translate(134.477 1.139)" fill="none" stroke="#fff" stroke-linecap="round" stroke-width="1"/>
      </g>
    </g>
    <line id="Line_97" data-name="Line 97" x2="211.581" transform="translate(9.984 140.656)" fill="none" stroke="#fff" stroke-width="1" stroke-dasharray="6" opacity="0.41"/>
  </g>
</svg>
