<svg xmlns="http://www.w3.org/2000/svg" xmlns:xlink="http://www.w3.org/1999/xlink" width="336" height="296" viewBox="0 0 336 296">
  <defs>
    <clipPath id="clip-path">
      <rect id="Rectangle_18966" data-name="Rectangle 18966" width="336" height="296" transform="translate(13888 -4144)" fill="#fff"/>
    </clipPath>
    <filter id="Path_54230" x="234.256" y="-6" width="110.806" height="110.22" filterUnits="userSpaceOnUse">
      <feOffset dy="3" input="SourceAlpha"/>
      <feGaussianBlur stdDeviation="3" result="blur"/>
      <feFlood flood-opacity="0.161"/>
      <feComposite operator="in" in2="blur"/>
      <feComposite in="SourceGraphic"/>
    </filter>
    <filter id="Recommended" x="253.115" y="-5.035" width="91.539" height="91.539" filterUnits="userSpaceOnUse">
      <feOffset dy="3" input="SourceAlpha"/>
      <feGaussianBlur stdDeviation="3" result="blur-2"/>
      <feFlood flood-opacity="0.071"/>
      <feComposite operator="in" in2="blur-2"/>
      <feComposite in="SourceGraphic"/>
    </filter>
    <linearGradient id="linear-gradient" x1="0.057" y1="0.026" x2="1.011" y2="1.014" gradientUnits="objectBoundingBox">
      <stop offset="0" stop-color="#262424"/>
      <stop offset="1" stop-color="#ffc65b"/>
    </linearGradient>
    <linearGradient id="linear-gradient-2" x1="0.706" y1="-0.177" x2="-0.165" y2="0.844" gradientUnits="objectBoundingBox">
      <stop offset="0" stop-color="#ce8a14"/>
      <stop offset="1" stop-color="#0a0a18"/>
    </linearGradient>
    <linearGradient id="linear-gradient-3" x1="0.5" x2="0.5" y2="1" gradientUnits="objectBoundingBox">
      <stop offset="0" stop-color="#d3982f"/>
      <stop offset="1" stop-color="#d59629"/>
    </linearGradient>
    <filter id="Path_54230-2" x="234.256" y="-6" width="110.806" height="110.22" filterUnits="userSpaceOnUse">
      <feOffset dy="3" input="SourceAlpha"/>
      <feGaussianBlur stdDeviation="3" result="blur-3"/>
      <feFlood flood-opacity="0.161"/>
      <feComposite operator="in" in2="blur-3"/>
      <feComposite in="SourceGraphic"/>
    </filter>
    <filter id="Recommended-2" x="253.115" y="-5.035" width="91.539" height="91.539" filterUnits="userSpaceOnUse">
      <feOffset dy="3" input="SourceAlpha"/>
      <feGaussianBlur stdDeviation="3" result="blur-4"/>
      <feFlood flood-opacity="0.071"/>
      <feComposite operator="in" in2="blur-4"/>
      <feComposite in="SourceGraphic"/>
    </filter>
  </defs>
  <g id="Mask_Group_148" data-name="Mask Group 148" transform="translate(-13888 4144)" clip-path="url(#clip-path)">
    <g id="Group_57783" data-name="Group 57783">
      <g id="Group_57733" data-name="Group 57733" transform="translate(14131.256 -4144)">
        <g transform="matrix(1, 0, 0, 1, -243.26, 0)" filter="url(#Path_54230)">
          <path id="Path_54230-3" data-name="Path 54230" d="M10899.105,699.494c.7.466,92.586,92.22,92.586,92.22l.22-36.578-55.169-55.642Z" transform="translate(-10655.85 -699.49)"/>
        </g>
        <g transform="matrix(1, 0, 0, 1, -243.26, 0)" filter="url(#Recommended)">
          <text id="Recommended-3" data-name="Recommended" transform="translate(264.24 10.16) rotate(45)" fill="#faa300" font-size="12" font-family="MicrosoftYaHei, Microsoft YaHei"><tspan x="0" y="0">Recommended</tspan></text>
        </g>
      </g>
      <path id="Sub1_Background" data-name="Sub1 Background" d="M20,0H316a20,20,0,0,1,20,20V276a20,20,0,0,1-20,20H20A20,20,0,0,1,0,276V20A20,20,0,0,1,20,0Z" transform="translate(13888 -4144)" fill="url(#linear-gradient)"/>
      <path id="Path_54240" data-name="Path 54240" d="M86.742,0a93.063,93.063,0,0,1,40.183,9.071c.324.152,2.154,1.268,2.154,1.268l.113,106.616a30.635,30.635,0,0,1-.363,7.525,21.472,21.472,0,0,1-4.911,10.392,18.655,18.655,0,0,1-7.068,4.822,29.636,29.636,0,0,1-10.471,1.524l-75.219-.094s-1.093-.845-1.881-1.478C11.524,125.39,0,103.85,0,79.833,0,35.742,38.836,0,86.742,0Z" transform="translate(14094.332 -3989.238)" opacity="0.12" fill="url(#linear-gradient-2)"/>
      <path id="Path_54241" data-name="Path 54241" d="M195.05,203.4s-.685.766-1.437,1.434C173.143,223.01,146.853,233.451,117,233.451c-64.617,0-117-52.249-117-116.7C0,77.009,19.916,41.907,50.776,20.535c.275-.191,1.217-.828,1.217-.828s66.647-.316,98.746-.11,32.448-1.877,41.676,9.113c4.762,6.918,2.636,20.623,2.636,38.657Z" transform="translate(14028.5 -4163.527)" opacity="0.26" fill="url(#linear-gradient-3)"/>
      <text id="_650" data-name="650" transform="translate(13923 -4037)" fill="#fff" font-size="33" font-family="MicrosoftYaHei, Microsoft YaHei"><tspan x="0" y="0">650</tspan></text>
      <text id="ENTERPRISE" transform="translate(13923 -4089)" fill="#fff" font-size="16" font-family="MicrosoftYaHei-Bold, Microsoft YaHei" font-weight="700" letter-spacing="0.1em"><tspan x="0" y="0">ENTERPRISE</tspan></text>
      <rect id="Rectangle_18986" data-name="Rectangle 18986" width="29.221" height="3.205" rx="1.602" transform="translate(13925 -4080)" fill="#faa300"/>
      <rect id="Rectangle_18987" data-name="Rectangle 18987" width="5.708" height="3.205" rx="1.602" transform="translate(13957.029 -4080)" fill="#faa300"/>
      <circle id="Ellipse_1550" data-name="Ellipse 1550" cx="21.5" cy="21.5" r="21.5" transform="translate(14080.012 -4099)" fill="#0a0a18" opacity="0.04"/>
      <circle id="Ellipse_1551" data-name="Ellipse 1551" cx="5" cy="5" r="5" transform="translate(14146.012 -4058)" fill="#0a0a18" opacity="0.04"/>
      <circle id="Ellipse_1552" data-name="Ellipse 1552" cx="13.5" cy="13.5" r="13.5" transform="translate(14149.012 -4101)" fill="#0a0a18" opacity="0.04"/>
      <text id="NDCT" transform="translate(13985.961 -4040)" fill="#fff" font-size="14" font-family="MicrosoftYaHei, Microsoft YaHei"><tspan x="0" y="0">NDCT</tspan></text>
      <g id="Group_57774" data-name="Group 57774" transform="translate(726.012 -1)">
        <text id="_499_" data-name="499 €" transform="translate(13228.539 -3971)" fill="#fff" font-size="16" font-family="MicrosoftYaHei, Microsoft YaHei"><tspan x="0" y="0">499 €</tspan></text>
        <path id="Icon_feather-check" data-name="Icon feather-check" d="M15.124,9,8.851,15.273,6,12.422" transform="translate(13196.534 -3989.5)" fill="none" stroke="#fff" stroke-linecap="round" stroke-linejoin="round" stroke-width="2"/>
      </g>
      <g id="Group_57775" data-name="Group 57775" transform="translate(726.012 -8)">
        <text id="Mint_650_NFT" data-name="Mint 650 NFT" transform="translate(13228.539 -3934)" fill="#fff" font-size="16" font-family="MicrosoftYaHei, Microsoft YaHei"><tspan x="0" y="0">Mint 650 NFT</tspan></text>
        <path id="Icon_feather-check-2" data-name="Icon feather-check" d="M15.124,9,8.851,15.273,6,12.422" transform="translate(13196.534 -3951.5)" fill="none" stroke="#fff" stroke-linecap="round" stroke-linejoin="round" stroke-width="2"/>
      </g>
      <g id="Group_57776" data-name="Group 57776" transform="translate(726.012 -16)">
        <path id="Icon_feather-check-3" data-name="Icon feather-check" d="M15.124,9,8.851,15.273,6,12.422" transform="translate(13196.534 -3913.5)" fill="none" stroke="#fff" stroke-linecap="round" stroke-linejoin="round" stroke-width="2"/>
        <text id="Full_NDCT_Token_ownership" data-name="Full NDCT Token ownership" transform="translate(13228.485 -3896)" fill="#fff" font-size="16" font-family="MicrosoftYaHei, Microsoft YaHei"><tspan x="0" y="0">Full NDCT Token ownership</tspan></text>
      </g>
      <g id="Group_57780" data-name="Group 57780" transform="translate(14131.256 -4144)">
        <g transform="matrix(1, 0, 0, 1, -243.26, 0)" filter="url(#Path_54230-2)">
          <path id="Path_54230-4" data-name="Path 54230" d="M10899.105,699.494c.7.466,92.586,92.22,92.586,92.22l.22-36.578-55.169-55.642Z" transform="translate(-10655.85 -699.49)"/>
        </g>
        <g transform="matrix(1, 0, 0, 1, -243.26, 0)" filter="url(#Recommended-2)">
          <text id="Recommended-4" data-name="Recommended" transform="translate(264.24 10.16) rotate(45)" fill="#fff" font-size="12" font-family="MicrosoftYaHei, Microsoft YaHei"><tspan x="0" y="0">Recommended</tspan></text>
        </g>
      </g>
    </g>
  </g>
</svg>
