<svg xmlns="http://www.w3.org/2000/svg" width="19.982" height="19.982" viewBox="0 0 19.982 19.982"><defs><style>.a{fill:#fff;}</style></defs><path class="a" d="M74.326,289.5v14.986a2.5,2.5,0,0,1-2.5,2.5H68.5a2.5,2.5,0,0,1-2.5-2.5V289.5a2.5,2.5,0,0,1,2.5-2.5h3.33a2.5,2.5,0,0,1,2.5,2.5Zm9.158,10.573h-5a2.5,2.5,0,0,0-2.5,2.5v1.915a2.5,2.5,0,0,0,2.5,2.5h5a2.5,2.5,0,0,0,2.5-2.5v-1.915a2.5,2.5,0,0,0-2.5-2.5Zm0-13.071h-5a2.5,2.5,0,0,0-2.5,2.5v6.411a2.5,2.5,0,0,0,2.5,2.5h5a2.5,2.5,0,0,0,2.5-2.5V289.5a2.5,2.5,0,0,0-2.5-2.5Z" transform="translate(-66 -287)"/></svg>