<svg xmlns="http://www.w3.org/2000/svg" xmlns:xlink="http://www.w3.org/1999/xlink" width="981" height="1035" viewBox="0 0 981 1035">
  <defs>
    <clipPath id="clip-path">
      <rect id="Rectangle_19460" data-name="Rectangle 19460" width="981" height="1035" transform="translate(2556 140)" fill="#fff"/>
    </clipPath>
  </defs>
  <g id="Mask_Group_289" data-name="Mask Group 289" transform="translate(-2556 -140)" clip-path="url(#clip-path)">
    <g id="Group_60604" data-name="Group 60604">
      <path id="Subtraction_5" data-name="Subtraction 5" d="M410.923,932.434h0c-.714,0-1.439-.013-2.156-.04-2.3-.083-5.3-.321-6.681-.531a60.774,60.774,0,0,1-28.217-12.388c-1.431-1.131-94.664-94.228-180.682-180.248S14.059,559.957,12.913,558.508A60.547,60.547,0,0,1,.464,530.155a78.642,78.642,0,0,1,0-17.051,60.9,60.9,0,0,1,12.275-28.176C13.865,483.5,154.36,342.84,283.885,213.338l28.692,28.692c-11.308,11.311-23.488,23.495-37.237,37.25C80.586,474.061,43.654,511.109,42.886,512.46a21.681,21.681,0,0,0-1.585,3.615c-.606,1.738-.669,2.258-.669,5.564,0,3.189.041,3.765.669,5.553a21.9,21.9,0,0,0,1.585,3.592c.751,1.338,25.843,26.532,178.993,179.718,149.78,149.774,178.332,178.21,179.712,178.982a24.886,24.886,0,0,0,3.589,1.6c1.755.614,2.327.684,5.567.684,3.259,0,3.728-.058,5.57-.684a27.751,27.751,0,0,0,3.712-1.721c1.5-.857,27.737-27.012,233.915-233.221l35.875-35.871L718.548,649C586.52,781.052,449.084,918.326,447.626,919.474a58.462,58.462,0,0,1-36.7,12.959ZM836.592,530.872h0l-28.68-28.681L886.1,424.007l1.138-2.23c2.142-4.224,3.14-8.259,4.108-16.608.352-3.169.4-19.046.47-169.889.072-126.024.023-167.007-.2-168.664A29.462,29.462,0,0,0,883.006,49.4,29.8,29.8,0,0,0,866.8,40.863v-.01c-1.545-.262-14.1-.349-85.342-.349-20.177,0-46.105.007-81.6.022-88.464,0-166.237.133-168.2.217a82.991,82.991,0,0,0-15.915,2.36,27.854,27.854,0,0,0-7.277,3.4c-.466.326-28.087,27.836-77.776,77.464L402.014,95.294c51.644-51.569,79.313-79.121,80.015-79.681A63.959,63.959,0,0,1,502.943,4.669C510.835,2.192,520.1.718,531.282.163,533.311.064,597.152,0,702.057,0L868.749.057l3.168.53a70.884,70.884,0,0,1,52.89,38.157,70.958,70.958,0,0,1,6.979,21.711l.545,3.164.1,165.083c.074,166.97.051,172.039-.817,180.8-1.809,17.739-6.6,30.8-15.072,41.09-.64.78-28.287,28.54-79.951,80.279Z" transform="translate(2555.999 199)" fill="#fff"/>
      <line id="Line_262" data-name="Line 262" x2="741" y2="741" transform="translate(2747.5 199.5)" fill="none" stroke="#fff" stroke-linecap="round" stroke-width="40"/>
      <path id="Path_81867" data-name="Path 81867" d="M2943.93-3522.35a81.223,81.223,0,0,0-73.131,57.288,81.3,81.3,0,0,0,1.545,51.877,81.376,81.376,0,0,0,55.879,50.354,75.638,75.638,0,0,0,20.046,2.417,74.915,74.915,0,0,0,19.933-2.361,81.536,81.536,0,0,0,44.665-29.5,81.047,81.047,0,0,0,14.851-65.749,85.633,85.633,0,0,0-10.49-26.2A81.148,81.148,0,0,0,2943.93-3522.35Zm8.171,40.583a41.779,41.779,0,0,1,19.8,7.343,50.158,50.158,0,0,1,9.492,9.481,51.357,51.357,0,0,1,5.474,10.764,41.789,41.789,0,0,1,1.231,20.883,41.3,41.3,0,0,1-15.69,24.521,40.738,40.738,0,0,1-43.085,3.187,43.1,43.1,0,0,1-16.762-16.785,40.988,40.988,0,0,1-1.6-34.659,40.612,40.612,0,0,1,27.293-23.6,39.5,39.5,0,0,1,13.846-1.139Z" transform="translate(338.004 3822.853)" fill="#ffa726"/>
    </g>
  </g>
</svg>
