<svg xmlns="http://www.w3.org/2000/svg" xmlns:xlink="http://www.w3.org/1999/xlink" width="22" height="22" viewBox="0 0 22 22"><defs><style>.a{fill:#46f5ab;}.b{clip-path:url(#a);}.c{fill:#f0cd00;}.d{fill:#ffde50;}.e{fill:#ffea94;}.f{fill:#faa300;}.g{fill:#ffbd00;}.h{fill:#f68e00;}</style><clipPath id="a"><circle class="a" cx="11" cy="11" r="11" transform="translate(0.121 -0.235)"/></clipPath></defs><g class="b" transform="translate(-0.121 0.235)"><g transform="translate(-0.015 -0.157)"><path class="c" d="M22.4,11.2a11.221,11.221,0,1,1-3.618-8.243A11.2,11.2,0,0,1,22.4,11.2Z"/><path class="d" d="M22.349,11.2A11.2,11.2,0,0,1,11.565,22.393a11.2,11.2,0,0,1,0-22.386A11.2,11.2,0,0,1,22.349,11.2Z" transform="translate(0.052 0)"/><path class="e" d="M18.687,2.862,2.861,18.688a11.249,11.249,0,0,1-1.419-1.913L16.774,1.443A11.2,11.2,0,0,1,18.687,2.862Z" transform="translate(0.096 0.096)"/><path class="e" d="M21.362,6.839,6.838,21.362A11.186,11.186,0,0,1,4,19.733L19.733,4A11.165,11.165,0,0,1,21.362,6.839Z" transform="translate(0.267 0.267)"/><path class="f" d="M19.748,11.045a8.7,8.7,0,0,1-17.406.107c0-.036,0-.071,0-.107a8.7,8.7,0,0,1,8.7-8.7h.107a8.663,8.663,0,0,1,4.906,1.587,8.762,8.762,0,0,1,2.4,2.551A8.662,8.662,0,0,1,19.748,11.045Z" transform="translate(0.156 0.156)"/><path class="g" d="M17.2,4.89,4.89,17.2a8.672,8.672,0,0,1-2.548-6.047c0-.036,0-.071,0-.107a8.7,8.7,0,0,1,8.7-8.7h.107a8.663,8.663,0,0,1,4.906,1.587A8.784,8.784,0,0,1,17.2,4.89Z" transform="translate(0.156 0.156)"/><path class="h" d="M19.234,11.045a8.7,8.7,0,0,1-8.7,8.7q-.248,0-.491-.014a8.7,8.7,0,0,0,0-17.38q.244-.014.491-.014A8.7,8.7,0,0,1,19.234,11.045Z" transform="translate(0.67 0.156)"/><path class="h" d="M14.614,13.043a.914.914,0,0,0-1.245.348,3.5,3.5,0,0,1-2.988,1.926A3.449,3.449,0,0,1,7.5,13.571h2.518a.914.914,0,1,0,0-1.829H6.823a5.4,5.4,0,0,1,0-1.7h3.193a.914.914,0,1,0,0-1.829H7.5A3.449,3.449,0,0,1,10.38,6.466a3.5,3.5,0,0,1,2.988,1.926.914.914,0,0,0,1.593-.9A5.3,5.3,0,0,0,10.38,4.638,5.1,5.1,0,0,0,6.474,6.523,6.336,6.336,0,0,0,5.449,8.211H4.286a.914.914,0,0,0,0,1.829h.69a7.249,7.249,0,0,0,0,1.7h-.69a.914.914,0,0,0,0,1.829H5.449a6.337,6.337,0,0,0,1.025,1.688,5.1,5.1,0,0,0,3.906,1.886,5.3,5.3,0,0,0,4.581-2.857A.914.914,0,0,0,14.614,13.043Z" transform="translate(0.225 0.309)"/><path class="e" d="M15.685,13.043a.914.914,0,0,0-1.245.348,3.5,3.5,0,0,1-2.988,1.926,3.449,3.449,0,0,1-2.883-1.745h2.518a.914.914,0,1,0,0-1.829H7.894a5.4,5.4,0,0,1,0-1.7h3.193a.914.914,0,1,0,0-1.829H8.569a3.449,3.449,0,0,1,2.883-1.745A3.5,3.5,0,0,1,14.44,8.392a.914.914,0,1,0,1.593-.9,5.3,5.3,0,0,0-4.581-2.857A5.1,5.1,0,0,0,7.545,6.523,6.336,6.336,0,0,0,6.521,8.211H5.358a.914.914,0,0,0,0,1.829h.69a7.249,7.249,0,0,0,0,1.7h-.69a.914.914,0,0,0,0,1.829H6.521a6.337,6.337,0,0,0,1.025,1.688,5.1,5.1,0,0,0,3.906,1.886,5.3,5.3,0,0,0,4.581-2.857A.914.914,0,0,0,15.685,13.043Z" transform="translate(0.297 0.309)"/></g></g></svg>