<svg xmlns="http://www.w3.org/2000/svg" xmlns:xlink="http://www.w3.org/1999/xlink" width="92.053" height="77.74" viewBox="0 0 92.053 77.74">
  <defs>
    <linearGradient id="linear-gradient" x1="0.782" y1="0.34" x2="0.346" y2="1.41" gradientUnits="objectBoundingBox">
      <stop offset="0" stop-color="#fff"/>
      <stop offset="1" stop-color="#fff" stop-opacity="0.6"/>
    </linearGradient>
    <linearGradient id="linear-gradient-2" x1="0.5" x2="0.5" y2="1" gradientUnits="objectBoundingBox">
      <stop offset="0" stop-color="#fff" stop-opacity="0"/>
      <stop offset="1" stop-color="#fff"/>
    </linearGradient>
  </defs>
  <g id="growth" transform="translate(-103 -1.363)">
    <g id="Group_57361" data-name="Group 57361">
      <g id="Group_57359" data-name="Group 57359" transform="translate(103 30)">
        <path id="Path" d="M0,17.4a1,1,0,0,1-.474-.12,1,1,0,0,1-.4-1.354c.121-.224,3.009-5.5,7.1-6.7a5.671,5.671,0,0,1,4.491.519,36.675,36.675,0,0,1,3.919,2.562C17,14.027,17.98,14.74,20.905,13.643c1.854-.7,3.125-4.585,4.146-7.71,1.135-3.473,2.032-6.217,3.867-6.82a2.53,2.53,0,0,1,2.334.469c4.939,3.528,14.439,8.234,22.566.107A1,1,0,1,1,55.232,1.1a17.136,17.136,0,0,1-7.406,4.525,16,16,0,0,1-7.225.308A26.142,26.142,0,0,1,30.089,1.209c-.239-.171-.423-.237-.547-.2-.148.049-.558.3-1.159,1.6a38.969,38.969,0,0,0-1.431,3.938c-1.274,3.9-2.591,7.929-5.345,8.962a7.107,7.107,0,0,1-4.61.436,11.614,11.614,0,0,1-3.544-2.026,34.486,34.486,0,0,0-3.716-2.432,3.689,3.689,0,0,0-2.955-.348C3.5,12.1.906,16.829.88,16.877A1,1,0,0,1,0,17.4Z" transform="translate(1 9.127)" fill="url(#linear-gradient)"/>
        <ellipse id="Path-2" data-name="Path" cx="13.481" cy="7.805" rx="13.481" ry="7.805" transform="translate(33.972 5.145) rotate(-11)" fill="url(#linear-gradient-2)"/>
      </g>
    </g>
  </g>
</svg>
