<svg xmlns="http://www.w3.org/2000/svg" xmlns:xlink="http://www.w3.org/1999/xlink" width="20" height="20" viewBox="0 0 20 20"><defs><style>.a{fill:#90929f;}.b{clip-path:url(#a);}</style><clipPath id="a"><rect class="a" width="20" height="20" transform="translate(1585 -1613)"/></clipPath></defs><g class="b" transform="translate(-1585 1613)"><g transform="translate(1585 -1614.374)"><path class="a" d="M14.009,5.723V2.351a.98.98,0,0,0-.977-.977H.977A.98.98,0,0,0,0,2.351V16.165a1,1,0,0,0,.521.863L7.95,20.873a.493.493,0,0,0,.717-.44V16.687h4.366a.98.98,0,0,0,.977-.977V10.366H12.055v3.877a.48.48,0,0,1-.489.489H8.683V6.44a1,1,0,0,0-.521-.863L3.779,3.329h7.787a.48.48,0,0,1,.489.489V5.74h1.955Z" transform="translate(0 0)"/><path class="a" d="M67.815,16.65l3.177,3.177a.975.975,0,0,1,0,1.417L67.815,24.42a.994.994,0,0,1-1.434.016A1.039,1.039,0,0,1,66.414,23l1.433-1.417H62.293a.964.964,0,0,1-.733-.326,1.106,1.106,0,0,1,.244-1.678,1.044,1.044,0,0,1,.489-.13h5.555s-1.417-1.417-1.433-1.417a.986.986,0,1,1,1.4-1.385Z" transform="translate(-51.297 -12.523)"/></g></g></svg>