<svg xmlns="http://www.w3.org/2000/svg" xmlns:xlink="http://www.w3.org/1999/xlink" width="20" height="20" viewBox="0 0 20 20"><defs><style>.a{fill:#fff;}.b{clip-path:url(#a);}.c{fill:#90929f;}</style><clipPath id="a"><rect class="a" width="20" height="20" transform="translate(1626 -1506)"/></clipPath></defs><g class="b" transform="translate(-1626 1506)"><g transform="translate(1595.131 -1506)"><g transform="translate(32.124)"><path class="c" d="M49.612,19.364,48.985.566A.586.586,0,0,0,48.4,0H33.337a.586.586,0,0,0-.586.566l-.628,18.828A.586.586,0,0,0,32.71,20H49.028a.586.586,0,0,0,.586-.586C49.614,19.4,49.613,19.38,49.612,19.364ZM40.868,8.7a4.356,4.356,0,0,1-4.352-4.352.586.586,0,0,1,1.172,0,3.18,3.18,0,1,0,6.359,0,.586.586,0,0,1,1.172,0A4.356,4.356,0,0,1,40.868,8.7Z" transform="translate(-32.124)"/></g></g></g></svg>