<svg xmlns="http://www.w3.org/2000/svg" width="24.314" height="19.548" viewBox="0 0 24.314 19.548">
  <g id="Group_57701" data-name="Group 57701" transform="translate(-5872.5 224.848)">
    <g id="Group_57700" data-name="Group 57700" transform="translate(5873 -224.848)">
      <path id="Path_54216" data-name="Path 54216" d="M6042.628-281.237h5.29l2.65,2.138h7.586l2.811-2.138h4.584" transform="translate(-6042.235 283.122)" fill="none" stroke="#fff" stroke-linecap="round" stroke-width="1"/>
      <path id="Path_54217" data-name="Path 54217" d="M6042.628-279.1h5.29l2.65-2.138h7.586l2.811,2.138h4.584" transform="translate(-6042.235 296.95)" fill="none" stroke="#fff" stroke-linecap="round" stroke-width="1"/>
      <line id="Line_111" data-name="Line 111" x2="23" transform="translate(0 9.848)" fill="none" stroke="#fff" stroke-linecap="round" stroke-width="1"/>
      <g id="Path_54220" data-name="Path 54220" transform="translate(0.629 0)" fill="#fff">
        <path d="M 1.885579347610474 3.271159410476685 C 1.121569395065308 3.271159410476685 0.4999993443489075 2.64958930015564 0.4999993443489075 1.885579347610474 C 0.4999993443489075 1.121569395065308 1.121569395065308 0.4999993443489075 1.885579347610474 0.4999993443489075 C 2.64958930015564 0.4999993443489075 3.271159410476685 1.121569395065308 3.271159410476685 1.885579347610474 C 3.271159410476685 2.64958930015564 2.64958930015564 3.271159410476685 1.885579347610474 3.271159410476685 Z" stroke="none"/>
        <path d="M 1.885579347610474 0.9999992847442627 C 1.397269248962402 0.9999992847442627 0.9999992847442627 1.397269248962402 0.9999992847442627 1.885579347610474 C 0.9999992847442627 2.373889446258545 1.397269248962402 2.771159410476685 1.885579347610474 2.771159410476685 C 2.373889446258545 2.771159410476685 2.771159410476685 2.373889446258545 2.771159410476685 1.885579347610474 C 2.771159410476685 1.397269248962402 2.373889446258545 0.9999992847442627 1.885579347610474 0.9999992847442627 M 1.885579347610474 -7.152557373046875e-07 C 2.926959276199341 -7.152557373046875e-07 3.771159410476685 0.8441994190216064 3.771159410476685 1.885579347610474 C 3.771159410476685 2.926959276199341 2.926959276199341 3.771159410476685 1.885579347610474 3.771159410476685 C 0.8441994190216064 3.771159410476685 -7.152557373046875e-07 2.926959276199341 -7.152557373046875e-07 1.885579347610474 C -7.152557373046875e-07 0.8441994190216064 0.8441994190216064 -7.152557373046875e-07 1.885579347610474 -7.152557373046875e-07 Z" stroke="none" fill="#faa300"/>
      </g>
      <g id="Ellipse_1537" data-name="Ellipse 1537" transform="translate(18.273 7.802)" fill="#fff" stroke="#faa300" stroke-width="1">
        <circle cx="1.886" cy="1.886" r="1.886" stroke="none"/>
        <circle cx="1.886" cy="1.886" r="1.386" fill="none"/>
      </g>
      <g id="Path_54219" data-name="Path 54219" transform="translate(3.143 15.777)" fill="#fff">
        <path d="M 1.885579347610474 3.271159410476685 C 1.121569395065308 3.271159410476685 0.4999993443489075 2.64958930015564 0.4999993443489075 1.885579347610474 C 0.4999993443489075 1.121569395065308 1.121569395065308 0.4999993443489075 1.885579347610474 0.4999993443489075 C 2.64958930015564 0.4999993443489075 3.271159410476685 1.121569395065308 3.271159410476685 1.885579347610474 C 3.271159410476685 2.64958930015564 2.64958930015564 3.271159410476685 1.885579347610474 3.271159410476685 Z" stroke="none"/>
        <path d="M 1.885579347610474 0.9999992847442627 C 1.397269248962402 0.9999992847442627 0.9999992847442627 1.397269248962402 0.9999992847442627 1.885579347610474 C 0.9999992847442627 2.373889446258545 1.397269248962402 2.771159410476685 1.885579347610474 2.771159410476685 C 2.373889446258545 2.771159410476685 2.771159410476685 2.373889446258545 2.771159410476685 1.885579347610474 C 2.771159410476685 1.397269248962402 2.373889446258545 0.9999992847442627 1.885579347610474 0.9999992847442627 M 1.885579347610474 -7.152557373046875e-07 C 2.926959276199341 -7.152557373046875e-07 3.771159410476685 0.8441994190216064 3.771159410476685 1.885579347610474 C 3.771159410476685 2.926959276199341 2.926959276199341 3.771159410476685 1.885579347610474 3.771159410476685 C 0.8441994190216064 3.771159410476685 -7.152557373046875e-07 2.926959276199341 -7.152557373046875e-07 1.885579347610474 C -7.152557373046875e-07 0.8441994190216064 0.8441994190216064 -7.152557373046875e-07 1.885579347610474 -7.152557373046875e-07 Z" stroke="none" fill="#faa300"/>
      </g>
      <g id="Path_54221" data-name="Path 54221" transform="translate(8.171 1.698)" fill="#fff">
        <path d="M 7.564945220947266 17.34874153137207 L 1.23442542552948 17.34874153137207 C 0.6916053891181946 17.34874153137207 0.2499953806400299 16.90713119506836 0.2499953806400299 16.36431121826172 L 0.2499953806400299 1.23443078994751 C 0.2499953806400299 0.6916107535362244 0.6916053891181946 0.2500007748603821 1.23442542552948 0.2500007748603821 L 7.564945220947266 0.2500007748603821 C 8.107765197753906 0.2500007748603821 8.549375534057617 0.6916107535362244 8.549375534057617 1.23443078994751 L 8.549375534057617 16.36431121826172 C 8.549375534057617 16.90713119506836 8.107765197753906 17.34874153137207 7.564945220947266 17.34874153137207 Z" stroke="none"/>
        <path d="M 1.23442554473877 0.5 C 0.8294553756713867 0.5 0.499995231628418 0.8294601440429688 0.499995231628418 1.234430313110352 L 0.499995231628418 16.36431121826172 C 0.499995231628418 16.7692813873291 0.8294553756713867 17.09874153137207 1.23442554473877 17.09874153137207 L 7.564945220947266 17.09874153137207 C 7.969915390014648 17.09874153137207 8.299375534057617 16.7692813873291 8.299375534057617 16.36431121826172 L 8.299375534057617 1.234430313110352 C 8.299375534057617 0.8294601440429688 7.969915390014648 0.5 7.564945220947266 0.5 L 1.23442554473877 0.5 M 1.23442554473877 0 L 7.564945220947266 0 C 8.246695518493652 0 8.799375534057617 0.5526714324951172 8.799375534057617 1.234430313110352 L 8.799375534057617 16.36431121826172 C 8.799375534057617 17.04607009887695 8.246695518493652 17.59874153137207 7.564945220947266 17.59874153137207 L 1.23442554473877 17.59874153137207 C 0.5526752471923828 17.59874153137207 -4.76837158203125e-06 17.04607009887695 -4.76837158203125e-06 16.36431121826172 L -4.76837158203125e-06 1.234430313110352 C -4.76837158203125e-06 0.5526714324951172 0.5526752471923828 0 1.23442554473877 0 Z" stroke="none" fill="#fff"/>
      </g>
    </g>
    <path id="Path_54218" data-name="Path 54218" d="M2.926,3.194H1.5a2.309,2.309,0,0,0,.024.309,1.7,1.7,0,0,0,.063.272,1.321,1.321,0,0,0,.1.236,1.134,1.134,0,0,0,.141.2,1,1,0,0,0,.177.159,1.029,1.029,0,0,0,.212.113,1.234,1.234,0,0,0,.246.068,1.649,1.649,0,0,0,.28.023q.113,0,.222-.007t.214-.022q.1-.014.205-.036t.2-.051l.092.549q-.118.026-.235.045t-.235.032q-.117.013-.234.019t-.234.006a3.091,3.091,0,0,1-.451-.032,2.339,2.339,0,0,1-.4-.094,1.9,1.9,0,0,1-.351-.157,1.734,1.734,0,0,1-.3-.22,1.618,1.618,0,0,1-.242-.277A1.674,1.674,0,0,1,.819,4,2,2,0,0,1,.71,3.624a2.625,2.625,0,0,1-.042-.43H0V2.77H.667V2.3H0V1.876H.667a2.56,2.56,0,0,1,.05-.415A2,2,0,0,1,.83,1.093a1.715,1.715,0,0,1,.176-.32A1.694,1.694,0,0,1,1.542.281,1.869,1.869,0,0,1,1.889.125a2.311,2.311,0,0,1,.4-.094A3.074,3.074,0,0,1,2.734,0q.1,0,.215.006t.229.02Q3.3.04,3.421.059t.256.046L3.585.656Q3.48.626,3.375.6T3.164.566Q3.059.551,2.954.544T2.744.537a1.611,1.611,0,0,0-.263.021,1.259,1.259,0,0,0-.235.062,1.085,1.085,0,0,0-.207.1,1.064,1.064,0,0,0-.179.144.988.988,0,0,0-.146.186,1.228,1.228,0,0,0-.108.23,1.693,1.693,0,0,0-.07.275,2.442,2.442,0,0,0-.033.319H2.926V2.3H1.5V2.77H2.926Z" transform="translate(5883.685 -216.259)" fill="#faa300" opacity="0.91"/>
  </g>
</svg>
