<svg xmlns="http://www.w3.org/2000/svg" xmlns:xlink="http://www.w3.org/1999/xlink" width="20" height="20" viewBox="0 0 20 20">
  <defs>
    <clipPath id="clip-path">
      <rect id="Rectangle_18954" data-name="Rectangle 18954" width="20" height="20" transform="translate(13243 912)" fill="#fff"/>
    </clipPath>
  </defs>
  <g id="Mask_Group_152" data-name="Mask Group 152" transform="translate(-13243 -912)" clip-path="url(#clip-path)">
    <g id="Group_57706" data-name="Group 57706" transform="translate(13195 404.13)">
      <g id="Group_57668" data-name="Group 57668" transform="translate(48 508)">
        <path id="Icon_material-subscriptions" data-name="Icon material-subscriptions" d="M23,17.059V25.3a2.036,2.036,0,0,1-2,2.059H5A2.036,2.036,0,0,1,3,25.3V17.059A2.036,2.036,0,0,1,5,15H21A2.036,2.036,0,0,1,23,17.059Z" transform="translate(-3 -7.357)" fill="#90929f"/>
        <rect id="Rectangle_18939" data-name="Rectangle 18939" width="14" height="2" rx="0.5" transform="translate(3 3.945)" fill="#90929f"/>
        <rect id="Rectangle_18940" data-name="Rectangle 18940" width="8" height="2" rx="0.5" transform="translate(6)" fill="#90929f"/>
      </g>
      <text id="_" data-name="€" transform="translate(54.783 525.3)" fill="#2f3157" font-size="10" font-family="SegoeUIBlack, Segoe UI"><tspan x="0" y="0">€</tspan></text>
    </g>
  </g>
</svg>
