<svg xmlns="http://www.w3.org/2000/svg" width="30.342" height="39.011" viewBox="0 0 30.342 39.011">
  <path id="Path_54235" data-name="Path 54235" d="M13,37.154a1.853,1.853,0,0,1,1.26-1.75.61.61,0,0,1-.022-.107V30.342a.619.619,0,1,1,1.238,0V35.3a.61.61,0,0,1-.022.107A1.854,1.854,0,1,1,13,37.154Zm1.238,0a.619.619,0,1,0,.619-.619A.62.62,0,0,0,14.243,37.154Zm6.192-3.715a1.854,1.854,0,0,1,1.26-1.751.6.6,0,0,1-.022-.108V27.246a.619.619,0,0,1,1.238,0V31.58a.62.62,0,0,1-.022.108,1.854,1.854,0,1,1-2.455,1.751Zm1.238,0a.619.619,0,1,0,.619-.619A.62.62,0,0,0,21.673,33.439Zm-15.481,0A1.855,1.855,0,0,1,7.43,31.694v-3.83a.619.619,0,0,1,1.238,0v3.83a1.855,1.855,0,1,1-2.477,1.744Zm1.238,0a.619.619,0,1,0,.619-.619A.62.62,0,0,0,7.43,33.439Zm19.2-2.477a1.855,1.855,0,0,1,1.238-1.744V23.531H26.007a.619.619,0,1,1,0-1.238h2.477a.619.619,0,0,1,.619.619v6.306a1.855,1.855,0,1,1-2.477,1.744Zm1.238,0a.619.619,0,1,0,.619-.619A.62.62,0,0,0,27.865,30.962ZM0,30.962a1.855,1.855,0,0,1,1.238-1.744V22.911a.619.619,0,0,1,.619-.619H4.334a.619.619,0,1,1,0,1.238H2.477v5.687A1.855,1.855,0,1,1,0,30.962Zm1.238,0a.619.619,0,1,0,.619-.619A.62.62,0,0,0,1.238,30.962ZM6.192,19.815a8.669,8.669,0,1,1,8.67,8.669A8.679,8.679,0,0,1,6.192,19.815Zm1.238,0a7.431,7.431,0,1,0,7.431-7.431A7.439,7.439,0,0,0,7.43,19.815Zm11.147,1.858v-3.1h-.619a.619.619,0,0,1,0-1.238h2.477a.619.619,0,1,1,0,1.238h-.619v3.1a.619.619,0,1,1-1.238,0Zm-4.954,0V17.958a.619.619,0,0,1,.619-.619H16.1a.619.619,0,1,1,0,1.238H14.862V19.2H16.1a.619.619,0,1,1,0,1.238H14.862v1.238a.619.619,0,0,1-1.238,0Zm-1.858,0v-.982l-1.238-1.238v2.22a.62.62,0,0,1-1.239,0V17.958a.619.619,0,0,1,1.057-.437l1.42,1.419v-.982a.619.619,0,1,1,1.238,0v3.715a.619.619,0,0,1-1.238,0Zm14.242-4.954a.619.619,0,1,1,0-1.238h1.858V9.794a1.858,1.858,0,1,1,1.238,0V16.1a.619.619,0,0,1-.619.619ZM27.865,8.05a.619.619,0,1,0,.619-.62A.62.62,0,0,0,27.865,8.05ZM1.858,16.719a.619.619,0,0,1-.619-.619V9.794a1.858,1.858,0,1,1,1.238,0v5.687H4.334a.619.619,0,0,1,0,1.238ZM1.238,8.05a.619.619,0,1,0,.619-.62A.62.62,0,0,0,1.238,8.05Zm20.435,3.715V7.43a.61.61,0,0,1,.022-.107,1.858,1.858,0,1,1,1.2,0,.61.61,0,0,1,.022.107v4.335a.619.619,0,1,1-1.238,0Zm0-6.193a.619.619,0,1,0,.619-.619A.62.62,0,0,0,21.673,5.573ZM7.43,11.766V7.317a1.858,1.858,0,1,1,1.238,0v4.449a.619.619,0,0,1-1.238,0Zm0-6.193a.619.619,0,1,0,.619-.619A.62.62,0,0,0,7.43,5.573Zm6.812,3.715V3.715a.61.61,0,0,1,.022-.107,1.858,1.858,0,1,1,1.2,0,.61.61,0,0,1,.022.107V9.288a.619.619,0,0,1-1.238,0Zm0-7.43a.619.619,0,1,0,.619-.619A.62.62,0,0,0,14.243,1.858Z" fill="#18b5e4"/>
</svg>
