<svg xmlns="http://www.w3.org/2000/svg" width="52.926" height="68.047" viewBox="0 0 52.926 68.047"><defs><style>.a{fill:#fff;}</style></defs><path class="a" d="M54,80.2h-3.24v-9.92a3.24,3.24,0,1,0-2.16,0v11a1.08,1.08,0,0,0,1.08,1.08H54a1.08,1.08,0,1,0,0-2.16ZM49.677,66.16a1.08,1.08,0,1,1-1.08,1.08A1.082,1.082,0,0,1,49.677,66.16Z" transform="translate(-46.437 -53.199)"/><path class="a" d="M211.517,82.362h4.32a1.08,1.08,0,0,0,1.08-1.08v-11a3.24,3.24,0,1,0-2.16,0V80.2h-3.24a1.08,1.08,0,0,0,0,2.16Zm4.32-16.2a1.08,1.08,0,1,1-1.08,1.08A1.082,1.082,0,0,1,215.838,66.16Z" transform="translate(-166.152 -53.199)"/><path class="a" d="M88.6,54.282v7.76a1.08,1.08,0,1,0,2.16,0v-7.76a3.24,3.24,0,1,0-2.16,0Zm1.08-4.121a1.08,1.08,0,1,1-1.08,1.08A1.082,1.082,0,0,1,89.677,50.16Z" transform="translate(-75.636 -41.519)"/><path class="a" d="M181.677,48a3.232,3.232,0,0,0-1.042,6.293,1.038,1.038,0,0,0-.038.187v7.561a1.08,1.08,0,1,0,2.16,0V54.481a1.038,1.038,0,0,0-.038-.187A3.232,3.232,0,0,0,181.677,48Zm0,4.32a1.08,1.08,0,1,1,1.08-1.08A1.082,1.082,0,0,1,181.677,52.32Z" transform="translate(-142.793 -41.519)"/><path class="a" d="M132.635,30.293a1.037,1.037,0,0,0-.038.187V40.2a1.08,1.08,0,1,0,2.16,0V30.481a1.039,1.039,0,0,0-.038-.187,3.24,3.24,0,1,0-2.085,0Zm1.042-4.133a1.08,1.08,0,1,1-1.08,1.08A1.082,1.082,0,0,1,133.677,26.16Z" transform="translate(-107.755 -24)"/><path class="a" d="M54,168h-4.32a1.08,1.08,0,0,0-1.08,1.08v11a3.24,3.24,0,1,0,2.16,0v-9.92H54A1.08,1.08,0,1,0,54,168Zm-4.32,16.2a1.08,1.08,0,1,1,1.08-1.08A1.082,1.082,0,0,1,49.677,184.2Z" transform="translate(-46.437 -129.116)"/><path class="a" d="M90.757,207.76v-6.68a1.08,1.08,0,1,0-2.16,0v6.68a3.24,3.24,0,1,0,2.16,0Zm-1.08,4.121a1.08,1.08,0,1,1,1.08-1.08A1.082,1.082,0,0,1,89.677,211.881Z" transform="translate(-75.636 -152.475)"/><path class="a" d="M216.918,180.08v-11a1.08,1.08,0,0,0-1.08-1.08h-4.32a1.08,1.08,0,0,0,0,2.16h3.24v9.92a3.24,3.24,0,1,0,2.16,0Zm-1.08,4.121a1.08,1.08,0,1,1,1.08-1.08A1.082,1.082,0,0,1,215.838,184.2Z" transform="translate(-166.152 -129.116)"/><path class="a" d="M182.72,204.828a1.041,1.041,0,0,0,.038-.187V197.08a1.08,1.08,0,1,0-2.16,0v7.561a1.032,1.032,0,0,0,.038.187,3.24,3.24,0,1,0,2.085,0Zm-1.042,4.133a1.08,1.08,0,1,1,1.08-1.08A1.082,1.082,0,0,1,181.677,208.961Z" transform="translate(-142.793 -149.555)"/><path class="a" d="M134.72,225.908a1.039,1.039,0,0,0,.038-.187V217.08a1.08,1.08,0,0,0-2.16,0v8.641a1.029,1.029,0,0,0,.038.187,3.24,3.24,0,1,0,2.085,0Zm-1.042,4.133a1.08,1.08,0,1,1,1.08-1.08A1.082,1.082,0,0,1,133.677,230.042Z" transform="translate(-107.755 -164.154)"/><path class="a" d="M101.559,126.243a15.122,15.122,0,1,0-15.122-15.122A15.139,15.139,0,0,0,101.559,126.243Zm0-28.083A12.961,12.961,0,1,1,88.6,111.122,12.976,12.976,0,0,1,101.559,98.16Z" transform="translate(-75.636 -76.558)"/><path class="a" d="M135.517,144.641a1.08,1.08,0,0,0,1.08-1.08V141.4h2.16a1.08,1.08,0,0,0,0-2.16H136.6v-1.08h2.16a1.08,1.08,0,0,0,0-2.16h-3.24a1.08,1.08,0,0,0-1.08,1.08v6.481A1.08,1.08,0,0,0,135.517,144.641Z" transform="translate(-110.674 -105.757)"/><path class="a" d="M108.6,143.56v-3.873l2.16,2.16v1.713a1.08,1.08,0,0,0,2.16,0v-6.481a1.08,1.08,0,1,0-2.16,0v1.713l-2.477-2.477a1.08,1.08,0,0,0-1.844.764v6.481a1.08,1.08,0,0,0,2.16,0Z" transform="translate(-90.235 -105.756)"/><path class="a" d="M159.517,138.16h1.08v5.4a1.08,1.08,0,0,0,2.16,0v-5.4h1.08a1.08,1.08,0,1,0,0-2.16h-4.32a1.08,1.08,0,1,0,0,2.16Z" transform="translate(-128.194 -105.757)"/></svg>