<svg xmlns="http://www.w3.org/2000/svg" xmlns:xlink="http://www.w3.org/1999/xlink" width="1152" height="1203" viewBox="0 0 1152 1203">
  <defs>
    <clipPath id="clip-path">
      <rect id="Rectangle_19460" data-name="Rectangle 19460" width="1152" height="1203" transform="translate(2317 -71)" fill="#fff"/>
    </clipPath>
  </defs>
  <g id="Mask_Group_289" data-name="Mask Group 289" transform="translate(-2317 71)" clip-path="url(#clip-path)">
    <g id="Group_60604" data-name="Group 60604" transform="translate(2536.31 107)">
      <path id="Path_81866" data-name="Path 81866" d="M695.707-3931.44c-22.152,1.1-37,5.764-49.252,15.45-2.921,2.326-467.211,466.675-469.29,469.314A60.773,60.773,0,0,0,164.89-3418.5a78.493,78.493,0,0,0,0,17.052,60.436,60.436,0,0,0,12.449,28.353c2.227,2.817,358.185,358.776,360.956,360.966a60.658,60.658,0,0,0,28.217,12.389c1.435.217,4.43.45,6.681.531a58.461,58.461,0,0,0,38.858-12.92c2.7-2.126,466.269-465.654,468.917-468.881,8.49-10.314,13.267-23.387,15.073-41.09.867-8.752.892-12.914.817-180.8l-.1-165.084-.545-3.164a71.127,71.127,0,0,0-6.98-21.711A70.19,70.19,0,0,0,1057.9-3924.1a70.641,70.641,0,0,0-21.557-6.916l-3.168-.53-166.693-.057C774.81-3931.6,697.96-3931.55,695.707-3931.44Zm335.514,40.7a29.8,29.8,0,0,1,16.211,8.542,29.463,29.463,0,0,1,8.613,17.211c.224,1.659.272,42.247.2,168.664-.073,151.525-.122,166.765-.469,169.889-.966,8.324-1.981,12.412-4.109,16.608l-1.138,2.23L818.37-3275.46c-203.77,203.8-232.405,232.36-233.915,233.221a27.726,27.726,0,0,1-3.712,1.721c-1.832.622-2.277.684-5.57.684-3.217,0-3.786-.062-5.568-.684a24.921,24.921,0,0,1-3.589-1.6c-1.362-.763-28.414-27.691-179.712-178.983-151.273-151.308-178.225-178.35-178.993-179.718a21.9,21.9,0,0,1-1.585-3.592c-.618-1.762-.668-2.309-.668-5.553,0-3.261.05-3.791.668-5.564a21.737,21.737,0,0,1,1.585-3.615c.768-1.351,35.665-36.363,232.454-233.18C572.377-3785,672-3884.48,672.888-3885.1a27.852,27.852,0,0,1,7.276-3.4,82.767,82.767,0,0,1,15.915-2.36c1.9-.081,77.592-.217,168.2-.217,147.711-.063,164.991,0,166.941.327Z" transform="translate(-164.425 4023.73)" fill="#fff"/>
      <path id="Path_81867" data-name="Path 81867" d="M2943.93-3522.35a81.223,81.223,0,0,0-73.131,57.288,81.3,81.3,0,0,0,1.545,51.877,81.376,81.376,0,0,0,55.879,50.354,75.638,75.638,0,0,0,20.046,2.417,74.915,74.915,0,0,0,19.933-2.361,81.536,81.536,0,0,0,44.665-29.5,81.047,81.047,0,0,0,14.851-65.749,85.633,85.633,0,0,0-10.49-26.2A81.148,81.148,0,0,0,2943.93-3522.35Zm8.171,40.583a41.779,41.779,0,0,1,19.8,7.343,50.158,50.158,0,0,1,9.492,9.481,51.357,51.357,0,0,1,5.474,10.764,41.789,41.789,0,0,1,1.231,20.883,41.3,41.3,0,0,1-15.69,24.521,40.738,40.738,0,0,1-43.085,3.187,43.1,43.1,0,0,1-16.762-16.785,40.988,40.988,0,0,1-1.6-34.659,40.612,40.612,0,0,1,27.293-23.6,39.5,39.5,0,0,1,13.846-1.139Z" transform="translate(-2198.306 3715.853)" fill="#ffa726"/>
      <text id="_" data-name="+" transform="translate(-219.31 439)" fill="#ffa726" font-size="648" font-family="SFProText-Semibold, SF Pro Text" font-weight="600"><tspan x="0" y="0">+</tspan></text>
    </g>
  </g>
</svg>
