<svg xmlns="http://www.w3.org/2000/svg" width="24.015" height="24" viewBox="0 0 24.015 24">
  <path id="Path_54220" data-name="Path 54220" d="M10.935,23.969a11.579,11.579,0,0,1-1.893-.338,7.82,7.82,0,0,1-.867-.254c-.088-.031-.2-.067-.24-.077a1.214,1.214,0,0,1-.173-.061c-.122-.053-.33-.139-.48-.2-.235-.094-1.112-.541-1.392-.712A12.954,12.954,0,0,1,4.2,21.113c-.283-.239-.328-.269-.4-.256-.136.024-.192.083-.277.285-.046.106-.133.319-.2.474a.9.9,0,0,1-.152.28c-.043,0-1.792-5.2-1.773-5.26.013-.038.152-.024.213.018a1.752,1.752,0,0,0,.227.083c.109.035.428.139.707.232l.64.213c.074.023.362.12.639.213l.64.213c.075.023.326.106.561.186s.7.235,1.034.347c.472.155.6.211.6.243a1.618,1.618,0,0,1-.408.219c-.338.149-.408.192-.45.266s-.051.088,0,.184a7.566,7.566,0,0,0,1.562,1.163c.035.016.166.088.293.155a10.8,10.8,0,0,0,2.013.778,11.412,11.412,0,0,0,1.474.256,15.8,15.8,0,0,0,1.792-.019l.125-.015.075.125a6.578,6.578,0,0,0,1.762,1.89,1.023,1.023,0,0,1,.192.152c0,.03-.048.056-.158.08-.347.086-.589.141-.682.158-.058.013-.178.037-.266.053-.194.04-.341.061-.84.12-.265.033-.8.05-1.286.05C11.481,24,11.125,23.99,10.935,23.969Zm5.746-.246a6.637,6.637,0,0,1-1.12-.485,7.037,7.037,0,0,1-.712-.5,5.658,5.658,0,0,1-2.039-4.855,7.428,7.428,0,0,1,.162-.949,6.213,6.213,0,0,1,.5-1.239,1.113,1.113,0,0,0,.077-.139,2.536,2.536,0,0,1,.144-.235,6.29,6.29,0,0,1,.744-.912,8.182,8.182,0,0,1,.84-.688,5.849,5.849,0,0,1,1.058-.553.068.068,0,0,0,.053-.026c.008-.016.043-.027.077-.027a.18.18,0,0,0,.086-.022,5.433,5.433,0,0,1,1.4-.306c.067-.008.318-.005.56,0a5.112,5.112,0,0,1,2.013.408c.117.045.671.322.746.373.046.029.118.072.16.1A6.7,6.7,0,0,1,22.879,15a5.768,5.768,0,0,1,1,2.186A5.257,5.257,0,0,1,24,18.367a4.157,4.157,0,0,1-.064.946,5.555,5.555,0,0,1-1.5,2.981,5.783,5.783,0,0,1-1.189.944,6.814,6.814,0,0,1-1.453.587,4.772,4.772,0,0,1-1.37.165A4.977,4.977,0,0,1,16.681,23.723Zm-.117-4.25c-.107.091-.128.208-.072.437a1.677,1.677,0,0,0,1.148,1.141,2.068,2.068,0,0,0,.267.072c.237.037.219.013.231.272.013.288.067.4.2.424.208.04.3-.077.306-.4l.005-.238.28-.069a2.156,2.156,0,0,0,.744-.317,1.271,1.271,0,0,0,.571-1.539,2.568,2.568,0,0,0-1.448-.981c-1.53-.562-1.869-.789-1.831-1.231a.946.946,0,0,1,.581-.75,1.444,1.444,0,0,1,.45-.157,1.884,1.884,0,0,1,1.507.326.92.92,0,0,1,.32.554c.053.242.122.336.253.336.186,0,.283-.136.256-.357a1.317,1.317,0,0,0-.45-.832,1.868,1.868,0,0,0-1.019-.518l-.211-.045-.008-.238c-.008-.261-.037-.344-.147-.4a.173.173,0,0,0-.2,0c-.109.061-.144.144-.163.4l-.015.243-.2.045a1.854,1.854,0,0,0-.506.168,1.566,1.566,0,0,0-.952,1.136,1.017,1.017,0,0,0,.13.659,2,2,0,0,0,.587.514.745.745,0,0,1,.1.054,6.424,6.424,0,0,0,.666.3c.258.086,1.091.427,1.307.534a1.82,1.82,0,0,1,.375.253.439.439,0,0,1,.187.288.766.766,0,0,1-.265.725,1.826,1.826,0,0,1-2.343-.046.888.888,0,0,1-.251-.5c-.037-.2-.059-.24-.157-.291a.245.245,0,0,0-.11-.038A.2.2,0,0,0,16.564,19.473Zm6.726-4.743a8.825,8.825,0,0,0-1.223-1.223c-.13-.1-.352-.248-.49-.334l-.248-.155.016-.133c.031-.253.093-.879.1-1.013l.008-.134.107-.013c.139-.016,2.41-.005,2.439.013a9.131,9.131,0,0,1-.173,1.88,7.289,7.289,0,0,1-.334,1.36A1.99,1.99,0,0,1,23.289,14.73ZM.014,12.254A4.8,4.8,0,0,1,.06,11.207,12.414,12.414,0,0,1,.649,8.5a3.545,3.545,0,0,1,.133-.368c.058-.072.058-.072.211.355a6.88,6.88,0,0,0,.986,1.733c.094.117.288.336.435.485l.265.274-.032.232a5.975,5.975,0,0,0-.083.832.465.465,0,0,1-.031.211,12.185,12.185,0,0,1-1.266.034A11.688,11.688,0,0,1,.014,12.254Zm5.11-.521a7.042,7.042,0,0,1-1.2-.52,7.652,7.652,0,0,1-.763-.54A6.067,6.067,0,0,1,.974,5.468a8.207,8.207,0,0,1,.175-1.017,6.649,6.649,0,0,1,.535-1.329,1.318,1.318,0,0,0,.083-.148,2.717,2.717,0,0,1,.154-.252,6.717,6.717,0,0,1,.8-.977,8.959,8.959,0,0,1,.9-.738A6.3,6.3,0,0,1,4.753.414.076.076,0,0,0,4.811.385c.008-.017.045-.029.083-.029A.19.19,0,0,0,4.984.334a5.827,5.827,0,0,1,1.5-.329c.071-.009.34-.006.6,0A5.488,5.488,0,0,1,9.241.443c.125.049.72.346.8.4.049.031.126.077.171.1A7.159,7.159,0,0,1,11.77,2.387,6.187,6.187,0,0,1,12.846,4.73a5.646,5.646,0,0,1,.122,1.261A4.428,4.428,0,0,1,12.9,7.006a5.951,5.951,0,0,1-1.612,3.2,6.2,6.2,0,0,1-1.275,1.012,7.207,7.207,0,0,1-1.558.629,5.116,5.116,0,0,1-1.469.177A5.333,5.333,0,0,1,5.125,11.733ZM5,7.178c-.114.1-.137.222-.077.469A1.8,1.8,0,0,0,6.153,8.87a2.155,2.155,0,0,0,.286.077c.255.04.234.014.248.292.014.309.072.428.218.454.222.042.317-.083.328-.432l.005-.255.3-.074a2.29,2.29,0,0,0,.8-.34,1.361,1.361,0,0,0,.612-1.65A2.756,2.756,0,0,0,7.4,5.891c-1.641-.6-2-.846-1.964-1.32a1.012,1.012,0,0,1,.623-.8A1.519,1.519,0,0,1,6.539,3.6a2.023,2.023,0,0,1,1.616.349.985.985,0,0,1,.343.594c.057.26.131.361.271.361.2,0,.3-.147.274-.383a1.413,1.413,0,0,0-.482-.892,2,2,0,0,0-1.093-.554l-.226-.049-.008-.255c-.009-.28-.04-.369-.157-.428a.184.184,0,0,0-.217,0c-.117.066-.155.154-.175.428l-.017.26-.214.049a2.008,2.008,0,0,0-.544.18A1.682,1.682,0,0,0,4.89,4.473a1.088,1.088,0,0,0,.14.707,2.153,2.153,0,0,0,.629.552.8.8,0,0,1,.109.057,6.84,6.84,0,0,0,.715.323c.277.092,1.169.457,1.4.572a2.008,2.008,0,0,1,.4.272.469.469,0,0,1,.2.309.82.82,0,0,1-.283.778,1.959,1.959,0,0,1-2.513-.049.958.958,0,0,1-.269-.535c-.04-.212-.063-.257-.168-.311a.266.266,0,0,0-.119-.04A.216.216,0,0,0,5,7.178Zm16.6-.106c-.109-.038-.234-.08-.28-.091-.072-.019-.421-.136-1-.336-.11-.038-.235-.08-.28-.091-.073-.019-.422-.136-1-.336-.11-.038-.235-.08-.28-.091s-.235-.075-.427-.139-.486-.166-.653-.221c-.4-.13-.416-.141-.371-.186a2.638,2.638,0,0,1,.318-.144c.154-.061.338-.144.413-.185.213-.117.229-.272.045-.442-.122-.115-.632-.5-.845-.648A10.684,10.684,0,0,0,15.4,3.2c-.088-.034-.184-.072-.213-.082a10.488,10.488,0,0,0-1.6-.424,4.137,4.137,0,0,0-.616-.083c-.133,0-.154-.016-.344-.293A7.252,7.252,0,0,0,11.055.72a8.049,8.049,0,0,0-.8-.488c-.139-.053-.05-.117.192-.144.1-.01.312-.034.466-.053a19.978,19.978,0,0,1,2.1-.014c.541.057,1.008.129,1.565.24a12.873,12.873,0,0,1,1.319.373l.346.125a2.151,2.151,0,0,1,.224.091A.62.62,0,0,0,16.59.9a13.573,13.573,0,0,1,1.49.741,14.354,14.354,0,0,1,1.8,1.3,1.126,1.126,0,0,0,.293.2c.13,0,.216-.09.322-.349.056-.139.122-.3.149-.357s.072-.165.1-.234.069-.126.085-.121c.035.011,1.786,5.244,1.77,5.292,0,0-.007.006-.018.006A6.775,6.775,0,0,1,21.6,7.071Z" transform="translate(0 0)" fill="#efaf1e"/>
</svg>
