<svg xmlns="http://www.w3.org/2000/svg" width="24.43" height="12.883" viewBox="0 0 24.43 12.883"><defs><style>.a{fill:#fff;}</style></defs><g transform="translate(0 0)"><g transform="translate(0 0)"><path class="a" d="M24.248,126.964c-.218-.243-5.463-5.964-12.033-5.964S.4,126.721.182,126.964a.716.716,0,0,0,0,.955c.218.243,5.463,5.964,12.033,5.964s11.815-5.721,12.033-5.964A.716.716,0,0,0,24.248,126.964Zm-12.033,5.488a5.01,5.01,0,1,1,5.01-5.01A5.016,5.016,0,0,1,12.215,132.452Z" transform="translate(0.001 -121)"/></g></g></svg>