<svg xmlns="http://www.w3.org/2000/svg" width="31.26" height="28.804" viewBox="0 0 31.26 28.804">
  <path id="Path_54222" data-name="Path 54222" d="M6.573,28.364.439,22.231a1.5,1.5,0,0,1,2.121-2.119l3.572,3.569V1.5a1.5,1.5,0,1,1,3,0V23.681L12.7,20.111a1.5,1.5,0,0,1,2.122,2.119L8.69,28.364a1.494,1.494,0,0,1-2.118,0ZM18.8,20.132a11.156,11.156,0,0,1-1.906-.825,12.217,12.217,0,0,1-1.212-.858,9.637,9.637,0,0,1-3.473-8.267,13.1,13.1,0,0,1,.278-1.615,10.53,10.53,0,0,1,.849-2.11,2.148,2.148,0,0,0,.131-.236,4.2,4.2,0,0,1,.244-.4A10.645,10.645,0,0,1,14.981,4.27,14.09,14.09,0,0,1,16.411,3.1a9.964,9.964,0,0,1,1.8-.94.122.122,0,0,0,.092-.045c.013-.028.071-.046.131-.046a.3.3,0,0,0,.144-.036,9.245,9.245,0,0,1,2.38-.521c.113-.014.54-.011.953,0A8.7,8.7,0,0,1,25.34,2.2c.2.077,1.143.549,1.271.635.076.05.2.123.271.165a11.373,11.373,0,0,1,2.474,2.288,9.822,9.822,0,0,1,1.707,3.721,8.916,8.916,0,0,1,.194,2,7.029,7.029,0,0,1-.108,1.61,9.457,9.457,0,0,1-2.56,5.075,9.863,9.863,0,0,1-2.025,1.607,11.5,11.5,0,0,1-2.474,1,8.128,8.128,0,0,1-2.332.281A8.464,8.464,0,0,1,18.8,20.132ZM18.6,12.9c-.182.155-.218.354-.123.745a2.861,2.861,0,0,0,1.957,1.942,3.527,3.527,0,0,0,.455.122c.4.063.372.023.394.463.023.49.114.68.346.722.353.067.5-.131.522-.687l.008-.4.478-.117a3.656,3.656,0,0,0,1.266-.54,2.162,2.162,0,0,0,.971-2.62,4.373,4.373,0,0,0-2.465-1.67c-2.6-.958-3.182-1.344-3.118-2.1a1.61,1.61,0,0,1,.989-1.274,2.429,2.429,0,0,1,.768-.269,3.212,3.212,0,0,1,2.565.555,1.555,1.555,0,0,1,.545.943c.09.412.209.572.43.572.319,0,.481-.233.436-.608a2.246,2.246,0,0,0-.767-1.417,3.182,3.182,0,0,0-1.734-.88L22.165,6.3l-.013-.4c-.014-.445-.065-.586-.25-.68a.292.292,0,0,0-.345,0c-.185.1-.246.245-.277.68l-.027.413-.34.077a3.182,3.182,0,0,0-.863.285A2.671,2.671,0,0,0,18.429,8.6a1.725,1.725,0,0,0,.223,1.121,3.429,3.429,0,0,0,1,.877,1.263,1.263,0,0,1,.173.09,10.866,10.866,0,0,0,1.135.513c.44.146,1.857.725,2.224.907a3.2,3.2,0,0,1,.64.432.744.744,0,0,1,.318.49,1.3,1.3,0,0,1-.449,1.235,3.11,3.11,0,0,1-3.99-.076,1.519,1.519,0,0,1-.427-.85c-.063-.336-.1-.409-.267-.494a.416.416,0,0,0-.188-.064A.346.346,0,0,0,18.6,12.9Z" fill="#efaf1e"/>
</svg>
