<svg xmlns="http://www.w3.org/2000/svg" width="18.11" height="19.353" viewBox="0 0 18.11 19.353">
  <path id="Path_54237" data-name="Path 54237" d="M15.22,10.6H1a1,1,0,0,1-1-1V1A1,1,0,0,1,1,0H15.22a1,1,0,0,1,1,1V9.6A1,1,0,0,1,15.22,10.6ZM9.344,3.445h0V7h.733V5.747h.642a1.494,1.494,0,0,0,.99-.3,1.023,1.023,0,0,0,.357-.824,1.163,1.163,0,0,0-.163-.614,1.087,1.087,0,0,0-.468-.417,1.616,1.616,0,0,0-.7-.147H9.344Zm-1.411,0h0V7h.733V3.445Zm-3.616,0h0L5.55,7h.764L7.552,3.445H6.737L5.931,6.119l-.8-2.674Zm6.414,1.709h-.654V4.038h.671a.58.58,0,0,1,.425.167.587.587,0,0,1,.154.422.5.5,0,0,1-.153.391A.643.643,0,0,1,10.731,5.154Z" transform="matrix(0.588, -0.809, 0.809, 0.588, 0, 13.122)" fill="#2f3157"/>
</svg>
