<svg xmlns="http://www.w3.org/2000/svg" width="20.071" height="20.638" viewBox="0 0 20.071 20.638">
  <g id="Group_57702" data-name="Group 57702" transform="translate(-5911.473 232.561)">
    <g id="exchange" transform="translate(5904.069 279.439)">
      <path id="Path_54222" data-name="Path 54222" d="M8.232-511.943a.935.935,0,0,0-.3,1.59c.186.161.295.19,1.937.517l1.368.274-.2.157c-.109.089-.436.4-.726.69A9.993,9.993,0,0,0,7.9-498.54a10.173,10.173,0,0,0,4.189,5.368,7.241,7.241,0,0,0,1.6.775.935.935,0,0,0,1-1.2c-.085-.287-.278-.46-.844-.747A8.087,8.087,0,0,1,11.67-495.9,8.166,8.166,0,0,1,9.4-500.255a10.1,10.1,0,0,1-.081-2.26,8.184,8.184,0,0,1,1.74-4.234,10.782,10.782,0,0,1,1.328-1.332c.061-.032.024.194-.242,1.542-.174.872-.315,1.679-.319,1.8a.887.887,0,0,0,.674.876.919.919,0,0,0,.791-.125c.307-.21.311-.222.9-3.2.295-1.505.541-2.8.541-2.87a.991.991,0,0,0-.492-.779C14.068-510.922,8.744-512,8.5-512A1.214,1.214,0,0,0,8.232-511.943Z" fill="#fff"/>
      <path id="Path_54223" data-name="Path 54223" d="M323.605-485.92a.988.988,0,0,0-.605.843c0,.468.194.7.892,1.057a8.151,8.151,0,0,1,3.967,4.258,8.339,8.339,0,0,1,.343,5.069,8.094,8.094,0,0,1-1.929,3.54,8.256,8.256,0,0,1-.936.872c-.052.028,0-.278.254-1.546.174-.868.315-1.675.315-1.8a.908.908,0,0,0-.8-.916.964.964,0,0,0-.993.589c-.121.327-1.126,5.529-1.106,5.719a.989.989,0,0,0,.436.666,16.859,16.859,0,0,0,2.954.662c3.051.605,2.979.6,3.326.363a.93.93,0,0,0-.283-1.659c-.113-.032-.823-.182-1.578-.331l-1.364-.27.173-.145a13.026,13.026,0,0,0,1.336-1.336,10.089,10.089,0,0,0,2.3-7.059,9.9,9.9,0,0,0-3.043-6.567,9.465,9.465,0,0,0-2.518-1.784C324.15-485.984,323.88-486.041,323.605-485.92Z" transform="translate(-302.858 -24.971)" fill="#fff"/>
    </g>
    <path id="Path_54205" data-name="Path 54205" d="M3.357,3.664H1.725a2.649,2.649,0,0,0,.028.354,1.949,1.949,0,0,0,.072.312,1.516,1.516,0,0,0,.117.271A1.3,1.3,0,0,0,2.1,4.83a1.15,1.15,0,0,0,.2.182,1.18,1.18,0,0,0,.243.13,1.415,1.415,0,0,0,.282.078,1.891,1.891,0,0,0,.321.026q.13,0,.255-.008t.245-.025q.12-.017.235-.042t.225-.058l.1.63q-.135.03-.27.052t-.269.037q-.134.015-.269.022t-.268.007a3.545,3.545,0,0,1-.517-.036,2.682,2.682,0,0,1-.459-.108,2.183,2.183,0,0,1-.4-.18,1.989,1.989,0,0,1-.345-.252,1.856,1.856,0,0,1-.278-.317,1.921,1.921,0,0,1-.2-.376,2.289,2.289,0,0,1-.125-.435,3.011,3.011,0,0,1-.049-.494H0V3.178H.765V2.641H0v-.49H.765a2.937,2.937,0,0,1,.057-.476,2.29,2.29,0,0,1,.13-.422,1.967,1.967,0,0,1,.2-.367A1.943,1.943,0,0,1,1.769.323a2.143,2.143,0,0,1,.4-.179A2.651,2.651,0,0,1,2.622.036,3.525,3.525,0,0,1,3.136,0q.119,0,.247.007T3.645.03q.135.015.278.038t.294.053l-.1.632Q3.991.718,3.871.692T3.629.65Q3.509.633,3.388.624T3.147.616a1.848,1.848,0,0,0-.3.024A1.444,1.444,0,0,0,2.576.71a1.244,1.244,0,0,0-.237.118,1.221,1.221,0,0,0-.2.165,1.133,1.133,0,0,0-.167.214,1.409,1.409,0,0,0-.124.264,1.942,1.942,0,0,0-.081.315,2.8,2.8,0,0,0-.037.365H3.357v.49H1.725v.537H3.357Z" transform="translate(5919.4 -224.886)" fill="#faa300" opacity="0.91"/>
  </g>
</svg>
