<svg xmlns="http://www.w3.org/2000/svg" width="19.208" height="19.208" viewBox="0 0 19.208 19.208"><defs><style>.a{fill:#292929;}</style></defs><g transform="translate(0)"><path class="a" d="M19.159,16.459a.75.75,0,0,0-1.469.306.784.784,0,0,1-.159.657.762.762,0,0,1-.6.285H2.277a.762.762,0,0,1-.6-.285.784.784,0,0,1-.159-.657A8.29,8.29,0,0,1,9.405,10.2q.1,0,.2,0t.2,0a8.254,8.254,0,0,1,6.666,3.664.75.75,0,1,0,1.246-.836,9.76,9.76,0,0,0-5.057-3.842,5.1,5.1,0,1,0-6.107,0,9.759,9.759,0,0,0-6.5,7.271,2.279,2.279,0,0,0,2.228,2.749H16.931a2.28,2.28,0,0,0,2.228-2.749ZM6,5.1A3.6,3.6,0,1,1,9.787,8.7L9.6,8.7l-.182,0A3.606,3.606,0,0,1,6,5.1Z" transform="translate(0)"/></g></svg>