<svg xmlns="http://www.w3.org/2000/svg" width="18.318" height="17.001" viewBox="0 0 18.318 17.001"><defs><style>.a{fill:none;stroke:#46cfd1;stroke-linecap:round;stroke-linejoin:round;stroke-miterlimit:10;stroke-width:1.2px;}</style></defs><g transform="translate(0.6 0.6)"><path class="a" d="M10.534,13.167H1.317A1.317,1.317,0,0,1,0,11.851V0H11.851V11.851A1.317,1.317,0,0,1,10.534,13.167Z" transform="translate(2.633 2.633)"/><path class="a" d="M.4,5.267V0" transform="translate(6.184 6.584)"/><path class="a" d="M.4,5.267V0" transform="translate(10.134 6.584)"/><path class="a" d="M0,.4H17.118" transform="translate(0 2.233)"/><path class="a" d="M5.267,0H1.317A1.317,1.317,0,0,0,0,1.317V2.633H6.584V1.317A1.317,1.317,0,0,0,5.267,0Z" transform="translate(5.267)"/></g></svg>