<svg xmlns="http://www.w3.org/2000/svg" width="18.112" height="19.356" viewBox="0 0 18.112 19.356"><defs><style>.a{fill:#fff;}</style></defs><path class="a" d="M15.141,82H5.2a.269.269,0,0,0-.27.268V83.1a.275.275,0,0,1-.252.277.27.27,0,0,1-.288-.268v-.836A.269.269,0,0,0,4.123,82H1.082A1.078,1.078,0,0,0,0,83.074v1.478a1.063,1.063,0,0,0,.564.943,2.041,2.041,0,0,1,0,3.612A1.063,1.063,0,0,0,0,90.05v1.478A1.078,1.078,0,0,0,1.082,92.6H4.123a.269.269,0,0,0,.27-.268v-.827a.275.275,0,0,1,.252-.277.27.27,0,0,1,.288.268v.837a.269.269,0,0,0,.27.268h9.937a1.078,1.078,0,0,0,1.082-1.074V83.074A1.078,1.078,0,0,0,15.141,82ZM4.934,89.468a.27.27,0,0,1-.541,0V88.418a.27.27,0,0,1,.541,0Zm0-3.285a.27.27,0,0,1-.541,0V85.133a.27.27,0,0,1,.541,0Zm3.076-.2a.535.535,0,1,1,.535.531A.534.534,0,0,1,8.01,85.987Zm.256,2.905a.267.267,0,0,1,0-.38l2.647-2.628a.272.272,0,0,1,.382,0,.267.267,0,0,1,0,.38L8.648,88.892A.272.272,0,0,1,8.266,88.892Zm2.927.254a.531.531,0,1,1,.535-.531A.534.534,0,0,1,11.193,89.146Z" transform="matrix(0.588, -0.809, 0.809, 0.588, -66.339, -35.074)"/></svg>