<svg xmlns="http://www.w3.org/2000/svg" width="45" height="45" viewBox="0 0 45 45">
  <g id="Group_693" data-name="Group 693" transform="translate(-3119 1487)">
    <path id="Path_83298" data-name="Path 83298" d="M22.5,0A22.5,22.5,0,1,1,0,22.5,22.5,22.5,0,0,1,22.5,0Z" transform="translate(3119 -1487)" fill="#3dd980"/>
    <path id="Icon_feather-check" data-name="Icon feather-check" d="M9.623,17.97a1,1,0,0,1-.707-.293L5.293,14.055A1,1,0,0,1,6.707,12.64l2.916,2.916,7.263-7.263A1,1,0,0,1,18.3,9.707l-7.97,7.97A1,1,0,0,1,9.623,17.97Z" transform="translate(3129.5 -1477.5)" fill="#fff"/>
  </g>
</svg>
