<svg xmlns="http://www.w3.org/2000/svg" xmlns:xlink="http://www.w3.org/1999/xlink" width="20" height="20" viewBox="0 0 20 20"><defs><style>.a{fill:#fff;}.b{clip-path:url(#a);}.c{fill:#90929f;}</style><clipPath id="a"><rect class="a" width="20" height="20" transform="translate(0)"/></clipPath></defs><g class="b"><path class="c" d="M18.9,12.172l-1.567.2a7.875,7.875,0,0,1-.474,1.145l.968,1.246a1.239,1.239,0,0,1-.1,1.649l-1.313,1.313a1.242,1.242,0,0,1-1.654.106l-1.244-.968a7.847,7.847,0,0,1-1.146.474l-.2,1.564A1.248,1.248,0,0,1,10.934,20H9.067a1.248,1.248,0,0,1-1.238-1.1l-.2-1.567a7.756,7.756,0,0,1-1.146-.474l-1.245.968a1.24,1.24,0,0,1-1.649-.1L2.277,16.417a1.242,1.242,0,0,1-.106-1.655l.968-1.245a7.784,7.784,0,0,1-.474-1.145l-1.564-.2A1.248,1.248,0,0,1,0,10.934V9.067A1.248,1.248,0,0,1,1.1,7.829l1.567-.2a7.875,7.875,0,0,1,.474-1.145L2.171,5.239a1.239,1.239,0,0,1,.1-1.649L3.585,2.277a1.243,1.243,0,0,1,1.654-.105l1.245.968a7.694,7.694,0,0,1,1.145-.474l.2-1.563A1.248,1.248,0,0,1,9.067,0h1.867a1.248,1.248,0,0,1,1.238,1.1l.2,1.567a7.876,7.876,0,0,1,1.145.474l1.246-.968a1.239,1.239,0,0,1,1.649.1l1.313,1.313a1.241,1.241,0,0,1,.106,1.654l-.968,1.245a7.694,7.694,0,0,1,.474,1.145l1.563.2A1.248,1.248,0,0,1,20,9.067v1.867a1.247,1.247,0,0,1-1.1,1.238ZM10,5.834A4.167,4.167,0,1,0,14.167,10,4.172,4.172,0,0,0,10,5.834Z" transform="translate(0 -0.001)"/></g></svg>