<svg xmlns="http://www.w3.org/2000/svg" xmlns:xlink="http://www.w3.org/1999/xlink" width="19.98" height="19.98" viewBox="0 0 19.98 19.98"><defs><style>.a{fill:#710c0c;}.b{clip-path:url(#a);}.c{fill:#90929f;}</style><clipPath id="a"><rect class="a" width="19.98" height="19.98" transform="translate(0 0)"/></clipPath></defs><g class="b" transform="translate(0 0)"><g transform="translate(2 0)"><path class="c" d="M67.882,3.775A27.185,27.185,0,0,0,64.2.133a.625.625,0,0,0-1.009.492V3.37a1.38,1.38,0,0,1-2.579.684.625.625,0,0,0-1.025-.086c-1.889,2.306-3.575,5.213-3.575,8.207a7.8,7.8,0,1,0,15.609,0c0-3.071-1.773-6.053-3.736-8.4Zm-7.5,6.215a1.249,1.249,0,1,1,1.249,1.249A1.25,1.25,0,0,1,60.379,9.99Zm1.742,5.378a.624.624,0,1,1-.986-.766l4.37-5.619a.624.624,0,1,1,.986.766ZM66,15.609a1.249,1.249,0,1,1,1.249-1.249A1.25,1.25,0,0,1,66,15.609Z" transform="translate(-56.009 0)"/></g></g></svg>