<svg xmlns="http://www.w3.org/2000/svg" width="20" height="20" viewBox="0 0 20 20">
  <g id="Group_57684" data-name="Group 57684" transform="translate(-5266.618 -7670.617)">
    <g id="Path_54206" data-name="Path 54206" transform="translate(5266.618 7670.617)" fill="none">
      <path d="M10,0A10,10,0,1,1,0,10,10,10,0,0,1,10,0Z" stroke="none"/>
      <path d="M 10 1.5 C 5.313079833984375 1.5 1.5 5.313079833984375 1.5 10 C 1.5 14.68692016601562 5.313079833984375 18.5 10 18.5 C 14.68692016601562 18.5 18.5 14.68692016601562 18.5 10 C 18.5 5.313079833984375 14.68692016601562 1.5 10 1.5 M 10 0 C 15.52285003662109 0 20 4.477149963378906 20 10 C 20 15.52285003662109 15.52285003662109 20 10 20 C 4.477149963378906 20 0 15.52285003662109 0 10 C 0 4.477149963378906 4.477149963378906 0 10 0 Z" stroke="none" fill="#fff"/>
    </g>
    <circle id="Ellipse_1525" data-name="Ellipse 1525" cx="4" cy="4" r="4" transform="translate(5272.618 7676.617)" fill="#00ff96"/>
  </g>
</svg>
