<svg xmlns="http://www.w3.org/2000/svg" xmlns:xlink="http://www.w3.org/1999/xlink" width="336" height="296" viewBox="0 0 336 296">
  <defs>
    <clipPath id="clip-path">
      <rect id="Rectangle_18947" data-name="Rectangle 18947" width="336" height="296" transform="translate(14278 1619)" fill="#fff"/>
    </clipPath>
    <linearGradient id="linear-gradient" x1="0.057" y1="0.026" x2="1.011" y2="1.014" gradientUnits="objectBoundingBox">
      <stop offset="0" stop-color="#24bb7d"/>
      <stop offset="1" stop-color="#43bed8"/>
    </linearGradient>
    <linearGradient id="linear-gradient-2" x1="0.706" y1="-0.177" x2="-0.165" y2="0.844" gradientUnits="objectBoundingBox">
      <stop offset="0" stop-color="#51ded8"/>
      <stop offset="1" stop-color="#34d597"/>
    </linearGradient>
    <linearGradient id="linear-gradient-3" x1="0.5" x2="0.5" y2="1" gradientUnits="objectBoundingBox">
      <stop offset="0" stop-color="#34d597"/>
      <stop offset="1" stop-color="#00e9ff"/>
    </linearGradient>
  </defs>
  <g id="Mask_Group_153" data-name="Mask Group 153" transform="translate(-14278 -1619)" clip-path="url(#clip-path)">
    <g id="Sub_1" data-name="Sub 1" transform="translate(14088 1097)">
      <g id="BACKGROUND">
        <path id="Sub1_Background" data-name="Sub1 Background" d="M20,0H316a20,20,0,0,1,20,20V276a20,20,0,0,1-20,20H20A20,20,0,0,1,0,276V20A20,20,0,0,1,20,0Z" transform="translate(190 522)" fill="url(#linear-gradient)"/>
        <path id="Path_53746" data-name="Path 53746" d="M86.742,0a93.063,93.063,0,0,1,40.183,9.071c.324.152,2.154,1.268,2.154,1.268l.113,106.616a30.635,30.635,0,0,1-.363,7.525,21.472,21.472,0,0,1-4.911,10.392,18.655,18.655,0,0,1-7.068,4.822,29.636,29.636,0,0,1-10.471,1.524l-75.219-.094s-1.093-.845-1.881-1.478C11.524,125.39,0,103.85,0,79.833,0,35.742,38.836,0,86.742,0Z" transform="translate(396.331 676.762)" fill="url(#linear-gradient-2)"/>
        <path id="Path_53747" data-name="Path 53747" d="M195.05,203.4s-.685.766-1.437,1.434C173.143,223.01,146.853,233.451,117,233.451c-64.617,0-117-52.249-117-116.7C0,77.009,19.916,41.907,50.776,20.535c.275-.191,1.217-.828,1.217-.828s66.647-.316,98.746-.11,32.448-1.877,41.676,9.113c4.762,6.918,2.636,20.623,2.636,38.657Z" transform="translate(330.5 502.473)" opacity="0.48" fill="url(#linear-gradient-3)"/>
      </g>
      <g id="Subscription_1_" data-name="Subscription 1 ">
        <text id="_60_000" data-name="60,000" transform="translate(225 625)" fill="#fff" font-size="33" font-family="Raleway-Medium, Raleway" font-weight="500"><tspan x="0" y="0">60,000</tspan></text>
        <path id="Path_2" data-name="Path 2" d="M2.243-6.231V1.134H1.02V-8.514h.951L7.95-1V-8.5H9.173V1.134H8.14Zm9.24,7.365V-8.514h3.343a5.064,5.064,0,0,1,2.031.38A4.144,4.144,0,0,1,18.318-7.1a4.3,4.3,0,0,1,.876,1.529A5.871,5.871,0,0,1,19.487-3.7a5.753,5.753,0,0,1-.326,1.991,4.268,4.268,0,0,1-.938,1.522,4.2,4.2,0,0,1-1.474.978,5.118,5.118,0,0,1-1.923.347ZM18.25-3.7a4.811,4.811,0,0,0-.224-1.5A3.221,3.221,0,0,0,17.36-6.38a3.108,3.108,0,0,0-1.08-.768,3.6,3.6,0,0,0-1.454-.279h-2.12V.047h2.12A3.613,3.613,0,0,0,16.3-.238a2.955,2.955,0,0,0,1.073-.788,3.476,3.476,0,0,0,.652-1.189A4.765,4.765,0,0,0,18.25-3.7Zm2.337-.054a5.157,5.157,0,0,1,.306-1.733,4.817,4.817,0,0,1,.9-1.549,4.515,4.515,0,0,1,1.447-1.107,4.344,4.344,0,0,1,1.943-.421,4.058,4.058,0,0,1,2.215.584,3.633,3.633,0,0,1,1.372,1.522l-.965.625a2.8,2.8,0,0,0-.523-.775,2.686,2.686,0,0,0-.666-.5,2.866,2.866,0,0,0-.741-.272,3.56,3.56,0,0,0-.747-.082,2.948,2.948,0,0,0-1.42.333,3.283,3.283,0,0,0-1.04.87,3.76,3.76,0,0,0-.632,1.209A4.5,4.5,0,0,0,21.824-3.7a4.174,4.174,0,0,0,.251,1.447,3.988,3.988,0,0,0,.7,1.216,3.408,3.408,0,0,0,1.06.842,2.883,2.883,0,0,0,1.332.313,3.379,3.379,0,0,0,.781-.1,2.863,2.863,0,0,0,.768-.306,3.279,3.279,0,0,0,.686-.53,2.586,2.586,0,0,0,.523-.768l1.019.557a3,3,0,0,1-.645.958,4.083,4.083,0,0,1-.938.7,4.774,4.774,0,0,1-1.107.435,4.6,4.6,0,0,1-1.141.149A3.859,3.859,0,0,1,23.291.781,4.861,4.861,0,0,1,21.858-.354a5.191,5.191,0,0,1-.938-1.59A5.14,5.14,0,0,1,20.587-3.758Zm16.85-3.669H34.108V1.134H32.885V-7.427H29.556V-8.514h7.881Z" transform="translate(313.772 645.784)" fill="#fff"/>
        <text id="BUSSINESS" transform="translate(225 577)" fill="#fff" font-size="14" font-family="Raleway-Bold, Raleway" font-weight="700"><tspan x="0" y="0">BUSSINESS</tspan></text>
        <text id="Best_choose_for_individuals" data-name="Best choose for individuals" transform="translate(228 683)" fill="#fff" font-size="16" font-family="Raleway-Bold, Raleway" font-weight="700"><tspan x="0" y="0">Best choose for individuals</tspan></text>
        <g id="Group_57624" data-name="Group 57624" transform="translate(246.838 708.112)">
          <g id="Group_57621" data-name="Group 57621" transform="translate(0 2.235)">
            <line id="Line_1" data-name="Line 1" x2="3.576" y2="2.926" transform="translate(0 6.418)" fill="none" stroke="#ccfff7" stroke-linecap="round" stroke-width="1.5"/>
            <line id="Line_2" data-name="Line 2" x1="7.821" y2="9.344" transform="translate(3.576 0)" fill="none" stroke="#ccfff7" stroke-linecap="round" stroke-width="1.5"/>
          </g>
          <g id="Group_57622" data-name="Group 57622" transform="translate(0 29.866)">
            <line id="Line_1-2" data-name="Line 1" x2="3.576" y2="2.926" transform="translate(0 6.418)" fill="none" stroke="#ccfff7" stroke-linecap="round" stroke-width="1.5"/>
            <line id="Line_2-2" data-name="Line 2" x1="7.821" y2="9.344" transform="translate(3.576)" fill="none" stroke="#ccfff7" stroke-linecap="round" stroke-width="1.5"/>
          </g>
          <text id="_3000_" data-name="3000 €" transform="translate(27.162 10.852)" fill="#fff" font-size="13" font-family="Raleway-Medium, Raleway" font-weight="500"><tspan x="0" y="0">3000 €</tspan></text>
          <text id="Mint_60_000_NFT" data-name="Mint 60,000 NFT" transform="translate(27.162 38.852)" fill="#fff" font-size="13" font-family="Raleway-Medium, Raleway" font-weight="500"><tspan x="0" y="0">Mint 60,000 NFT</tspan></text>
          <g id="Group_57623" data-name="Group 57623" transform="translate(0 59.843)">
            <line id="Line_1-3" data-name="Line 1" x2="3.576" y2="2.926" transform="translate(0 6.418)" fill="none" stroke="#ccfff7" stroke-linecap="round" stroke-width="1.5"/>
            <line id="Line_2-3" data-name="Line 2" x1="7.821" y2="9.344" transform="translate(3.576 0)" fill="none" stroke="#ccfff7" stroke-linecap="round" stroke-width="1.5"/>
          </g>
          <text id="Full_NDCT_Token_ownership" data-name="Full NDCT Token ownership" transform="translate(27.123 68.223)" fill="#fff" font-size="13" font-family="Raleway-Medium, Raleway" font-weight="500"><tspan x="0" y="0">Full NDCT Token ownership</tspan></text>
        </g>
        <rect id="Rectangle_18918" data-name="Rectangle 18918" width="8" height="2" rx="1" transform="translate(227 586)" fill="#7e7100"/>
        <rect id="Rectangle_18920" data-name="Rectangle 18920" width="3" height="2" rx="1" transform="translate(237 586)" fill="#7e7100"/>
      </g>
    </g>
  </g>
</svg>
