<svg xmlns="http://www.w3.org/2000/svg" width="53.357" height="27.281" viewBox="0 0 53.357 27.281">
  <path id="path0" d="M73.914,123.9c-.019.049-.146.09-.283.09a.452.452,0,0,0-.293.072.368.368,0,0,1-.255.072c-.116,0-.211.032-.211.072s-.065.072-.144.072a.708.708,0,0,0-.269.063l-.447.226-.483.242c-.088.043-.161.1-.161.133s-.035.054-.077.054a8.717,8.717,0,0,0-2.279,2.1c-.232.342-.321.4-.4.269a7.6,7.6,0,0,0-1.545-.072,6.445,6.445,0,0,0-1.5.072c0,.039-.127.072-.282.072a.535.535,0,0,0-.327.072.368.368,0,0,1-.255.072c-.116,0-.211.032-.211.072s-.081.072-.179.072-.179.032-.179.072-.045.072-.1.072a8.267,8.267,0,0,0-2.695,1.867c-.1.1-2.034,2.052-4.3,4.336s-4.235,4.3-4.371,4.473-.305.384-.374.462a.486.486,0,0,0-.125.229.129.129,0,0,1-.054.112,4.267,4.267,0,0,0-.52,1.037c0,.054-.032.1-.072.1s-.072.079-.072.175a.3.3,0,0,1-.072.219.447.447,0,0,0-.072.291c0,.136-.032.247-.072.247s-.072.16-.072.355a.644.644,0,0,1-.09.412,7.338,7.338,0,0,0-.018,2.219c.039-.007.081.173.093.4s.052.412.09.412.068.113.068.251.032.251.072.251.072.079.072.175a.3.3,0,0,0,.072.219.3.3,0,0,1,.072.219c0,.1.032.175.072.175s.072.065.072.143.032.143.072.143.072.064.072.143.032.143.072.143a.075.075,0,0,1,.072.077,2.858,2.858,0,0,0,.515.771.126.126,0,0,1,.058.112,9.012,9.012,0,0,0,1.477,1.477.126.126,0,0,1,.112.058,2.857,2.857,0,0,0,.771.515.075.075,0,0,1,.077.072c0,.039.064.072.143.072s.143.032.143.072.064.072.143.072.143.032.143.072.063.072.139.072a.239.239,0,0,1,.183.072.3.3,0,0,0,.219.072c.1,0,.175.032.175.072s.095.072.211.072a.368.368,0,0,1,.255.072.524.524,0,0,0,.322.072.524.524,0,0,1,.322.072,6.342,6.342,0,0,0,1.4.072,6.342,6.342,0,0,0,1.4-.072.524.524,0,0,1,.322-.072.524.524,0,0,0,.322-.072.24.24,0,0,1,.184-.072.7.7,0,0,0,.264-.063c.068-.035.205-.1.3-.134,1.259-.5,1.905-.994,4.015-3.077a14.077,14.077,0,0,1,1.431-1.311,17.015,17.015,0,0,1,1.574,1.454,18.319,18.319,0,0,0,2.319,2.122.964.964,0,0,1,.22.161.482.482,0,0,0,.236.132.085.085,0,0,1,.094.072c0,.039.064.072.143.072s.143.032.143.072.064.072.143.072.143.032.143.072.063.072.139.072a.239.239,0,0,1,.183.072.3.3,0,0,0,.219.072c.1,0,.175.032.175.072s.1.072.215.072.215.032.215.072.123.072.272.072a.646.646,0,0,1,.351.079,14.427,14.427,0,0,0,3.054,0,.96.96,0,0,1,.453-.078.763.763,0,0,0,.425-.08c.033-.053.252-.069.647-.049.468.025.605.01.636-.07s.165-.1.58-.078c.395.016.557,0,.6-.073s.2-.089.6-.069.554,0,.58-.063.218-.091.642-.091a1.509,1.509,0,0,0,.655-.078c.03-.048.251-.069.576-.056.348.014.558-.008.615-.066a1.379,1.379,0,0,1,.642-.088,1.339,1.339,0,0,0,.6-.078c.029-.048.249-.069.569-.056a1.37,1.37,0,0,0,.62-.06.8.8,0,0,1,.349-.105l.25-.024.036-1.033a3.3,3.3,0,0,1,.113-1.059,8.1,8.1,0,0,0,.046-1.869,8.952,8.952,0,0,1,.06-2.058,8.041,8.041,0,0,0,.072-1.875c-.018-1.6.017-2.142.134-2.069a14.469,14.469,0,0,0,.022-1.809,8.755,8.755,0,0,1,.058-2.058,9.074,9.074,0,0,0,.071-2.048c-.017-1.576,0-1.848.091-1.943s.1-.27.068-1.159a5.346,5.346,0,0,1,.009-1.049.5.5,0,0,1,.257.248,7.3,7.3,0,0,0,.43.683,7.629,7.629,0,0,1,.43.681.664.664,0,0,0,.143.2.521.521,0,0,1,.143.248.085.085,0,0,0,.072.094.085.085,0,0,1,.072.094.521.521,0,0,0,.143.248.656.656,0,0,1,.143.2,3.525,3.525,0,0,0,.287.465,2.391,2.391,0,0,1,.287.5.074.074,0,0,0,.072.076c.039,0,.072.048.072.108s.032.107.072.107.072.048.072.107.032.108.072.108a.085.085,0,0,1,.072.094.475.475,0,0,0,.125.233,1.916,1.916,0,0,1,.227.336c.056.108.128.2.161.2a.069.069,0,0,1,.059.076,2.392,2.392,0,0,0,.287.5,3.52,3.52,0,0,1,.287.465.657.657,0,0,0,.143.2.521.521,0,0,1,.143.248.085.085,0,0,0,.072.094.085.085,0,0,1,.072.094.475.475,0,0,0,.125.233,1.916,1.916,0,0,1,.227.336c.056.108.128.2.161.2a.068.068,0,0,1,.059.074,6.131,6.131,0,0,0,.485.806c.267.4.53.821.585.929s.127.2.16.2.059.042.059.094a.522.522,0,0,0,.143.248.664.664,0,0,1,.143.2,7.619,7.619,0,0,0,.43.681,4.814,4.814,0,0,1,.43.714.073.073,0,0,0,.072.074.085.085,0,0,1,.072.094.475.475,0,0,0,.125.233,1.915,1.915,0,0,1,.227.336c.056.108.128.2.161.2a.069.069,0,0,1,.059.076,2.392,2.392,0,0,0,.287.5,2.392,2.392,0,0,1,.287.5.074.074,0,0,0,.072.076c.039,0,.072.048.072.107s.032.107.072.107.072.048.072.107.032.107.072.107a.085.085,0,0,1,.072.094.475.475,0,0,0,.125.233,1.917,1.917,0,0,1,.227.336c.056.108.128.2.161.2a.069.069,0,0,1,.059.076,2.392,2.392,0,0,0,.287.5,2.391,2.391,0,0,1,.287.5.074.074,0,0,0,.072.076.085.085,0,0,1,.072.094.475.475,0,0,0,.125.233,1.915,1.915,0,0,1,.227.336c.056.108.128.2.161.2a.068.068,0,0,1,.059.074,4.813,4.813,0,0,0,.43.714,4.815,4.815,0,0,1,.43.714.073.073,0,0,0,.072.074.085.085,0,0,1,.072.094.475.475,0,0,0,.125.233,1.915,1.915,0,0,1,.227.336c.056.108.128.2.161.2a.067.067,0,0,1,.059.073,1.912,1.912,0,0,0,.233.43l.233.357,1.756-.018,1.756-.018.018-12.523.018-12.523h-2.864l-.019,10.122c-.015,8.013,0,10.146.07,10.235.119.151.123,1.021,0,.981a2.061,2.061,0,0,1-.463-.718c-.023-.069-.07-.125-.1-.125s-.063-.042-.063-.094a.475.475,0,0,0-.125-.233,1.916,1.916,0,0,1-.227-.336c-.056-.108-.128-.2-.161-.2s-.059-.042-.059-.094a.475.475,0,0,0-.125-.233,1.916,1.916,0,0,1-.227-.336c-.056-.108-.128-.2-.161-.2s-.059-.042-.059-.094a.475.475,0,0,0-.125-.233,1.915,1.915,0,0,1-.227-.336c-.056-.108-.128-.2-.161-.2s-.059-.042-.059-.094a.521.521,0,0,0-.143-.248.538.538,0,0,1-.143-.228.074.074,0,0,0-.072-.075c-.039,0-.072-.046-.072-.1a.141.141,0,0,0-.061-.125c-.033-.013-.587-.814-1.229-1.78s-1.2-1.766-1.229-1.779a.125.125,0,0,1-.061-.112.492.492,0,0,0-.125-.231,4.374,4.374,0,0,1-.445-.637c-.076-.118-.168-.249-.2-.291s-.527-.767-1.09-1.612-1.044-1.553-1.067-1.572a1.229,1.229,0,0,1-.144-.233c-.056-.108-.128-.2-.161-.2s-.059-.042-.059-.094a.475.475,0,0,0-.125-.233,1.917,1.917,0,0,1-.227-.336c-.056-.108-.128-.2-.161-.2s-.059-.042-.059-.094a.475.475,0,0,0-.125-.233,1.916,1.916,0,0,1-.227-.336c-.056-.108-.128-.2-.161-.2s-.059-.044-.059-.1a.3.3,0,0,0-.109-.189,1.2,1.2,0,0,1-.223-.331c-.063-.133-.143-.241-.178-.241a.07.07,0,0,1-.063-.075.487.487,0,0,0-.132-.216,1.8,1.8,0,0,1-.233-.338,1.229,1.229,0,0,0-.144-.232c-.023-.02-.375-.536-.782-1.147s-.758-1.127-.782-1.147a1.24,1.24,0,0,1-.144-.233c-.056-.108-.128-.2-.161-.2s-.059-.042-.059-.094a.475.475,0,0,0-.125-.233,1.917,1.917,0,0,1-.227-.336c-.056-.108-.128-.2-.161-.2s-.059-.04-.059-.09a.759.759,0,0,0-.488-.484.254.254,0,0,1-.193-.072.291.291,0,0,0-.215-.072.291.291,0,0,1-.215-.072.368.368,0,0,0-.255-.072c-.116,0-.211-.032-.211-.072s-.113-.072-.251-.072-.251-.032-.251-.072-.113-.072-.251-.072-.251-.032-.251-.072-.129-.072-.287-.072-.287-.032-.287-.072-.129-.072-.287-.072-.287-.032-.287-.072-.127-.072-.282-.072a.535.535,0,0,1-.327-.072.632.632,0,0,0-.363-.072c-.175,0-.318-.032-.318-.072s-.159-.072-.354-.072a.737.737,0,0,1-.4-.072.838.838,0,0,0-.43-.072.838.838,0,0,1-.43-.072,1.194,1.194,0,0,0-.527-.072,1.331,1.331,0,0,1-.565-.082,1.729,1.729,0,0,0-.736-.067,1.8,1.8,0,0,1-.757-.07,33.386,33.386,0,0,0-5.008-.014m1.957.9c.054.066.207.085.5.064.265-.019.441,0,.472.049a.435.435,0,0,0,.3.08c.136,0,.247.032.247.072s.065.072.144.072a.7.7,0,0,1,.269.064c.068.035.35.172.626.3a3.92,3.92,0,0,1,.64.366.474.474,0,0,0,.233.126c.052,0,.1.024.1.054a2.183,2.183,0,0,0,.415.373,4.939,4.939,0,0,1,.732.732,2.182,2.182,0,0,0,.373.415c.03,0,.054.045.054.1a.475.475,0,0,0,.125.233,4.659,4.659,0,0,1,.591,1.152c0,.054.032.1.072.1s.072.1.072.215.032.215.072.215.072.111.072.247a.434.434,0,0,0,.081.3c.052.032.068.194.044.452-.026.289-.008.428.063.5.134.125.114,12.959-.02,12.934-.058-.011-.071.108-.045.4.025.271.009.435-.043.468a.353.353,0,0,0-.081.256.359.359,0,0,1-.072.251.24.24,0,0,0-.072.184.675.675,0,0,1-.065.264c-.036.068-.149.3-.251.519a5.077,5.077,0,0,1-.475.86,3.5,3.5,0,0,0-.214.287,7.917,7.917,0,0,1-1.288,1.289,3.427,3.427,0,0,0-.287.213,5.078,5.078,0,0,1-.86.475c-.217.1-.45.215-.519.251a.675.675,0,0,1-.264.065.24.24,0,0,0-.184.072.359.359,0,0,1-.251.072.353.353,0,0,0-.256.081c-.032.052-.194.068-.452.044-.288-.026-.428-.008-.495.063-.131.14-1.151.139-1.2,0-.029-.076-.138-.091-.454-.062-.269.024-.433.009-.465-.043a.434.434,0,0,0-.3-.081c-.136,0-.247-.032-.247-.072s-.065-.072-.144-.072a.7.7,0,0,1-.269-.064c-.068-.035-.334-.165-.59-.288-.787-.379-1.4-.9-3.325-2.818-1.021-1.018-1.882-1.841-1.914-1.83s-.826.778-1.763,1.7-1.882,1.829-2.1,2.007a3.549,3.549,0,0,0-.418.376.129.129,0,0,1-.112.054.475.475,0,0,0-.227.125,4.66,4.66,0,0,1-1.152.591c-.054,0-.1.032-.1.072s-.1.072-.215.072-.215.032-.215.072-.111.072-.247.072a.434.434,0,0,0-.3.081c-.033.053-.2.067-.481.042-.318-.029-.458-.013-.533.063a.774.774,0,0,1-.756,0c-.075-.075-.214-.091-.533-.063-.282.026-.448.011-.481-.042a.424.424,0,0,0-.292-.081.437.437,0,0,1-.287-.072.24.24,0,0,0-.184-.072.675.675,0,0,1-.264-.065c-.068-.036-.3-.149-.519-.251a4.173,4.173,0,0,1-.96-.561.507.507,0,0,0-.208-.125,10.1,10.1,0,0,1-1.412-1.4.5.5,0,0,0-.126-.219,2.325,2.325,0,0,1-.222-.31c-.3-.523-.369-.664-.369-.759,0-.058-.032-.105-.072-.105s-.072-.081-.072-.179-.032-.179-.072-.179-.072-.095-.072-.211a.368.368,0,0,0-.072-.255.631.631,0,0,1-.072-.363c0-.175-.032-.318-.072-.318a10.388,10.388,0,0,1,0-2.436c.039,0,.072-.127.072-.282a.535.535,0,0,1,.072-.327.368.368,0,0,0,.072-.255c0-.116.032-.211.072-.211s.072-.081.072-.179.032-.179.072-.179.072-.064.072-.143.032-.143.072-.143.072-.064.072-.143.032-.143.072-.143a.075.075,0,0,0,.072-.077,4.367,4.367,0,0,1,.7-1.034c.468-.537,8.8-8.885,9.12-9.134a2.191,2.191,0,0,0,.34-.3.144.144,0,0,1,.125-.056c.056,0,.1-.032.1-.072s.048-.072.107-.072.107-.026.107-.058.113-.1.251-.157.251-.125.251-.157.065-.058.143-.058.143-.032.143-.072.081-.072.179-.072.179-.032.179-.072.079-.072.175-.072a.3.3,0,0,0,.219-.072.359.359,0,0,1,.251-.072.356.356,0,0,0,.254-.076.762.762,0,0,1,.435-.059.858.858,0,0,0,.473-.067,2.158,2.158,0,0,1,1.185,0,1.107,1.107,0,0,0,.552.068c.29-.009.469.014.469.06,0,.294.633.063.89-.324a8.231,8.231,0,0,1,1.962-2.037.5.5,0,0,0,.2-.126,3.918,3.918,0,0,1,.64-.366c.276-.132.558-.269.626-.3a.686.686,0,0,1,.264-.064.24.24,0,0,0,.184-.072.447.447,0,0,1,.291-.072c.136,0,.247-.036.247-.08s.142-.07.432-.049.456,0,.51-.063a1.325,1.325,0,0,1,.981,0m-1.222,1.966a.566.566,0,0,1-.348.09.512.512,0,0,0-.318.072.291.291,0,0,1-.215.072.291.291,0,0,0-.215.072.239.239,0,0,1-.183.072c-.076,0-.139.032-.139.072s-.064.072-.143.072-.143.032-.143.072a.083.083,0,0,1-.09.072,4.475,4.475,0,0,0-1.216,1.059,3.048,3.048,0,0,0-.479.766c.37.406,8.858,8.852,8.9,8.852s.055-.114.055-.253.04-.268.09-.287c.114-.044.094-6.841-.019-6.841-.039,0-.07-.129-.07-.287s-.032-.287-.072-.287-.072-.1-.072-.215-.032-.215-.072-.215-.072-.064-.072-.143-.032-.143-.072-.143-.072-.064-.072-.143-.032-.143-.072-.143a.084.084,0,0,1-.073-.09A4.654,4.654,0,0,0,77.8,127.37c-.148-.065-.269-.144-.269-.174s-.063-.055-.139-.055a.239.239,0,0,1-.183-.072.291.291,0,0,0-.215-.072.291.291,0,0,1-.215-.072.5.5,0,0,0-.312-.072.637.637,0,0,1-.344-.076,3.268,3.268,0,0,0-1.473-.014m1.52,1.021c0,.039.1.072.216.072a.922.922,0,0,1,.34.063c.068.035.221.106.339.159.712.317,1.756,1.332,1.756,1.708a.075.075,0,0,0,.072.077c.039,0,.072.081.072.179s.032.179.072.179.072.091.072.2a.488.488,0,0,0,.054.257c.059.059.076,5.2.017,5.2-.076,0-6.735-6.707-6.735-6.784,0-.192.731-.787,1.254-1.02.118-.053.271-.124.34-.159a.921.921,0,0,1,.34-.063c.119,0,.216-.032.216-.072a4.371,4.371,0,0,1,1.577,0m-9.782,2.436a.524.524,0,0,1-.322.072.523.523,0,0,0-.322.072.224.224,0,0,1-.173.072,3.845,3.845,0,0,0-1.069.52.137.137,0,0,1-.118.054,6.627,6.627,0,0,0-1.327,1.327.137.137,0,0,1-.054.118,2.191,2.191,0,0,0-.376.747c0,.055-.032.1-.072.1s-.072.1-.072.215-.032.215-.072.215-.072.155-.072.344a.837.837,0,0,1-.086.43,1.692,1.692,0,0,0-.011,1.1.638.638,0,0,1,.1.389.607.607,0,0,0,.072.354.24.24,0,0,1,.072.184c0,.147.041.248.244.6a2.335,2.335,0,0,1,.162.34c.022.069.068.125.1.125s.063.053.063.117c0,.15,9.243,9.392,9.674,9.673a4.921,4.921,0,0,0,.537.306c.118.053.271.124.34.159a.7.7,0,0,0,.264.063.24.24,0,0,1,.184.072.638.638,0,0,0,.365.072c.192,0,.334.036.355.09a1.979,1.979,0,0,0,1.211,0c.021-.054.163-.09.355-.09a.638.638,0,0,0,.365-.072.24.24,0,0,1,.184-.072.7.7,0,0,0,.264-.063c.068-.035.221-.106.339-.159a5.331,5.331,0,0,0,2.25-2.25c.053-.118.124-.271.159-.339a.7.7,0,0,0,.063-.264.24.24,0,0,1,.072-.184.414.414,0,0,0,.072-.277.554.554,0,0,1,.067-.3,4.763,4.763,0,0,0,.022-1.752c-.052,0-.09-.091-.09-.216a.914.914,0,0,0-.064-.34c-.035-.068-.14-.286-.233-.483a1.55,1.55,0,0,0-.223-.382.126.126,0,0,1-.054-.109c0-.3-9.641-9.936-9.942-9.936a.083.083,0,0,1-.091-.072c0-.039-.064-.072-.143-.072s-.143-.032-.143-.072-.063-.072-.139-.072a.239.239,0,0,1-.183-.072.3.3,0,0,0-.219-.072c-.1,0-.175-.032-.175-.072s-.143-.072-.318-.072a.632.632,0,0,1-.363-.072,3.62,3.62,0,0,0-1.433,0m1.577,1a.359.359,0,0,0,.251.072.359.359,0,0,1,.251.072.239.239,0,0,0,.183.072c.076,0,.139.032.139.072a.075.075,0,0,0,.077.072c.288,0,8.94,8.461,9.6,9.386a1.523,1.523,0,0,0,.3.356c.03,0,.054.068.054.147s.032.143.072.143.072.064.072.143.032.143.072.143.072.1.072.215.031.215.069.215a5.682,5.682,0,0,1,0,1.757.3.3,0,0,0-.069.218.787.787,0,0,1-.064.3c-.035.068-.139.286-.231.483a4.534,4.534,0,0,1-.672,1,4.1,4.1,0,0,1-1.374.826c-.052,0-.1.032-.1.072s-.129.072-.287.072-.287.032-.287.072-.287.072-.717.072-.717-.029-.717-.072-.129-.072-.287-.072-.287-.032-.287-.072-.045-.072-.1-.072a2.838,2.838,0,0,1-.937-.5c-.278-.227-8.836-8.783-9.069-9.068a3.38,3.38,0,0,1-.345-.573c-.093-.2-.2-.414-.233-.483a.9.9,0,0,1-.064-.336.37.37,0,0,0-.072-.256,3.27,3.27,0,0,1,0-1.362.447.447,0,0,0,.072-.291c0-.136.032-.247.072-.247s.072-.081.072-.179.032-.179.072-.179.072-.064.072-.143.024-.143.054-.143.095-.091.144-.2a4.356,4.356,0,0,1,1.851-1.518c.055,0,.1-.032.1-.072s.095-.072.211-.072a.368.368,0,0,0,.255-.072,5.194,5.194,0,0,1,1.72,0m-8.169,4.225c-.387.355-4.676,4.643-4.768,4.768a3.816,3.816,0,0,0-.714,1.22c0,.058-.032.105-.072.105s-.072.079-.072.175a.3.3,0,0,1-.072.219.54.54,0,0,0-.072.329c0,.162-.039.3-.09.319a3.048,3.048,0,0,0,.011,1.452c.043.015.079.169.079.343s.032.317.072.317.072.065.072.144a.706.706,0,0,0,.063.269c.035.068.106.221.159.339.337.757,1.734,2.186,2.137,2.186a.075.075,0,0,1,.077.072c0,.039.063.072.139.072a.239.239,0,0,1,.183.072.3.3,0,0,0,.219.072c.1,0,.175.032.175.072s.111.072.247.072a.435.435,0,0,1,.3.09c.041.064.315.09.953.09s.912-.026.953-.09a.435.435,0,0,1,.3-.09c.136,0,.247-.032.247-.072s.064-.072.141-.072a3.41,3.41,0,0,0,1.251-.716,38.014,38.014,0,0,0,3.623-3.674c0-.069.034-.125.073-.125.275,0-.087-.438-1.7-2.058a13.205,13.205,0,0,1-2.587-2.976c-.064-.148-.141-.269-.171-.269s-.055-.063-.055-.139a.239.239,0,0,0-.072-.183.239.239,0,0,1-.072-.183c0-.076-.032-.139-.072-.139s-.072-.1-.072-.215-.032-.215-.072-.215-.072-.111-.072-.247a.447.447,0,0,0-.072-.291.447.447,0,0,1-.072-.291c0-.136-.032-.247-.072-.247s-.072-.1-.072-.22c0-.362-.173-.487-.394-.284m-.179,1.867a.706.706,0,0,0,.063.269c.035.068.1.205.136.3a8.876,8.876,0,0,0,.736,1.433,3.479,3.479,0,0,1,.214.287,16.536,16.536,0,0,0,1.985,2.152,16.406,16.406,0,0,1,1.453,1.579,37.949,37.949,0,0,1-3.153,3.151,3.271,3.271,0,0,0-.287.209,2.539,2.539,0,0,1-.791.362.226.226,0,0,0-.173.065,7.535,7.535,0,0,1-1.944,0,.239.239,0,0,0-.179-.063A.662.662,0,0,1,57.41,147c-.068-.037-.229-.109-.357-.161s-.233-.118-.233-.148a.064.064,0,0,0-.07-.054,2.793,2.793,0,0,1-.938-.788c-.135-.177-.261-.339-.281-.358a2.965,2.965,0,0,1-.359-.759c0-.055-.032-.1-.072-.1s-.072-.111-.072-.247a.447.447,0,0,0-.072-.291,3.985,3.985,0,0,1,0-1.5.447.447,0,0,0,.072-.291c0-.136.032-.246.072-.246s.072-.081.072-.179.026-.179.058-.179.1-.113.157-.251.125-.251.157-.251.058-.048.058-.107.032-.108.072-.108a.078.078,0,0,0,.072-.083,48.2,48.2,0,0,1,3.744-3.715c.078,0,.125.054.125.144" transform="translate(-50.975 -123.811)" fill="#fff" fill-rule="evenodd"/>
</svg>
