<svg xmlns="http://www.w3.org/2000/svg" width="34.964" height="34.027" viewBox="0 0 34.964 34.027">
  <path id="Path_54234" data-name="Path 54234" d="M22.915,30.378a3.65,3.65,0,1,1,3.65,3.65A3.65,3.65,0,0,1,22.915,30.378Zm1.622,0a2.028,2.028,0,1,0,2.029-2.029A2.028,2.028,0,0,0,24.537,30.378Zm-17.033,0a3.65,3.65,0,1,1,3.65,3.65A3.65,3.65,0,0,1,7.5,30.378Zm1.622,0a2.028,2.028,0,1,0,2.028-2.029A2.028,2.028,0,0,0,9.125,30.378Zm4.5-5.638a3.771,3.771,0,0,1-3.041-1.7,3.892,3.892,0,0,1-.365-3.528l.406-.933L5.476,3.042A2.11,2.11,0,0,0,3.529,1.623H.811A.811.811,0,0,1,.811,0H3.529A3.731,3.731,0,0,1,7.016,2.515l.73,2.231,26.4.365a1.016,1.016,0,0,1,.649.325.69.69,0,0,1,.122.689l-1.947,8.151a4.461,4.461,0,0,1-3.853,3.407L12.046,19.468l-.325.73a2.229,2.229,0,0,0,.2,1.947,2.067,2.067,0,0,0,1.7.973H29.4a.811.811,0,1,1,0,1.623ZM12.046,17.8l16.871-1.744a2.756,2.756,0,0,0,2.474-2.149l1.744-7.178L8.274,6.368Z" fill="#d59629"/>
</svg>
