<svg xmlns="http://www.w3.org/2000/svg" xmlns:xlink="http://www.w3.org/1999/xlink" width="35" height="35" viewBox="0 0 35 35">
  <defs>
    <clipPath id="clip-path">
      <rect id="Rectangle_18950" data-name="Rectangle 18950" width="35" height="35" transform="translate(14059 1741.5)" fill="#fff"/>
    </clipPath>
  </defs>
  <g id="Mask_Group_147" data-name="Mask Group 147" transform="translate(-14059 -1741.5)" clip-path="url(#clip-path)">
    <g id="Group_57659" data-name="Group 57659" transform="translate(-230.922 1544.154)">
      <g id="Group_57640" data-name="Group 57640" transform="translate(14294.829 198.089)">
        <g id="coins">
          <path id="Path_53696" data-name="Path 53696" d="M11.252,14.126C5.8,14.126,0,12.435,0,9.3a.8.8,0,1,1,1.607,0c0,1.342,3.668,3.215,9.645,3.215S20.9,10.646,20.9,9.3a.8.8,0,1,1,1.607,0C22.5,12.435,16.708,14.126,11.252,14.126Z" transform="translate(0 5.164)" fill="#f1b11d"/>
          <path id="Path_53697" data-name="Path 53697" d="M11.252,11.126C5.8,11.126,0,9.435,0,6.3a.8.8,0,1,1,1.607,0c0,1.342,3.668,3.215,9.645,3.215S20.9,7.646,20.9,6.3a.8.8,0,1,1,1.607,0C22.5,9.435,16.708,11.126,11.252,11.126Z" transform="translate(0 3.341)" fill="#f1b11d"/>
          <path id="Path_53698" data-name="Path 53698" d="M11.252,20.126C5.8,20.126,0,18.435,0,15.3a.8.8,0,1,1,1.607,0c0,1.342,3.668,3.215,9.645,3.215a22.3,22.3,0,0,0,2.326-.108.8.8,0,0,1,.17,1.6,23.392,23.392,0,0,1-2.5.119Z" transform="translate(0 8.809)" fill="#f1b11d"/>
          <path id="Path_53699" data-name="Path 53699" d="M11.252,23.126C5.8,23.126,0,21.435,0,18.3a.8.8,0,0,1,1.607,0c0,1.342,3.668,3.215,9.645,3.215a22.305,22.305,0,0,0,2.326-.108.8.8,0,0,1,.17,1.6,23.391,23.391,0,0,1-2.5.119Z" transform="translate(0 10.631)" fill="#f1b11d"/>
          <path id="Path_53700" data-name="Path 53700" d="M11.252,17.126C5.8,17.126,0,15.435,0,12.3a.8.8,0,1,1,1.607,0c0,1.342,3.668,3.215,9.645,3.215a22.3,22.3,0,0,0,2.326-.108.8.8,0,0,1,.17,1.6,23.391,23.391,0,0,1-2.5.119Z" transform="translate(0 6.986)" fill="#f1b11d"/>
          <path id="Path_53701" data-name="Path 53701" d="M11.252,9.645C5.8,9.645,0,7.954,0,4.822S5.8,0,11.252,0,22.5,1.691,22.5,4.822,16.708,9.645,11.252,9.645Zm0-8.037c-5.977,0-9.645,1.873-9.645,3.215s3.668,3.215,9.645,3.215S20.9,6.165,20.9,4.822s-3.671-3.215-9.648-3.215Z" fill="#f1b11d"/>
          <path id="Path_53702" data-name="Path 53702" d="M.8,28.22a.8.8,0,0,1-.8-.8V3.3a.8.8,0,0,1,1.607,0V27.416a.8.8,0,0,1-.807.8Z" transform="translate(0 1.519)" fill="#f1b11d"/>
          <path id="Path_53703" data-name="Path 53703" d="M13.8,13.752a.8.8,0,0,1-.8-.8V3.3a.8.8,0,1,1,1.607,0v9.645a.8.8,0,0,1-.807.807Z" transform="translate(7.897 1.519)" fill="#f1b11d"/>
        </g>
        <path id="Path_53704" data-name="Path 53704" d="M1.869,5.706H.961a6.424,6.424,0,0,0,.21,1.817q.2.648.584.648a.81.81,0,0,0,.534-.208l.058.981a1.139,1.139,0,0,1-.6.184q-.607,0-.959-.9A7.316,7.316,0,0,1,.426,5.706H0V4.95H.426V4.113H0V3.351H.426A7.309,7.309,0,0,1,.8.891Q1.142,0,1.746,0a1.261,1.261,0,0,1,.6.188l-.058.984A.863.863,0,0,0,1.752.958q-.353,0-.564.587A6,6,0,0,0,.961,3.351h.908v.763H.961V4.95h.908Z" transform="translate(7.115 6.155) rotate(-90)" fill="#f1b11d" opacity="0.91"/>
      </g>
      <g id="Group_57642" data-name="Group 57642" transform="translate(14312.997 218.432)">
        <path id="Path_53695" data-name="Path 53695" d="M.8,11.252a.8.8,0,0,1-.8-.8V.8A.8.8,0,1,1,1.607.8v9.645a.8.8,0,0,1-.807.807Z" transform="translate(4.288 11.252) rotate(180)" fill="#f1b11d"/>
        <line id="Line_101" data-name="Line 101" y1="3.966" x2="3.438" transform="translate(7.017 11.688) rotate(180)" fill="none" stroke="#f1b11d" stroke-linecap="round" stroke-width="1.5"/>
        <line id="Line_102" data-name="Line 102" x1="3.438" y1="3.966" transform="translate(3.438 11.688) rotate(180)" fill="none" stroke="#f1b11d" stroke-linecap="round" stroke-width="1.5"/>
      </g>
    </g>
  </g>
</svg>
