<svg xmlns="http://www.w3.org/2000/svg" width="18.318" height="17.001" viewBox="0 0 18.318 17.001">
  <path id="Path_54237" data-name="Path 54237" d="M4.55,17a1.92,1.92,0,0,1-1.917-1.917V3.833H.6a.6.6,0,1,1,0-1.2H5.267V1.917A1.919,1.919,0,0,1,7.184,0h3.95a1.919,1.919,0,0,1,1.917,1.917v.716h4.666a.6.6,0,1,1,0,1.2H15.684V15.084A1.919,1.919,0,0,1,13.767,17Zm-.716-1.917a.717.717,0,0,0,.716.716h9.217a.718.718,0,0,0,.717-.716V3.833H3.834ZM11.85,2.633V1.917a.718.718,0,0,0-.716-.717H7.184a.719.719,0,0,0-.717.717v.716Zm-1.316,9.817V7.184a.6.6,0,1,1,1.2,0v5.267a.6.6,0,1,1-1.2,0Zm-3.951,0V7.184a.6.6,0,0,1,1.2,0v5.267a.6.6,0,1,1-1.2,0Z" fill="#faa300"/>
</svg>
