<svg xmlns="http://www.w3.org/2000/svg" width="20.731" height="20.945" viewBox="0 0 20.731 20.945">
  <g id="Group_57696" data-name="Group 57696" transform="translate(-5991.069 270.746)">
    <g id="draft" transform="translate(5895.294 194.078)">
      <path id="Path_54197" data-name="Path 54197" d="M97.521-463.692A2.353,2.353,0,0,0,95.858-462c-.111.413-.111,16.055,0,16.469a2.352,2.352,0,0,0,1.682,1.692c.423.106,11.445.111,11.863,0a2.376,2.376,0,0,0,1.716-1.774,13.449,13.449,0,0,0,.038-1.654c-.014-1.322.1-9.617,0-9.742a.766.766,0,0,0-.7-.332,1,1,0,0,0-.83.332c-.1.125.024,8.424,0,9.78s-.029,1.442-.125,1.567a1.31,1.31,0,0,1-.231.231c-.13.1-.149.1-5.8.1s-5.667,0-5.8-.1a1.311,1.311,0,0,1-.231-.231l-.1-.13v-15.949l.1-.13a1.311,1.311,0,0,1,.231-.231c.125-.1.212-.1,1.567-.125s6.631.1,6.756,0a.98.98,0,0,0,.332-.817.779.779,0,0,0-.332-.707c-.125-.1-5.391.01-6.771,0A7.989,7.989,0,0,0,97.521-463.692Z" transform="translate(0 -0.116)" fill="#fff"/>
    </g>
    <path id="Path_54210" data-name="Path 54210" d="M0,0H5.229" transform="translate(5994.5 -263.301)" fill="none" stroke="#faa300" stroke-linecap="round" stroke-width="1"/>
    <line id="Line_108" data-name="Line 108" x2="5" transform="translate(5994.5 -260.301)" fill="none" stroke="#faa300" stroke-linecap="round" stroke-width="1"/>
    <line id="Line_109" data-name="Line 109" x2="7.541" transform="translate(5994.5 -257.301)" fill="none" stroke="#faa300" stroke-linecap="round" stroke-width="1"/>
    <path id="Path_54203" data-name="Path 54203" d="M5754.313-205.419s3.965-1.748,6.48,1.431a5.03,5.03,0,0,1,.869,1.7,5.339,5.339,0,0,1,.123,2.417" transform="translate(4613.621 5325.905) rotate(-74)" fill="none" stroke="#fff" stroke-linecap="round" stroke-width="1.3"/>
    <path id="Icon_ionic-ios-arrow-back" data-name="Icon ionic-ios-arrow-back" d="M12.073,8.578l1.805-1.8a.341.341,0,0,0-.483-.481L11.35,8.337a.34.34,0,0,0-.01.47l2.054,2.058a.341.341,0,0,0,.483-.481Z" transform="matrix(-0.966, -0.259, 0.259, -0.966, 6019.557, -256.293)" fill="#fff" stroke="#fff" stroke-width="0.4"/>
  </g>
</svg>
