<svg xmlns="http://www.w3.org/2000/svg" xmlns:xlink="http://www.w3.org/1999/xlink" width="35" height="35" viewBox="0 0 35 35">
  <defs>
    <clipPath id="clip-path">
      <rect id="Rectangle_18951" data-name="Rectangle 18951" width="35" height="35" transform="translate(14059 1823)" fill="#fff"/>
    </clipPath>
  </defs>
  <g id="Mask_Group_148" data-name="Mask Group 148" transform="translate(-14059 -1823)" clip-path="url(#clip-path)">
    <g id="exc" transform="translate(14057.621 2020.674)">
      <path id="Path_53756" data-name="Path 53756" d="M86.372-196.435c0,.5-.086.6-.668.857a2,2,0,0,0-1.268,1.988,1.357,1.357,0,0,0,.6,1.3,5.011,5.011,0,0,0,1.439.857c1.371.514,1.8,1.114,1.182,1.628a4.869,4.869,0,0,1-2.6-.086c-.274-.086-.377-.034-.446.206-.051.171-.137.48-.206.685-.1.377.154.514,1.491.805.36.086.463.223.514.668.051.48.12.548.617.6.531.051.548.034.548-.548,0-.548.069-.634.771-.942a2.216,2.216,0,0,0,1.182-3.136c-.206-.377-.617-.668-1.679-1.165-1.508-.7-1.765-.977-1.388-1.491.171-.24.428-.308,1.08-.291a3.513,3.513,0,0,1,1.182.223c.308.154.36.1.548-.48a7.288,7.288,0,0,0,.188-.754,2.6,2.6,0,0,0-.857-.291c-.788-.188-.857-.24-.857-.7s-.051-.5-.685-.5C86.39-197,86.372-196.983,86.372-196.435Z" transform="translate(-68.265 0)" fill="#31d491"/>
      <path id="Path_53757" data-name="Path 53757" d="M31.664-170.16a14.915,14.915,0,0,0-4.078,4.01l-.685,1.062,1.148.154c1.148.154,1.148.154,1.508-.343a11.582,11.582,0,0,1,2.587-2.587l1.011-.754.017-1.2a3.668,3.668,0,0,0-.1-1.182A12.279,12.279,0,0,0,31.664-170.16Z" transform="translate(-20.633 -21.545)" fill="#31d491"/>
      <path id="Path_53758" data-name="Path 53758" d="M138.5-169.635v1.165l1.028.771a10.923,10.923,0,0,1,2.639,2.69l.548.771h1.2a6.222,6.222,0,0,0,1.182-.051c0-.034-.36-.617-.788-1.285a15.209,15.209,0,0,0-5.295-4.969l-.514-.257Z" transform="translate(-113.11 -21.71)" fill="#31d491"/>
      <path id="Path_53759" data-name="Path 53759" d="M159-119.931c0,.034.411.788.925,1.679l.925,1.594-.668.051c-.583.051-.668.1-.668.463,0,.377.086.411.908.463.771.051.891.1.942.428.051.377,0,.394-.891.394-.908,0-.96.017-.96.428s.051.428.942.428h.942v2.056h1.714V-114h.942c.891,0,.942-.017.942-.428s-.051-.428-.96-.428c-.891,0-.942-.017-.891-.394.051-.326.171-.377.96-.428.805-.051.891-.086.891-.463,0-.36-.086-.411-.685-.463l-.668-.051.942-1.542c.531-.857.994-1.594,1.045-1.679.034-.069-.394-.12-.942-.12h-1.011l-.685,1.611-.668,1.628-.685-1.576-.668-1.576-.994-.051A2.58,2.58,0,0,0,159-119.931Z" transform="translate(-130.097 -63.805)" fill="#31d491"/>
      <path id="Path_53760" data-name="Path 53760" d="M4.827-118.643a4.164,4.164,0,0,0-1.919,2.022q-.231.565-.565.565c-.257,0-.343.12-.343.428s.086.428.343.428c.206,0,.343.12.343.274a.434.434,0,0,1-.343.36.46.46,0,0,0-.343.5c0,.326.086.411.428.411.291,0,.428.086.428.308a2.868,2.868,0,0,0,.463,1.028,4.042,4.042,0,0,0,4.49,1.388c.446-.154.548-.274.463-.565a3.04,3.04,0,0,1-.1-.634c0-.24-.171-.274-1.182-.188-1.148.069-1.217.069-1.714-.446a2.037,2.037,0,0,1-.531-.7c0-.1.617-.188,1.508-.223,1.405-.051,1.491-.069,1.542-.446.051-.36.017-.377-1.576-.377-1.525,0-1.645-.017-1.645-.343s.12-.343,1.645-.343c1.594,0,1.628-.017,1.576-.394-.051-.36-.137-.377-1.542-.428-.891-.034-1.508-.12-1.508-.223,0-.308.96-1.165,1.439-1.285a2.924,2.924,0,0,1,1.131.069c.668.171.685.154.788-.291a5.246,5.246,0,0,1,.171-.668C8.443-119,5.975-119.175,4.827-118.643Z" transform="translate(0 -64.665)" fill="#31d491"/>
      <path id="Path_53761" data-name="Path 53761" d="M24-60.414a15.161,15.161,0,0,0,.754,1.371,14.516,14.516,0,0,0,5.278,5.209l.823.48-.051-1.2-.051-1.2-1.217-.96a13.145,13.145,0,0,1-3-3.444c-.137-.291-.326-.343-1.337-.343A4.067,4.067,0,0,0,24-60.414Z" transform="translate(-18.23 -113.11)" fill="#31d491"/>
      <path id="Path_53762" data-name="Path 53762" d="M142.118-57.28a18.783,18.783,0,0,1-3.084,3.1c-.565.411-.6.48-.617,1.628l-.017,1.217.651-.377a16.053,16.053,0,0,0,5.5-5.432l.48-.857h-2.4Z" transform="translate(-113.027 -115.181)" fill="#31d491"/>
      <path id="Path_53763" data-name="Path 53763" d="M88.862-47.376a3.821,3.821,0,0,0-1.08.634A2.926,2.926,0,0,0,87.1-44.5c.086.446.051.48-.411.48-.48,0-.514.034-.514.685,0,.668.017.685.6.685.565,0,.6.034.6.548,0,.394-.171.685-.685,1.182a1.813,1.813,0,0,0-.685,1.1v.428h5.655v-1.542H88.4l.343-.565a2.19,2.19,0,0,0,.343-.942c0-.326.086-.377.771-.377.771,0,.771,0,.771-.6v-.6h-.84c-.788,0-.857-.034-.96-.48-.24-1.114.463-1.731,1.7-1.508.548.1.583.086.668-.531a1.3,1.3,0,0,0-.017-.771A3.455,3.455,0,0,0,88.862-47.376Z" transform="translate(-69.606 -123.852)" fill="#31d491"/>
    </g>
  </g>
</svg>
