<svg xmlns="http://www.w3.org/2000/svg" xmlns:xlink="http://www.w3.org/1999/xlink" width="223" height="230" viewBox="0 0 223 230">
  <defs>
    <clipPath id="clip-path">
      <rect id="Rectangle_19222" data-name="Rectangle 19222" width="223" height="230" transform="translate(7210 2949)" fill="#fff"/>
    </clipPath>
    <linearGradient id="linear-gradient" x1="0.5" x2="0.5" y2="1" gradientUnits="objectBoundingBox">
      <stop offset="0" stop-color="#7dd1dd"/>
      <stop offset="1" stop-color="#47d5a5"/>
    </linearGradient>
  </defs>
  <g id="Mask_Group_247" data-name="Mask Group 247" transform="translate(-7210 -2949)" clip-path="url(#clip-path)">
    <g id="Group_60054" data-name="Group 60054" transform="translate(7073.705 2690.996)">
      <g id="Group_60012" data-name="Group 60012" transform="translate(136.504 282.81)">
        <path id="Path_54113" data-name="Path 54113" d="M913.489,667.131,903,635.476s11.538,11.538,11.538,21l-2.071-21.892a33.409,33.409,0,0,1,5.325,20.117C917.2,666.835,913.489,667.131,913.489,667.131Z" transform="translate(-747.647 -480.661)" fill="#5faa0a" opacity="0.09"/>
        <path id="Path_54114" data-name="Path 54114" d="M429.237,606.031,419,575.138s11.26,11.26,11.26,20.5l-2.021-21.366a32.607,32.607,0,0,1,5.2,19.633C432.859,605.743,429.237,606.031,429.237,606.031Z" transform="translate(-410.327 -430.656)" fill="#5faa0a" opacity="0.09"/>
        <path id="Path_54115" data-name="Path 54115" d="M579.038,644.863c.017,20.322-40.289,14.071-89.634,14.114s-89.042,6.363-89.06-13.96,40.275-24.777,89.619-24.82S579.02,624.541,579.038,644.863Z" transform="translate(-400.344 -455.232)" fill="#2f304c" opacity="0.83"/>
        <path id="Path_54116" data-name="Path 54116" d="M494.376,391.68h-6.451l-3.07-24.883h9.521Z" transform="translate(-350.266 -229.494)" fill="#a0616a"/>
        <path id="Path_54117" data-name="Path 54117" d="M471.814,416.357h13.158v7.834H464.7v-.717a7.117,7.117,0,0,1,7.117-7.117Z" transform="translate(-339.479 -256.015)" fill="#2f2e41"/>
        <path id="Path_54118" data-name="Path 54118" d="M596.376,470.68h-6.451l-3.07-24.883h9.521Z" transform="translate(-404.847 -271.768)" fill="#a0616a"/>
        <path id="Path_54119" data-name="Path 54119" d="M573.814,495.357h13.158v7.834H566.7v-.717a7.117,7.117,0,0,1,7.117-7.117Z" transform="translate(-394.06 -298.289)" fill="#2f2e41"/>
        <path id="Path_54120" data-name="Path 54120" d="M846.521,455.627a4.8,4.8,0,0,0-1.346-7.229l-14.983-61.036-9.58,4.122L838.432,450.5a4.822,4.822,0,0,0,8.088,5.127Z" transform="translate(-625.235 -330.638)" fill="#a0616a"/>
        <path id="Path_54121" data-name="Path 54121" d="M815.194,266.979a5.292,5.292,0,0,0-8.1.536l-23.191,2.662,3.528,8.945,21.091-3.947a5.32,5.32,0,0,0,6.668-8.2Z" transform="translate(-605.594 -265.346)" fill="#a0616a"/>
        <path id="Path_54122" data-name="Path 54122" d="M769,512.562l10.12,75.95,12.6-2.593s-1.852-55.313,4.445-61.981-8.1-18.35-8.1-18.35Z" transform="translate(-597.617 -393.903)" fill="#053a4a"/>
        <path id="Path_54123" data-name="Path 54123" d="M728.186,466.711l-4.649,6.973s-35.8-14.876-35.8,8.833-2.048,39.8-2.789,40.91,8.571,3.995,13.017,3.254c0,0,5.484-38.222,5.114-40.445,0,0,35.114,17.216,41.782,15.734s8.243-6.727,9.355-9.691-.465-26.5-.465-26.5L731.529,459Z" transform="translate(-552.619 -368.972)" fill="#053a4a"/>
        <path id="Path_54124" data-name="Path 54124" d="M765.89,323.488l-1.325-1.59s-14.841-33.392-9.01-42.4,31.272-10.336,32.067-9.806-1.9,7.412-.044,10.592c0,0-19.708,4.273-21.033,4.8S776.755,305.2,776.755,305.2l-1.325,11.926Z" transform="translate(-589.696 -267.617)" fill="url(#linear-gradient)"/>
        <path id="Path_54125" data-name="Path 54125" d="M798.4,348.049s-13.781,1.59-14.311,1.59-.8-3.445-.8-3.445l-12.191,16.7s-6.006,48.437-4.416,47.642,30.917,3.771,31.182,1.651-.265-12.721.53-13.251,13.781-33.392,13.781-33.392-1.325-6.89-5.83-9.276S798.4,348.049,798.4,348.049Z" transform="translate(-596.239 -308.609)" fill="url(#linear-gradient)"/>
        <path id="Path_54126" data-name="Path 54126" d="M844.451,378.118l4.24,4.505s6.3,51.77,2.855,53.359-10.228,1.395-10.228,1.395l-6.673-24.543Z" transform="translate(-632.745 -325.692)" fill="url(#linear-gradient)"/>
        <circle id="Ellipse_1523" data-name="Ellipse 1523" cx="12.198" cy="12.198" r="12.198" transform="translate(176.725 11.766)" fill="#a0616a"/>
        <path id="Path_54127" data-name="Path 54127" d="M784.986,295.113c-.165-2.531-3.358-2.618-5.894-2.642s-5.568.067-7-2.025a4.727,4.727,0,0,1,.016-4.783,13.588,13.588,0,0,1,3.34-3.718c3.273-2.831,6.647-5.639,10.577-7.451s8.535-2.544,12.611-1.089c5.007,1.787,11.775,10.983,12.36,16.267a19.163,19.163,0,0,1-5.087,14.619c-3.56,3.949-11.707,2.355-16.834,3.76,3.117-4.412,1.063-12.428-3.931-14.488Z" transform="translate(-598.926 -269.245)" fill="#2f2e41"/>
      </g>
    </g>
    <g id="Group_60055" data-name="Group 60055" transform="translate(7118 2731.996)">
      <path id="Path_54175" data-name="Path 54175" d="M258.71,171.71s-43.762,17.974-48.451,19.928-7.033,6.642-7.033,11.331-3.517,65.872,55.484,95.453c0,0,5.355,1.482,9.418,0s55.64-26.489,55.64-95.649c0,0,0-7.033-8.205-10.941s-47.877-20.123-47.877-20.123S262.812,169.561,258.71,171.71Z" transform="translate(-76.186 58.245)" fill="#4dd4ab"/>
      <path id="Path_54176" data-name="Path 54176" d="M295.711,215.286V311.17s-44.153-21.254-43.762-77.129Z" transform="translate(-108.292 29.042)" fill="#56b9a4"/>
      <g id="Group_60019" data-name="Group 60019">
        <path id="Path_54174" data-name="Path 54174" d="M255.418,294.925a25.363,25.363,0,0,1-6.287-.813l-.4-.112-.376-.188a104.16,104.16,0,0,1-34.038-26.72,101.151,101.151,0,0,1-17.186-30.518,117.459,117.459,0,0,1-6.642-41.378c.006-.3.011-.524.011-.681a16.293,16.293,0,0,1,9.678-15.3c4.5-1.875,45.355-18.656,48.306-19.868,5.559-2.786,11.49-.461,12.439-.054,2.129.87,39.9,16.318,48.059,20.2,8.411,4.005,10.656,11.2,10.656,14.821a120.7,120.7,0,0,1-8.437,45.527,105.419,105.419,0,0,1-18.945,30.531c-15.465,17.4-30.934,23.573-31.084,23.628a16.9,16.9,0,0,1-5.749.918Zm-3.638-9.011c1.341.3,4.429.752,6.441.018,2.557-.932,15.5-7.646,27.6-21.262,16.717-18.812,25.2-42.46,25.211-70.288-.03-.564-.43-4.585-5.755-7.12-8-3.811-47.26-19.863-47.656-20.025l-.108-.046c-.823-.345-3.441-1.071-5.246-.125l-.361.168c-.438.18-43.806,17.992-48.431,19.919-3.235,1.348-4.388,4.688-4.388,7.364,0,.2-.005.48-.012.848-.369,19.041,4.037,65.894,52.7,90.55Z" transform="translate(-67.546 67.004)" fill="#2a2d4d"/>
        <path id="Icon_material-lock" data-name="Icon material-lock" d="M22.7,9.849H21.5V7.463a5.963,5.963,0,0,0-11.927,0V9.849H8.385A2.392,2.392,0,0,0,6,12.234V24.161a2.392,2.392,0,0,0,2.385,2.385H22.7a2.392,2.392,0,0,0,2.385-2.385V12.234A2.392,2.392,0,0,0,22.7,9.849ZM15.542,20.583A2.385,2.385,0,1,1,17.927,18.2,2.392,2.392,0,0,1,15.542,20.583Zm3.7-10.734H11.844V7.463a3.7,3.7,0,1,1,7.395,0Z" transform="translate(172 279.5)" fill="#fff"/>
      </g>
    </g>
  </g>
</svg>
