<svg xmlns="http://www.w3.org/2000/svg" xmlns:xlink="http://www.w3.org/1999/xlink" width="35.2" height="35.2" viewBox="0 0 35.2 35.2">
  <defs>
    <clipPath id="clip-path">
      <rect id="Rectangle_38" data-name="Rectangle 38" width="35.2" height="35.2" transform="translate(9876 3150.067)" fill="#fff"/>
    </clipPath>
  </defs>
  <g id="Mask_Group_10" data-name="Mask Group 10" transform="translate(-9876 -3150.067)" clip-path="url(#clip-path)">
    <path id="Icon_ionic-ios-football" data-name="Icon ionic-ios-football" d="M20.971,3.375a17.6,17.6,0,1,0,17.6,17.6A17.593,17.593,0,0,0,20.971,3.375ZM31.74,10.2a15.109,15.109,0,0,1,1.912,2.326.31.31,0,0,1,.034.3l-1.218,3.494a.336.336,0,0,1-.178.195l-4.864,2.216a.34.34,0,0,1-.355-.051l-4.788-4.027a.347.347,0,0,1-.118-.262V9.051a.338.338,0,0,1,.152-.279l3.248-2.208a.333.333,0,0,1,.3-.042A15.417,15.417,0,0,1,31.74,10.2ZM25.488,35.378a.312.312,0,0,1-.22.2,15.205,15.205,0,0,1-4.3.609,15.47,15.47,0,0,1-4.3-.609.351.351,0,0,1-.22-.2L15.066,31.74a.355.355,0,0,1,.017-.279l1.886-3.578a.342.342,0,0,1,.3-.178h7.4a.332.332,0,0,1,.3.178l1.886,3.578a.355.355,0,0,1,.017.279Zm-5.7-26.309v5.338a.347.347,0,0,1-.118.262l-4.8,4.018a.34.34,0,0,1-.355.051L9.652,16.521a.334.334,0,0,1-.178-.195L8.256,12.841a.331.331,0,0,1,.034-.3,15.337,15.337,0,0,1,7.8-5.989.333.333,0,0,1,.3.042l3.248,2.208A.28.28,0,0,1,19.787,9.068ZM5.887,21.656l3.054-2.639a.338.338,0,0,1,.364-.051l4.433,2.013a.339.339,0,0,1,.186.228l1.235,4.847a.4.4,0,0,1-.025.245l-1.963,3.714a.329.329,0,0,1-.3.178l-3.891-.051a.353.353,0,0,1-.271-.135,15.119,15.119,0,0,1-2.935-8.07A.37.37,0,0,1,5.887,21.656Zm22.875,8.35L26.808,26.3a.31.31,0,0,1-.025-.245l1.235-4.847a.339.339,0,0,1,.186-.228l4.433-2.013a.355.355,0,0,1,.364.051l3.054,2.639a.342.342,0,0,1,.118.279,15.075,15.075,0,0,1-2.935,8.07.329.329,0,0,1-.271.135l-3.9.051A.371.371,0,0,1,28.762,30.006Z" transform="translate(9872.625 3146.7)" fill="#fff"/>
  </g>
</svg>
