<svg xmlns="http://www.w3.org/2000/svg" xmlns:xlink="http://www.w3.org/1999/xlink" width="19.98" height="19.98" viewBox="0 0 19.98 19.98"><defs><style>.a{fill:#710c0c;}.b{clip-path:url(#a);}.c{fill:#90929f;}</style><clipPath id="a"><rect class="a" width="19.98" height="19.98" transform="translate(0 0)"/></clipPath></defs><g class="b" transform="translate(0 0)"><g transform="translate(-0.039)"><g transform="translate(0)"><g transform="translate(7.077 0)"><path class="c" d="M183.932,6.365a2.932,2.932,0,1,1,2.932-2.932A2.936,2.936,0,0,1,183.932,6.365Z" transform="translate(-181 -0.5)"/></g><g transform="translate(0 12.354)"><path class="c" d="M.392,320.855A2.933,2.933,0,1,1,4.4,321.929a2.936,2.936,0,0,1-4.006-1.073Z" transform="translate(0 -316.455)"/></g><g transform="translate(14.154 12.354)"><path class="c" d="M363.454,321.928a2.932,2.932,0,1,1,4.006-1.073A2.932,2.932,0,0,1,363.454,321.928Z" transform="translate(-361.987 -316.455)"/></g></g><g transform="translate(1.226 3.821)"><path class="c" d="M32.523,105.158l-1.171-.064a8.83,8.83,0,0,1,3.965-6.871l.644.981A7.657,7.657,0,0,0,32.523,105.158Z" transform="translate(-31.352 -98.223)"/></g><g transform="translate(14.185 3.821)"><path class="c" d="M366.225,105.159a7.657,7.657,0,0,0-3.438-5.954l.644-.981a8.83,8.83,0,0,1,3.965,6.871Z" transform="translate(-362.787 -98.224)"/></g><g transform="translate(6.044 17.991)"><path class="c" d="M158.54,462.615a8.712,8.712,0,0,1-3.966-.942l.529-1.047a7.672,7.672,0,0,0,6.873,0l.529,1.047A8.711,8.711,0,0,1,158.54,462.615Z" transform="translate(-154.574 -460.626)"/></g></g></g></svg>
