<svg xmlns="http://www.w3.org/2000/svg" width="21.051" height="20.853" viewBox="0 0 21.051 20.853">
  <g id="Group_57698" data-name="Group 57698" transform="translate(-5916.621 162.11)">
    <g id="Group_57697" data-name="Group 57697" transform="translate(5916.621 -162.11)">
      <g id="Group_57365" data-name="Group 57365">
        <g id="coins">
          <path id="Path_53697" data-name="Path 53697" d="M9.252,10.126C4.766,10.126,0,8.735,0,6.161a.661.661,0,0,1,1.322,0c0,1.1,3.016,2.643,7.93,2.643s7.93-1.54,7.93-2.643a.661.661,0,1,1,1.322,0C18.5,8.735,13.738,10.126,9.252,10.126Z" transform="translate(0 1.769)" fill="#fff"/>
          <path id="Path_53699" data-name="Path 53699" d="M9.252,22.126C4.766,22.126,0,20.735,0,18.161a.661.661,0,1,1,1.322,0c0,1.1,3.016,2.643,7.93,2.643a18.339,18.339,0,0,0,1.912-.089.661.661,0,1,1,.14,1.314A19.233,19.233,0,0,1,9.252,22.126Z" transform="translate(0 -1.485)" fill="#fff"/>
          <path id="Path_53700" data-name="Path 53700" d="M9.252,16.126C4.766,16.126,0,14.735,0,12.161a.661.661,0,0,1,1.322,0c0,1.1,3.016,2.643,7.93,2.643a18.339,18.339,0,0,0,1.912-.089.661.661,0,0,1,.14,1.314A19.233,19.233,0,0,1,9.252,16.126Z" transform="translate(0 0.88)" fill="#fff"/>
          <path id="Path_53701" data-name="Path 53701" d="M9.252,7.93C4.766,7.93,0,6.54,0,3.965S4.766,0,9.252,0,18.5,1.39,18.5,3.965,13.738,7.93,9.252,7.93Zm0-6.608c-4.914,0-7.93,1.54-7.93,2.643s3.016,2.643,7.93,2.643,7.93-1.54,7.93-2.643S14.166,1.322,9.252,1.322Z" transform="translate(0 0)" fill="#fff"/>
          <path id="Path_53702" data-name="Path 53702" d="M.661,16.055c-.365,0-.661-.19-.661-.424V2.924C0,2.69.3,2.5.661,2.5s.661.19.661.424V15.632C1.322,15.866,1.026,16.055.661,16.055Z" transform="translate(0 0.951)" fill="#fff"/>
          <path id="Path_53703" data-name="Path 53703" d="M13.661,7.393c-.365,0-.661-.157-.661-.349V2.849c0-.193.3-.349.661-.349s.661.157.661.349V7.043C14.322,7.236,14.026,7.393,13.661,7.393Z" transform="translate(4.182 0.804)" fill="#fff"/>
        </g>
        <path id="Path_53704" data-name="Path 53704" d="M1.536,4.692H.79A5.282,5.282,0,0,0,.963,6.186q.168.533.48.533a.666.666,0,0,0,.439-.171l.048.807a.936.936,0,0,1-.492.151q-.5,0-.789-.738a6.015,6.015,0,0,1-.3-2.077H0V4.07H.35V3.382H0V2.755H.35A6.009,6.009,0,0,1,.654.733Q.939,0,1.436,0A1.037,1.037,0,0,1,1.93.155L1.882.963A.71.71,0,0,0,1.44.788q-.29,0-.463.483A4.93,4.93,0,0,0,.79,2.755h.747v.627H.79V4.07h.747Z" transform="translate(5.85 5.061) rotate(-90)" fill="#faa300" opacity="0.91"/>
      </g>
    </g>
    <g id="rocket-_1_" transform="translate(5928.789 -145.817) rotate(-45)">
      <path id="Path_54212" data-name="Path 54212" d="M5.67.006A5.043,5.043,0,0,0,3.059,1.031a4.357,4.357,0,0,0-.5.443l-.189.187-.151.008a3.416,3.416,0,0,0-2.1.917c-.1.1-.11.109-.11.159a.118.118,0,0,0,.035.092l.034.039.54.078.539.078-.074.085c-.085.1-.1.14-.072.2s1.757,1.784,1.8,1.8.1,0,.194-.076l.085-.074.076.526a3.859,3.859,0,0,0,.1.56.14.14,0,0,0,.155.048A2.066,2.066,0,0,0,3.9,5.535,3.4,3.4,0,0,0,4.448,3.9l.008-.151.187-.189a4.661,4.661,0,0,0,.641-.785A4.846,4.846,0,0,0,6.118.227C6.118.091,6.1.033,6.035.01A1.911,1.911,0,0,0,5.67.006ZM4.406,1.19a.674.674,0,0,1,.52.52.845.845,0,0,1,.019.136.7.7,0,0,1-.368.6.816.816,0,0,1-.307.078.706.706,0,0,1-.6-.368A.816.816,0,0,1,3.6,1.846a.7.7,0,0,1,.2-.473A.651.651,0,0,1,4.406,1.19Z" transform="translate(0.335 0)" fill="#faa300"/>
      <path id="Path_54213" data-name="Path 54213" d="M1.2.012a.869.869,0,0,0-.429.2A3.712,3.712,0,0,0,.125,1.6c-.144.431-.149.458-.09.517s.087.054.515-.088a3.715,3.715,0,0,0,1.391-.646A.832.832,0,0,0,1.424.01.591.591,0,0,0,1.2.012Z" transform="translate(0 4.301)" fill="#faa300"/>
    </g>
  </g>
</svg>
