<svg xmlns="http://www.w3.org/2000/svg" width="22.933" height="24.925" viewBox="0 0 22.933 24.925">
  <path id="Path_54219" data-name="Path 54219" d="M4,24.8.518,22.889A1,1,0,0,1,0,22.012V18.268a1,1,0,0,1,.518-.876L4,15.478a1,1,0,0,1,.962,0L8.45,17.392a1,1,0,0,1,.518.876v3.744a1,1,0,0,1-.518.877L4.965,24.8A1,1,0,0,1,4,24.8Zm.24-6.784-1.555.853a.5.5,0,0,0-.26.438v1.661a.5.5,0,0,0,.26.438l1.555.852a.5.5,0,0,0,.481,0l1.555-.852a.5.5,0,0,0,.26-.438V19.309a.5.5,0,0,0-.26-.438l-1.555-.853a.5.5,0,0,0-.481,0ZM21.506,20.8c-.008-.016-.072-.028-.139-.028a.254.254,0,0,1-.139-.027c-.008-.017-.041-.028-.072-.028s-.052-.014-.052-.028-.025-.028-.056-.028-.056-.013-.056-.027-.019-.028-.041-.028c-.044,0-8.767-8.709-8.767-8.753,0-.016.4-.432.895-.925s.9-.9.9-.9c.024-.008,8.731,8.731,8.731,8.764s.014.041.027.041.028.025.028.056.014.055.028.055.028.025.028.056.014.055.027.055.028.036.028.084.014.083.028.083.028.111.028.277-.011.276-.028.276-.028.036-.028.081a1.093,1.093,0,0,1-.343.568,1.15,1.15,0,0,1-.211.183.2.2,0,0,0-.089.055.218.218,0,0,1-.122.056c-.036,0-.072.011-.08.028a.18.18,0,0,1-.112.027c-.052,0-.1.012-.111.028s-.081.027-.152.027S21.517,20.821,21.506,20.8ZM7.379,14.377c-.008-.017-.052-.028-.1-.028s-.08-.014-.08-.028-.028-.028-.064-.028a.216.216,0,0,1-.124-.055.2.2,0,0,0-.092-.056.149.149,0,0,1-.077-.05.215.215,0,0,0-.077-.064c-.058-.02-4.33-4.285-4.33-4.324a.124.124,0,0,0-.055-.078.129.129,0,0,1-.056-.088c0-.028-.011-.05-.028-.05s-.027-.024-.027-.055-.012-.056-.028-.056-.028-.024-.028-.052S2.2,9.3,2.185,9.293a.254.254,0,0,1-.027-.139c0-.067-.012-.13-.028-.139S2.1,8.939,2.1,8.864s.011-.144.028-.152.028-.073.028-.139a.254.254,0,0,1,.027-.139.08.08,0,0,0,.028-.069.569.569,0,0,1,.144-.277c.011,0,.023-.019.023-.041,0-.056,7.77-7.825,7.825-7.825.023,0,.041-.014.041-.027s.025-.028.056-.028.056-.014.056-.028.024-.028.052-.028a.1.1,0,0,0,.072-.027c.008-.017.047-.028.085-.028s.067-.014.067-.028A.884.884,0,0,1,10.967,0,.881.881,0,0,1,11.3.028c0,.013.031.028.067.028s.077.011.085.028a.112.112,0,0,0,.08.027.221.221,0,0,1,.122.056.194.194,0,0,0,.092.055.27.27,0,0,1,.108.084.322.322,0,0,0,.1.083c.028,0,4.163,4.133,4.163,4.163a.63.63,0,0,0,.111.133.456.456,0,0,1,.111.152c0,.022.014.039.028.039s.028.025.028.052A.094.094,0,0,0,16.423,5c.016.009.027.048.027.084a.117.117,0,0,0,.028.083c.017.008.028.072.028.139a.244.244,0,0,0,.028.139c.016.008.028.067.028.124s-.012.117-.028.125a.244.244,0,0,0-.028.139c0,.067-.011.13-.028.139a.091.091,0,0,0-.028.069,1.114,1.114,0,0,1-.248.443.338.338,0,0,0-.084.1c0,.031-1.2,1.229-1.224,1.229S13.437,9.244,11.687,11s-3.2,3.185-3.227,3.185-.041.011-.041.028-.025.028-.055.028-.056.011-.056.027-.025.028-.052.028a.088.088,0,0,0-.072.028.122.122,0,0,1-.084.028c-.036,0-.075.011-.083.028A.993.993,0,0,1,7.7,14.4.993.993,0,0,1,7.379,14.377ZM4.3,4a5.24,5.24,0,0,1-.429-.473c-.055-.1-.072-.275-.024-.3a.088.088,0,0,0,.028-.072c0-.028.013-.052.027-.052s.028-.02.028-.042A15.191,15.191,0,0,1,5.21,1.776a.548.548,0,0,1,.479,0,6.428,6.428,0,0,1,.79.776c0,.013-.405.432-.9.928l-.9.9Z" fill="#efaf1e"/>
</svg>
