<svg xmlns="http://www.w3.org/2000/svg" xmlns:xlink="http://www.w3.org/1999/xlink" width="49" height="48" viewBox="0 0 49 48">
  <defs>
    <clipPath id="clip-path">
      <rect id="Rectangle_18954" data-name="Rectangle 18954" width="49" height="48" transform="translate(14041 1497)" fill="#fff"/>
    </clipPath>
  </defs>
  <g id="Mask_Group_155" data-name="Mask Group 155" transform="translate(-14041 -1497)" clip-path="url(#clip-path)">
    <g id="Group_57710" data-name="Group 57710" transform="translate(13034 1230)">
      <g id="png-transparent-casino-token-gambling-poker-computer-icons-black-chip-limited-text-trademark-logo" transform="translate(798.801 774.71)">
        <path id="Path_54224" data-name="Path 54224" d="M230.158-507.68a24.26,24.26,0,0,0-15.131,7.24,22.512,22.512,0,0,0-4.357,6.158,23.651,23.651,0,0,0-2.4,8.427,33.791,33.791,0,0,0,.144,5.842,24.373,24.373,0,0,0,7.067,13.694,22.694,22.694,0,0,0,6.158,4.357,24.057,24.057,0,0,0,21.355,0,22.973,22.973,0,0,0,6.167-4.357,24.261,24.261,0,0,0,7.2-14.939,33.089,33.089,0,0,0-.144-5.937,24.492,24.492,0,0,0-2.26-7.086A24.194,24.194,0,0,0,235.9-507.508,48.163,48.163,0,0,0,230.158-507.68Zm4.874,2.538.919.115v2.48c0,1.36-.019,2.471-.048,2.471s-.469-.077-.986-.163a16.5,16.5,0,0,0-2.6-.153,16.5,16.5,0,0,0-2.6.153c-.517.086-.958.163-.986.163s-.048-1.111-.048-2.48v-2.48l1.082-.105c.584-.057,1.226-.125,1.408-.144A30,30,0,0,1,235.032-505.143Zm-.182,7.517a14.267,14.267,0,0,1,10.955,9.471,12.259,12.259,0,0,1,.709,4.549,12.283,12.283,0,0,1-.709,4.53,14.275,14.275,0,0,1-11.013,9.509,18,18,0,0,1-4.97,0,14.378,14.378,0,0,1-11.549-11.549,19.28,19.28,0,0,1-.048-4.692,14.44,14.44,0,0,1,3.783-7.632,14.4,14.4,0,0,1,8.1-4.233c.45-.057.948-.124,1.1-.144A20.646,20.646,0,0,1,234.85-497.625Zm-17.065,1.379c1.14.661,2.078,1.226,2.078,1.255a5,5,0,0,1-.546.718,17.171,17.171,0,0,0-2.825,4.941c-.115.364-.259.642-.316.632s-1.034-.565-2.164-1.226l-2.068-1.187.412-1.006a22.5,22.5,0,0,1,1.657-3.17,16.516,16.516,0,0,1,1.647-2.183C215.688-497.453,216.646-496.907,217.785-496.246Zm31.784-.527a21.664,21.664,0,0,1,2.7,4.654l.412,1.006-2.068,1.187c-1.13.661-2.107,1.207-2.164,1.226s-.182-.22-.278-.527a17.579,17.579,0,0,0-1.369-2.93,19.864,19.864,0,0,0-1.829-2.5.637.637,0,0,1-.211-.287,45.232,45.232,0,0,1,4.233-2.519A6.767,6.767,0,0,1,249.569-496.773Zm-32.962,19.2a17.1,17.1,0,0,0,3.1,5.133c.105.124.172.239.144.268-.23.211-4.252,2.442-4.3,2.384a23.165,23.165,0,0,1-3.237-5.391l-.373-.919,2.068-1.207c1.14-.661,2.107-1.2,2.155-1.187A4.112,4.112,0,0,1,216.608-477.572Zm34.015.287,2.059,1.187-.373.919a23.036,23.036,0,0,1-3.237,5.391c-.048.057-4.07-2.174-4.3-2.384-.029-.029.048-.163.163-.306a18.125,18.125,0,0,0,3.036-4.951c.125-.316.268-.7.326-.843s.144-.259.182-.239S249.483-477.946,250.623-477.285Zm-20.876,10.314a20.02,20.02,0,0,0,5.133,0c.479-.086.929-.163.977-.163a13.355,13.355,0,0,1,.1,2.48v2.471l-1.073.134a26.935,26.935,0,0,1-5.123,0l-1.082-.134v-2.471a13.357,13.357,0,0,1,.1-2.48C228.817-467.134,229.267-467.058,229.746-466.971Z" transform="translate(0 0)" fill="#fff"/>
      </g>
      <text id="NDCT" transform="translate(1022 294)" fill="#fff" font-size="8" font-family="RobotoCondensed-Light, Roboto" font-weight="300" letter-spacing="0.02em"><tspan x="0" y="0">NDCT</tspan></text>
    </g>
  </g>
</svg>
