<svg xmlns="http://www.w3.org/2000/svg" width="53.746" height="27.745" viewBox="0 0 53.746 27.745">
  <g id="Background" transform="translate(-50 -122.645)">
    <path id="path0" d="M73.914,123.9c-.019.049-.146.09-.283.09a.452.452,0,0,0-.293.072.368.368,0,0,1-.255.072c-.116,0-.211.032-.211.072s-.065.072-.144.072a.708.708,0,0,0-.269.063l-.447.226-.483.242c-.088.043-.161.1-.161.133s-.035.054-.077.054a8.717,8.717,0,0,0-2.279,2.1c-.232.342-.321.4-.4.269a7.6,7.6,0,0,0-1.545-.072,6.445,6.445,0,0,0-1.5.072c0,.039-.127.072-.282.072a.535.535,0,0,0-.327.072.368.368,0,0,1-.255.072c-.116,0-.211.032-.211.072s-.081.072-.179.072-.179.032-.179.072-.045.072-.1.072a8.267,8.267,0,0,0-2.695,1.867c-.1.1-2.034,2.052-4.3,4.336s-4.235,4.3-4.371,4.473-.305.384-.374.462a.486.486,0,0,0-.125.229.129.129,0,0,1-.054.112,4.267,4.267,0,0,0-.52,1.037c0,.054-.032.1-.072.1s-.072.079-.072.175a.3.3,0,0,1-.072.219.447.447,0,0,0-.072.291c0,.136-.032.247-.072.247s-.072.16-.072.355a.644.644,0,0,1-.09.412,7.338,7.338,0,0,0-.018,2.219c.039-.007.081.173.093.4s.052.412.09.412.068.113.068.251.032.251.072.251.072.079.072.175a.3.3,0,0,0,.072.219.3.3,0,0,1,.072.219c0,.1.032.175.072.175s.072.065.072.143.032.143.072.143.072.064.072.143.032.143.072.143a.075.075,0,0,1,.072.077,2.858,2.858,0,0,0,.515.771.126.126,0,0,1,.058.112,9.012,9.012,0,0,0,1.477,1.477.126.126,0,0,1,.112.058,2.857,2.857,0,0,0,.771.515.075.075,0,0,1,.077.072c0,.039.064.072.143.072s.143.032.143.072.064.072.143.072.143.032.143.072.063.072.139.072a.239.239,0,0,1,.183.072.3.3,0,0,0,.219.072c.1,0,.175.032.175.072s.095.072.211.072a.368.368,0,0,1,.255.072.524.524,0,0,0,.322.072.524.524,0,0,1,.322.072,6.342,6.342,0,0,0,1.4.072,6.342,6.342,0,0,0,1.4-.072.524.524,0,0,1,.322-.072.524.524,0,0,0,.322-.072.24.24,0,0,1,.184-.072.7.7,0,0,0,.264-.063c.068-.035.205-.1.3-.134,1.259-.5,1.905-.994,4.015-3.077a14.077,14.077,0,0,1,1.431-1.311,17.015,17.015,0,0,1,1.574,1.454,18.319,18.319,0,0,0,2.319,2.122.964.964,0,0,1,.22.161.482.482,0,0,0,.236.132.085.085,0,0,1,.094.072c0,.039.064.072.143.072s.143.032.143.072.064.072.143.072.143.032.143.072.063.072.139.072a.239.239,0,0,1,.183.072.3.3,0,0,0,.219.072c.1,0,.175.032.175.072s.1.072.215.072.215.032.215.072.123.072.272.072a.646.646,0,0,1,.351.079,14.427,14.427,0,0,0,3.054,0,.96.96,0,0,1,.453-.078.763.763,0,0,0,.425-.08c.033-.053.252-.069.647-.049.468.025.605.01.636-.07s.165-.1.58-.078c.395.016.557,0,.6-.073s.2-.089.6-.069.554,0,.58-.063.218-.091.642-.091a1.509,1.509,0,0,0,.655-.078c.03-.048.251-.069.576-.056.348.014.558-.008.615-.066a1.379,1.379,0,0,1,.642-.088,1.339,1.339,0,0,0,.6-.078c.029-.048.249-.069.569-.056a1.37,1.37,0,0,0,.62-.06.8.8,0,0,1,.349-.105l.25-.024.036-1.033a3.3,3.3,0,0,1,.113-1.059,8.1,8.1,0,0,0,.046-1.869,8.952,8.952,0,0,1,.06-2.058,8.041,8.041,0,0,0,.072-1.875c-.018-1.6.017-2.142.134-2.069a14.469,14.469,0,0,0,.022-1.809,8.755,8.755,0,0,1,.058-2.058,9.074,9.074,0,0,0,.071-2.048c-.017-1.576,0-1.848.091-1.943s.1-.27.068-1.159a5.346,5.346,0,0,1,.009-1.049.5.5,0,0,1,.257.248,7.3,7.3,0,0,0,.43.683,7.629,7.629,0,0,1,.43.681.664.664,0,0,0,.143.2.521.521,0,0,1,.143.248.085.085,0,0,0,.072.094.085.085,0,0,1,.072.094.521.521,0,0,0,.143.248.656.656,0,0,1,.143.2,3.525,3.525,0,0,0,.287.465,2.391,2.391,0,0,1,.287.5.074.074,0,0,0,.072.076c.039,0,.072.048.072.108s.032.107.072.107.072.048.072.107.032.108.072.108a.085.085,0,0,1,.072.094.475.475,0,0,0,.125.233,1.916,1.916,0,0,1,.227.336c.056.108.128.2.161.2a.069.069,0,0,1,.059.076,2.392,2.392,0,0,0,.287.5,3.52,3.52,0,0,1,.287.465.657.657,0,0,0,.143.2.521.521,0,0,1,.143.248.085.085,0,0,0,.072.094.085.085,0,0,1,.072.094.475.475,0,0,0,.125.233,1.916,1.916,0,0,1,.227.336c.056.108.128.2.161.2a.068.068,0,0,1,.059.074,6.131,6.131,0,0,0,.485.806c.267.4.53.821.585.929s.127.2.16.2.059.042.059.094a.522.522,0,0,0,.143.248.664.664,0,0,1,.143.2,7.619,7.619,0,0,0,.43.681,4.814,4.814,0,0,1,.43.714.073.073,0,0,0,.072.074.085.085,0,0,1,.072.094.475.475,0,0,0,.125.233,1.915,1.915,0,0,1,.227.336c.056.108.128.2.161.2a.069.069,0,0,1,.059.076,2.392,2.392,0,0,0,.287.5,2.392,2.392,0,0,1,.287.5.074.074,0,0,0,.072.076c.039,0,.072.048.072.107s.032.107.072.107.072.048.072.107.032.107.072.107a.085.085,0,0,1,.072.094.475.475,0,0,0,.125.233,1.917,1.917,0,0,1,.227.336c.056.108.128.2.161.2a.069.069,0,0,1,.059.076,2.392,2.392,0,0,0,.287.5,2.391,2.391,0,0,1,.287.5.074.074,0,0,0,.072.076.085.085,0,0,1,.072.094.475.475,0,0,0,.125.233,1.915,1.915,0,0,1,.227.336c.056.108.128.2.161.2a.068.068,0,0,1,.059.074,4.813,4.813,0,0,0,.43.714,4.815,4.815,0,0,1,.43.714.073.073,0,0,0,.072.074.085.085,0,0,1,.072.094.475.475,0,0,0,.125.233,1.915,1.915,0,0,1,.227.336c.056.108.128.2.161.2a.067.067,0,0,1,.059.073,1.912,1.912,0,0,0,.233.43l.233.357,1.756-.018,1.756-.018.018-12.523.018-12.523h-2.864l-.019,10.122c-.015,8.013,0,10.146.07,10.235.119.151.123,1.021,0,.981a2.061,2.061,0,0,1-.463-.718c-.023-.069-.07-.125-.1-.125s-.063-.042-.063-.094a.475.475,0,0,0-.125-.233,1.916,1.916,0,0,1-.227-.336c-.056-.108-.128-.2-.161-.2s-.059-.042-.059-.094a.475.475,0,0,0-.125-.233,1.916,1.916,0,0,1-.227-.336c-.056-.108-.128-.2-.161-.2s-.059-.042-.059-.094a.475.475,0,0,0-.125-.233,1.915,1.915,0,0,1-.227-.336c-.056-.108-.128-.2-.161-.2s-.059-.042-.059-.094a.521.521,0,0,0-.143-.248.538.538,0,0,1-.143-.228.074.074,0,0,0-.072-.075c-.039,0-.072-.046-.072-.1a.141.141,0,0,0-.061-.125c-.033-.013-.587-.814-1.229-1.78s-1.2-1.766-1.229-1.779a.125.125,0,0,1-.061-.112.492.492,0,0,0-.125-.231,4.374,4.374,0,0,1-.445-.637c-.076-.118-.168-.249-.2-.291s-.527-.767-1.09-1.612-1.044-1.553-1.067-1.572a1.229,1.229,0,0,1-.144-.233c-.056-.108-.128-.2-.161-.2s-.059-.042-.059-.094a.475.475,0,0,0-.125-.233,1.917,1.917,0,0,1-.227-.336c-.056-.108-.128-.2-.161-.2s-.059-.042-.059-.094a.475.475,0,0,0-.125-.233,1.916,1.916,0,0,1-.227-.336c-.056-.108-.128-.2-.161-.2s-.059-.044-.059-.1a.3.3,0,0,0-.109-.189,1.2,1.2,0,0,1-.223-.331c-.063-.133-.143-.241-.178-.241a.07.07,0,0,1-.063-.075.487.487,0,0,0-.132-.216,1.8,1.8,0,0,1-.233-.338,1.229,1.229,0,0,0-.144-.232c-.023-.02-.375-.536-.782-1.147s-.758-1.127-.782-1.147a1.24,1.24,0,0,1-.144-.233c-.056-.108-.128-.2-.161-.2s-.059-.042-.059-.094a.475.475,0,0,0-.125-.233,1.917,1.917,0,0,1-.227-.336c-.056-.108-.128-.2-.161-.2s-.059-.04-.059-.09a.759.759,0,0,0-.488-.484.254.254,0,0,1-.193-.072.291.291,0,0,0-.215-.072.291.291,0,0,1-.215-.072.368.368,0,0,0-.255-.072c-.116,0-.211-.032-.211-.072s-.113-.072-.251-.072-.251-.032-.251-.072-.113-.072-.251-.072-.251-.032-.251-.072-.129-.072-.287-.072-.287-.032-.287-.072-.129-.072-.287-.072-.287-.032-.287-.072-.127-.072-.282-.072a.535.535,0,0,1-.327-.072.632.632,0,0,0-.363-.072c-.175,0-.318-.032-.318-.072s-.159-.072-.354-.072a.737.737,0,0,1-.4-.072.838.838,0,0,0-.43-.072.838.838,0,0,1-.43-.072,1.194,1.194,0,0,0-.527-.072,1.331,1.331,0,0,1-.565-.082,1.729,1.729,0,0,0-.736-.067,1.8,1.8,0,0,1-.757-.07,33.386,33.386,0,0,0-5.008-.014m1.957.9c.054.066.207.085.5.064.265-.019.441,0,.472.049a.435.435,0,0,0,.3.08c.136,0,.247.032.247.072s.065.072.144.072a.7.7,0,0,1,.269.064c.068.035.35.172.626.3a3.92,3.92,0,0,1,.64.366.474.474,0,0,0,.233.126c.052,0,.1.024.1.054a2.183,2.183,0,0,0,.415.373,4.939,4.939,0,0,1,.732.732,2.182,2.182,0,0,0,.373.415c.03,0,.054.045.054.1a.475.475,0,0,0,.125.233,4.659,4.659,0,0,1,.591,1.152c0,.054.032.1.072.1s.072.1.072.215.032.215.072.215.072.111.072.247a.434.434,0,0,0,.081.3c.052.032.068.194.044.452-.026.289-.008.428.063.5.134.125.114,12.959-.02,12.934-.058-.011-.071.108-.045.4.025.271.009.435-.043.468a.353.353,0,0,0-.081.256.359.359,0,0,1-.072.251.24.24,0,0,0-.072.184.675.675,0,0,1-.065.264c-.036.068-.149.3-.251.519a5.077,5.077,0,0,1-.475.86,3.5,3.5,0,0,0-.214.287,7.917,7.917,0,0,1-1.288,1.289,3.427,3.427,0,0,0-.287.213,5.078,5.078,0,0,1-.86.475c-.217.1-.45.215-.519.251a.675.675,0,0,1-.264.065.24.24,0,0,0-.184.072.359.359,0,0,1-.251.072.353.353,0,0,0-.256.081c-.032.052-.194.068-.452.044-.288-.026-.428-.008-.495.063-.131.14-1.151.139-1.2,0-.029-.076-.138-.091-.454-.062-.269.024-.433.009-.465-.043a.434.434,0,0,0-.3-.081c-.136,0-.247-.032-.247-.072s-.065-.072-.144-.072a.7.7,0,0,1-.269-.064c-.068-.035-.334-.165-.59-.288-.787-.379-1.4-.9-3.325-2.818-1.021-1.018-1.882-1.841-1.914-1.83s-.826.778-1.763,1.7-1.882,1.829-2.1,2.007a3.549,3.549,0,0,0-.418.376.129.129,0,0,1-.112.054.475.475,0,0,0-.227.125,4.66,4.66,0,0,1-1.152.591c-.054,0-.1.032-.1.072s-.1.072-.215.072-.215.032-.215.072-.111.072-.247.072a.434.434,0,0,0-.3.081c-.033.053-.2.067-.481.042-.318-.029-.458-.013-.533.063a.774.774,0,0,1-.756,0c-.075-.075-.214-.091-.533-.063-.282.026-.448.011-.481-.042a.424.424,0,0,0-.292-.081.437.437,0,0,1-.287-.072.24.24,0,0,0-.184-.072.675.675,0,0,1-.264-.065c-.068-.036-.3-.149-.519-.251a4.173,4.173,0,0,1-.96-.561.507.507,0,0,0-.208-.125,10.1,10.1,0,0,1-1.412-1.4.5.5,0,0,0-.126-.219,2.325,2.325,0,0,1-.222-.31c-.3-.523-.369-.664-.369-.759,0-.058-.032-.105-.072-.105s-.072-.081-.072-.179-.032-.179-.072-.179-.072-.095-.072-.211a.368.368,0,0,0-.072-.255.631.631,0,0,1-.072-.363c0-.175-.032-.318-.072-.318a10.388,10.388,0,0,1,0-2.436c.039,0,.072-.127.072-.282a.535.535,0,0,1,.072-.327.368.368,0,0,0,.072-.255c0-.116.032-.211.072-.211s.072-.081.072-.179.032-.179.072-.179.072-.064.072-.143.032-.143.072-.143.072-.064.072-.143.032-.143.072-.143a.075.075,0,0,0,.072-.077,4.367,4.367,0,0,1,.7-1.034c.468-.537,8.8-8.885,9.12-9.134a2.191,2.191,0,0,0,.34-.3.144.144,0,0,1,.125-.056c.056,0,.1-.032.1-.072s.048-.072.107-.072.107-.026.107-.058.113-.1.251-.157.251-.125.251-.157.065-.058.143-.058.143-.032.143-.072.081-.072.179-.072.179-.032.179-.072.079-.072.175-.072a.3.3,0,0,0,.219-.072.359.359,0,0,1,.251-.072.356.356,0,0,0,.254-.076.762.762,0,0,1,.435-.059.858.858,0,0,0,.473-.067,2.158,2.158,0,0,1,1.185,0,1.107,1.107,0,0,0,.552.068c.29-.009.469.014.469.06,0,.294.633.063.89-.324a8.231,8.231,0,0,1,1.962-2.037.5.5,0,0,0,.2-.126,3.918,3.918,0,0,1,.64-.366c.276-.132.558-.269.626-.3a.686.686,0,0,1,.264-.064.24.24,0,0,0,.184-.072.447.447,0,0,1,.291-.072c.136,0,.247-.036.247-.08s.142-.07.432-.049.456,0,.51-.063a1.325,1.325,0,0,1,.981,0m-1.222,1.966a.566.566,0,0,1-.348.09.512.512,0,0,0-.318.072.291.291,0,0,1-.215.072.291.291,0,0,0-.215.072.239.239,0,0,1-.183.072c-.076,0-.139.032-.139.072s-.064.072-.143.072-.143.032-.143.072a.083.083,0,0,1-.09.072,4.475,4.475,0,0,0-1.216,1.059,3.048,3.048,0,0,0-.479.766c.37.406,8.858,8.852,8.9,8.852s.055-.114.055-.253.04-.268.09-.287c.114-.044.094-6.841-.019-6.841-.039,0-.07-.129-.07-.287s-.032-.287-.072-.287-.072-.1-.072-.215-.032-.215-.072-.215-.072-.064-.072-.143-.032-.143-.072-.143-.072-.064-.072-.143-.032-.143-.072-.143a.084.084,0,0,1-.073-.09A4.654,4.654,0,0,0,77.8,127.37c-.148-.065-.269-.144-.269-.174s-.063-.055-.139-.055a.239.239,0,0,1-.183-.072.291.291,0,0,0-.215-.072.291.291,0,0,1-.215-.072.5.5,0,0,0-.312-.072.637.637,0,0,1-.344-.076,3.268,3.268,0,0,0-1.473-.014m1.52,1.021c0,.039.1.072.216.072a.922.922,0,0,1,.34.063c.068.035.221.106.339.159.712.317,1.756,1.332,1.756,1.708a.075.075,0,0,0,.072.077c.039,0,.072.081.072.179s.032.179.072.179.072.091.072.2a.488.488,0,0,0,.054.257c.059.059.076,5.2.017,5.2-.076,0-6.735-6.707-6.735-6.784,0-.192.731-.787,1.254-1.02.118-.053.271-.124.34-.159a.921.921,0,0,1,.34-.063c.119,0,.216-.032.216-.072a4.371,4.371,0,0,1,1.577,0m-9.782,2.436a.524.524,0,0,1-.322.072.523.523,0,0,0-.322.072.224.224,0,0,1-.173.072,3.845,3.845,0,0,0-1.069.52.137.137,0,0,1-.118.054,6.627,6.627,0,0,0-1.327,1.327.137.137,0,0,1-.054.118,2.191,2.191,0,0,0-.376.747c0,.055-.032.1-.072.1s-.072.1-.072.215-.032.215-.072.215-.072.155-.072.344a.837.837,0,0,1-.086.43,1.692,1.692,0,0,0-.011,1.1.638.638,0,0,1,.1.389.607.607,0,0,0,.072.354.24.24,0,0,1,.072.184c0,.147.041.248.244.6a2.335,2.335,0,0,1,.162.34c.022.069.068.125.1.125s.063.053.063.117c0,.15,9.243,9.392,9.674,9.673a4.921,4.921,0,0,0,.537.306c.118.053.271.124.34.159a.7.7,0,0,0,.264.063.24.24,0,0,1,.184.072.638.638,0,0,0,.365.072c.192,0,.334.036.355.09a1.979,1.979,0,0,0,1.211,0c.021-.054.163-.09.355-.09a.638.638,0,0,0,.365-.072.24.24,0,0,1,.184-.072.7.7,0,0,0,.264-.063c.068-.035.221-.106.339-.159a5.331,5.331,0,0,0,2.25-2.25c.053-.118.124-.271.159-.339a.7.7,0,0,0,.063-.264.24.24,0,0,1,.072-.184.414.414,0,0,0,.072-.277.554.554,0,0,1,.067-.3,4.763,4.763,0,0,0,.022-1.752c-.052,0-.09-.091-.09-.216a.914.914,0,0,0-.064-.34c-.035-.068-.14-.286-.233-.483a1.55,1.55,0,0,0-.223-.382.126.126,0,0,1-.054-.109c0-.3-9.641-9.936-9.942-9.936a.083.083,0,0,1-.091-.072c0-.039-.064-.072-.143-.072s-.143-.032-.143-.072-.063-.072-.139-.072a.239.239,0,0,1-.183-.072.3.3,0,0,0-.219-.072c-.1,0-.175-.032-.175-.072s-.143-.072-.318-.072a.632.632,0,0,1-.363-.072,3.62,3.62,0,0,0-1.433,0m1.577,1a.359.359,0,0,0,.251.072.359.359,0,0,1,.251.072.239.239,0,0,0,.183.072c.076,0,.139.032.139.072a.075.075,0,0,0,.077.072c.288,0,8.94,8.461,9.6,9.386a1.523,1.523,0,0,0,.3.356c.03,0,.054.068.054.147s.032.143.072.143.072.064.072.143.032.143.072.143.072.1.072.215.031.215.069.215a5.682,5.682,0,0,1,0,1.757.3.3,0,0,0-.069.218.787.787,0,0,1-.064.3c-.035.068-.139.286-.231.483a4.534,4.534,0,0,1-.672,1,4.1,4.1,0,0,1-1.374.826c-.052,0-.1.032-.1.072s-.129.072-.287.072-.287.032-.287.072-.287.072-.717.072-.717-.029-.717-.072-.129-.072-.287-.072-.287-.032-.287-.072-.045-.072-.1-.072a2.838,2.838,0,0,1-.937-.5c-.278-.227-8.836-8.783-9.069-9.068a3.38,3.38,0,0,1-.345-.573c-.093-.2-.2-.414-.233-.483a.9.9,0,0,1-.064-.336.37.37,0,0,0-.072-.256,3.27,3.27,0,0,1,0-1.362.447.447,0,0,0,.072-.291c0-.136.032-.247.072-.247s.072-.081.072-.179.032-.179.072-.179.072-.064.072-.143.024-.143.054-.143.095-.091.144-.2a4.356,4.356,0,0,1,1.851-1.518c.055,0,.1-.032.1-.072s.095-.072.211-.072a.368.368,0,0,0,.255-.072,5.194,5.194,0,0,1,1.72,0m-8.169,4.225c-.387.355-4.676,4.643-4.768,4.768a3.816,3.816,0,0,0-.714,1.22c0,.058-.032.105-.072.105s-.072.079-.072.175a.3.3,0,0,1-.072.219.54.54,0,0,0-.072.329c0,.162-.039.3-.09.319a3.048,3.048,0,0,0,.011,1.452c.043.015.079.169.079.343s.032.317.072.317.072.065.072.144a.706.706,0,0,0,.063.269c.035.068.106.221.159.339.337.757,1.734,2.186,2.137,2.186a.075.075,0,0,1,.077.072c0,.039.063.072.139.072a.239.239,0,0,1,.183.072.3.3,0,0,0,.219.072c.1,0,.175.032.175.072s.111.072.247.072a.435.435,0,0,1,.3.09c.041.064.315.09.953.09s.912-.026.953-.09a.435.435,0,0,1,.3-.09c.136,0,.247-.032.247-.072s.064-.072.141-.072a3.41,3.41,0,0,0,1.251-.716,38.014,38.014,0,0,0,3.623-3.674c0-.069.034-.125.073-.125.275,0-.087-.438-1.7-2.058a13.205,13.205,0,0,1-2.587-2.976c-.064-.148-.141-.269-.171-.269s-.055-.063-.055-.139a.239.239,0,0,0-.072-.183.239.239,0,0,1-.072-.183c0-.076-.032-.139-.072-.139s-.072-.1-.072-.215-.032-.215-.072-.215-.072-.111-.072-.247a.447.447,0,0,0-.072-.291.447.447,0,0,1-.072-.291c0-.136-.032-.247-.072-.247s-.072-.1-.072-.22c0-.362-.173-.487-.394-.284m-.179,1.867a.706.706,0,0,0,.063.269c.035.068.1.205.136.3a8.876,8.876,0,0,0,.736,1.433,3.479,3.479,0,0,1,.214.287,16.536,16.536,0,0,0,1.985,2.152,16.406,16.406,0,0,1,1.453,1.579,37.949,37.949,0,0,1-3.153,3.151,3.271,3.271,0,0,0-.287.209,2.539,2.539,0,0,1-.791.362.226.226,0,0,0-.173.065,7.535,7.535,0,0,1-1.944,0,.239.239,0,0,0-.179-.063A.662.662,0,0,1,57.41,147c-.068-.037-.229-.109-.357-.161s-.233-.118-.233-.148a.064.064,0,0,0-.07-.054,2.793,2.793,0,0,1-.938-.788c-.135-.177-.261-.339-.281-.358a2.965,2.965,0,0,1-.359-.759c0-.055-.032-.1-.072-.1s-.072-.111-.072-.247a.447.447,0,0,0-.072-.291,3.985,3.985,0,0,1,0-1.5.447.447,0,0,0,.072-.291c0-.136.032-.246.072-.246s.072-.081.072-.179.026-.179.058-.179.1-.113.157-.251.125-.251.157-.251.058-.048.058-.107.032-.108.072-.108a.078.078,0,0,0,.072-.083,48.2,48.2,0,0,1,3.744-3.715c.078,0,.125.054.125.144" transform="translate(-0.8 -0.958)" fill="#faa300" fill-rule="evenodd"/>
    <path id="path1" d="M73.469,122.672a9.89,9.89,0,0,0-1.75.441,7.251,7.251,0,0,0-1.61.867.5.5,0,0,1-.21.125.385.385,0,0,0-.183.129,2.682,2.682,0,0,1-.367.3,3.772,3.772,0,0,0-.79.757c-.058.083-.232.3-.386.484l-.28.334h-.541c-.519,0-.669.114-.189.145.789.05.83.033,1.254-.512a6.786,6.786,0,0,1,1.388-1.353c.186-.138.382-.291.437-.34a.344.344,0,0,1,.18-.09c.045,0,.061-.032.037-.072s.022-.072.1-.072.148-.032.148-.072.064-.072.143-.072.143-.032.143-.072.064-.072.143-.072.143-.032.143-.072.064-.072.143-.072.143-.032.143-.072.1-.072.215-.072.215-.032.215-.072.1-.072.215-.072.215-.032.215-.072.129-.072.287-.072.287-.032.287-.072.227-.072.537-.072.537-.03.537-.072.2-.072.461-.072a1.11,1.11,0,0,1,.506.072,7.674,7.674,0,0,0,1.563.067,6.7,6.7,0,0,0,1.375-.062c-.19-.076-4.148-.144-4.515-.077m5.021.207c-.053.086.2.11.875.082a.949.949,0,0,1,.484.072,1.225,1.225,0,0,0,.576.077c.3-.006.454.016.425.063s.1.073.358.073c.495,0,.461-.109-.052-.171-.208-.025-.6-.077-.879-.116a5.262,5.262,0,0,0-1.786-.079m3.184.429c0,.049.14.081.354.081a.737.737,0,0,1,.4.072.545.545,0,0,0,.331.072c.349,0,.309-.111-.061-.172-.69-.114-1.022-.131-1.022-.052m1.433.3c0,.039.127.072.282.072a.534.534,0,0,1,.327.072.481.481,0,0,0,.305.072c.311,0,.238-.087-.17-.2-.362-.1-.744-.109-.744-.012m17.342,10.063c0,6.142.026,10.153.066,10.178.112.069.124-.872.137-10.628.007-5.177.03-9.442.052-9.477a14.778,14.778,0,0,1,2.788.005c.044.071.055,4.6.044,17.685l-.006,7.4h-3.6l-.169-.183a.68.68,0,0,1-.169-.254.533.533,0,0,0-.141-.222c-.078-.083-.124-.179-.1-.212s-.013-.081-.074-.1a.174.174,0,0,1-.112-.143.091.091,0,0,0-.076-.1c-.042,0-.056-.032-.031-.072s-.006-.092-.068-.115a.174.174,0,0,1-.112-.143.422.422,0,0,0-.125-.226,1.312,1.312,0,0,1-.213-.322c-.049-.108-.121-.2-.161-.2s-.073-.064-.073-.143a.316.316,0,0,0-.143-.232.29.29,0,0,1-.143-.183.522.522,0,0,0-.143-.247.522.522,0,0,1-.143-.248.085.085,0,0,0-.072-.094c-.039,0-.072-.048-.072-.107a.475.475,0,0,0-.143-.251.493.493,0,0,1-.143-.215.425.425,0,0,0-.125-.2,1.423,1.423,0,0,1-.214-.3,2.723,2.723,0,0,0-.395-.6.492.492,0,0,1-.125-.237.085.085,0,0,0-.072-.094c-.039,0-.072-.048-.072-.107a.425.425,0,0,0-.125-.234,1.312,1.312,0,0,1-.213-.322c-.049-.108-.121-.2-.161-.2s-.073-.048-.073-.107a.43.43,0,0,0-.125-.235,1.633,1.633,0,0,1-.227-.322c-.056-.107-.128-.195-.161-.195s-.059-.064-.059-.143-.028-.143-.063-.143-.1-.1-.152-.215-.117-.215-.152-.215-.063-.048-.063-.107a.425.425,0,0,0-.125-.234,1.313,1.313,0,0,1-.213-.322c-.049-.108-.121-.2-.161-.2s-.073-.048-.073-.107a.476.476,0,0,0-.143-.251.476.476,0,0,1-.143-.235.33.33,0,0,0-.143-.195.344.344,0,0,1-.143-.231c0-.07-.032-.128-.072-.128s-.072-.048-.072-.108a.425.425,0,0,0-.125-.234,1.31,1.31,0,0,1-.213-.322c-.049-.108-.121-.2-.161-.2s-.073-.048-.073-.107a.425.425,0,0,0-.125-.234,1.525,1.525,0,0,1-.219-.3c-.249-.477-.321-.585-.414-.62-.056-.021-.085-.065-.065-.1s-.045-.154-.144-.272a.817.817,0,0,1-.18-.293.076.076,0,0,0-.072-.079c-.039,0-.072-.048-.072-.107a.425.425,0,0,0-.125-.234,1.311,1.311,0,0,1-.213-.322c-.049-.108-.121-.2-.161-.2s-.073-.048-.073-.107a.475.475,0,0,0-.143-.251.475.475,0,0,1-.143-.25.294.294,0,0,0-.143-.2.3.3,0,0,1-.143-.2c0-.119-.133-.284-.229-.284-.032,0-.057.048-.057.107s.032.107.072.107.072.043.072.1a.421.421,0,0,0,.143.226.444.444,0,0,1,.143.194,2.639,2.639,0,0,0,.287.487,2.391,2.391,0,0,1,.287.5.069.069,0,0,0,.059.076c.033,0,.105.089.161.2a1.319,1.319,0,0,0,.142.233,3.875,3.875,0,0,1,.5.783.075.075,0,0,0,.072.077c.039,0,.072.043.072.1a.421.421,0,0,0,.143.226.424.424,0,0,1,.143.213.493.493,0,0,0,.125.225,2.2,2.2,0,0,1,.215.3l.179.315a2.194,2.194,0,0,0,.215.3.519.519,0,0,1,.125.2.566.566,0,0,0,.143.215.521.521,0,0,1,.143.248.085.085,0,0,0,.072.094.085.085,0,0,1,.072.094.491.491,0,0,0,.125.236,2.2,2.2,0,0,1,.215.3l.179.315a2.2,2.2,0,0,0,.215.3.519.519,0,0,1,.125.2.566.566,0,0,0,.143.215.522.522,0,0,1,.143.248.085.085,0,0,0,.072.094.085.085,0,0,1,.072.094.521.521,0,0,0,.143.248.656.656,0,0,1,.143.2,3.52,3.52,0,0,0,.287.465,2.392,2.392,0,0,1,.287.5.069.069,0,0,0,.059.076c.033,0,.105.089.161.2a1.914,1.914,0,0,0,.227.336.475.475,0,0,1,.125.233.085.085,0,0,0,.072.094.085.085,0,0,1,.072.094.521.521,0,0,0,.143.248.649.649,0,0,1,.143.2,3.53,3.53,0,0,0,.515.738c.032.013.058.086.058.161s.027.137.059.137.105.089.161.2a1.917,1.917,0,0,0,.227.336.475.475,0,0,1,.125.233.085.085,0,0,0,.072.094.085.085,0,0,1,.072.094.491.491,0,0,0,.125.236,2.2,2.2,0,0,1,.215.3l.179.315a2.2,2.2,0,0,0,.215.3.519.519,0,0,1,.125.2.567.567,0,0,0,.143.215.521.521,0,0,1,.143.248.085.085,0,0,0,.072.094.085.085,0,0,1,.072.094.471.471,0,0,0,.129.233,1.022,1.022,0,0,1,.177.264c.044.115.208.125,2.021.125h1.973l-.018-12.738-.018-12.738-1.63-.019-1.63-.019v10.137m-16.124-9.776c0,.039.113.072.251.072s.251.032.251.072.1.072.215.072.215-.032.215-.072-.095-.072-.211-.072a.368.368,0,0,1-.255-.072.368.368,0,0,0-.255-.072c-.116,0-.211.032-.211.072m-11.036.143c0,.086.551.086.752,0,.1-.044.012-.063-.3-.067-.254,0-.448.026-.448.067m1.792,0a2.335,2.335,0,0,0,.515.064.7.7,0,0,1,.381.079.359.359,0,0,0,.251.072.359.359,0,0,1,.251.072.291.291,0,0,0,.215.072.291.291,0,0,1,.215.072.239.239,0,0,0,.183.072c.077,0,.139.032.139.072s.049.072.108.072a1.059,1.059,0,0,1,.465.215,1.634,1.634,0,0,0,.233.137c.108.056.2.128.2.161s.05.059.111.059a8.552,8.552,0,0,1,1.608,1.611c0,.06.027.109.059.109s.105.089.161.2a1.635,1.635,0,0,0,.137.233,1.059,1.059,0,0,1,.215.465c0,.06.032.108.072.108s.072.065.072.143.032.143.072.143.072-.063.072-.139a.239.239,0,0,0-.072-.183.239.239,0,0,1-.072-.183c0-.077-.032-.139-.072-.139s-.072-.065-.072-.143-.032-.143-.072-.143-.072-.048-.072-.107a.454.454,0,0,0-.136-.244.836.836,0,0,1-.18-.274,8.959,8.959,0,0,0-1.644-1.6c-.065,0-.118-.032-.118-.071s-.153-.142-.34-.229a1.329,1.329,0,0,1-.364-.215c-.013-.032-.084-.057-.157-.057a.23.23,0,0,1-.177-.072.3.3,0,0,0-.219-.072c-.1,0-.175-.032-.175-.072s-.1-.072-.215-.072-.215-.032-.215-.072-.111-.072-.247-.072a.447.447,0,0,1-.291-.072,1.161,1.161,0,0,0-.524-.065c-.349.005-.431.023-.3.065m-2.365.143c0,.039-.1.072-.215.072s-.215.032-.215.072.079.072.175.072a.3.3,0,0,0,.219-.072.359.359,0,0,1,.251-.072.359.359,0,0,0,.251-.072c.026-.043-.059-.072-.211-.072s-.255.032-.255.072m12.648,0c-.026.043.059.072.211.072s.255.032.255.072.113.072.251.072.251.032.251.072.1.072.215.072.215.032.215.072.057.072.127.072a1.026,1.026,0,0,1,.518.509.071.071,0,0,0,.076.064c.042,0,.056.032.031.072s.006.092.068.115.112.076.112.117a3.692,3.692,0,0,0,.6.91.3.3,0,0,1,.112.176.331.331,0,0,0,.143.186.338.338,0,0,1,.143.22.425.425,0,0,0,.143.246.421.421,0,0,1,.143.226.29.29,0,0,0,.143.185.3.3,0,0,1,.143.2.425.425,0,0,0,.143.245.421.421,0,0,1,.143.222.3.3,0,0,0,.126.186.852.852,0,0,1,.214.291c.048.108.12.2.16.2a.086.086,0,0,1,.073.094.474.474,0,0,0,.126.233,1.512,1.512,0,0,1,.213.336c.048.108.121.2.161.2s.073.048.073.107a.425.425,0,0,0,.125.234,1.312,1.312,0,0,1,.213.322c.049.108.121.2.161.2s.073.048.073.107a.425.425,0,0,0,.125.234,1.312,1.312,0,0,1,.213.322c.049.108.121.2.161.2s.073.046.073.1a.845.845,0,0,0,.215.338.939.939,0,0,1,.215.311c0,.042.064.122.143.179a.338.338,0,0,1,.143.22.426.426,0,0,0,.143.246.421.421,0,0,1,.143.226c0,.053.028.1.063.1s.117.112.181.249a.948.948,0,0,0,.207.3.692.692,0,0,1,.175.253c.047.108.119.2.16.2s.073.063.073.139a.334.334,0,0,0,.126.233.852.852,0,0,1,.214.291c.048.108.12.2.16.2s.073.048.073.107a.425.425,0,0,0,.125.234,1.313,1.313,0,0,1,.213.322c.049.108.121.2.161.2a.084.084,0,0,1,.075.09,2.9,2.9,0,0,0,.552.837c.087.094.145.193.128.221s.049.125.146.217a.575.575,0,0,1,.177.245c0,.044.064.126.143.183a.338.338,0,0,1,.143.22.426.426,0,0,0,.143.246.425.425,0,0,1,.143.21.332.332,0,0,0,.143.184.344.344,0,0,1,.143.23.3.3,0,0,0,.143.216c.079.049.143.124.143.166a.479.479,0,0,0,.126.216,1.512,1.512,0,0,1,.213.336c.048.108.121.2.161.2s.073.048.073.107a.425.425,0,0,0,.125.234,1.312,1.312,0,0,1,.213.322c.049.108.121.2.161.2s.073.048.073.107a.425.425,0,0,0,.125.234,1.312,1.312,0,0,1,.213.322c.049.108.121.2.161.2s.073.048.073.107a.43.43,0,0,0,.125.235,1.622,1.622,0,0,1,.226.321,1.864,1.864,0,0,0,.215.32,2.45,2.45,0,0,1,.257.4.872.872,0,0,0,.233.312.156.156,0,0,1,.09.135.422.422,0,0,0,.125.226,1.312,1.312,0,0,1,.213.322c.049.108.121.2.161.2s.073.064.073.143.03.143.067.143.077.07.09.156a.243.243,0,0,0,.117.187c.165.054.014-.483-.195-.691a1.854,1.854,0,0,1-.289-.386c-.055-.108-.127-.2-.16-.2s-.059-.064-.059-.143-.027-.143-.059-.143-.105-.089-.161-.2a1.341,1.341,0,0,0-.227-.313.39.39,0,0,1-.126-.233c0-.064-.027-.117-.06-.117s-.105-.089-.161-.2a1.915,1.915,0,0,0-.227-.336.475.475,0,0,1-.125-.233c0-.052-.027-.094-.059-.094s-.105-.089-.161-.2a1.3,1.3,0,0,0-.143-.233c-.023-.02-.182-.245-.353-.5s-.33-.482-.353-.5a1.3,1.3,0,0,1-.143-.233c-.056-.108-.128-.2-.161-.2s-.059-.042-.059-.094a.475.475,0,0,0-.125-.233,1.916,1.916,0,0,1-.227-.336c-.056-.108-.128-.2-.161-.2s-.059-.042-.059-.094a.475.475,0,0,0-.125-.233,1.918,1.918,0,0,1-.227-.336c-.056-.108-.128-.2-.161-.2s-.059-.04-.06-.09a.971.971,0,0,0-.215-.34.972.972,0,0,1-.215-.34c0-.049-.027-.09-.06-.09s-.105-.089-.161-.2a1.917,1.917,0,0,0-.227-.336.475.475,0,0,1-.125-.233c0-.052-.025-.094-.055-.094a.871.871,0,0,1-.232-.287.871.871,0,0,0-.232-.287c-.03,0-.055-.042-.055-.094a.522.522,0,0,0-.143-.248.649.649,0,0,1-.143-.2,5.392,5.392,0,0,0-.5-.75,1.321,1.321,0,0,1-.142-.233c-.056-.108-.128-.2-.161-.2s-.059-.04-.06-.09a.972.972,0,0,0-.215-.34.972.972,0,0,1-.215-.34.083.083,0,0,0-.072-.09.083.083,0,0,1-.072-.09.972.972,0,0,0-.215-.34.971.971,0,0,1-.215-.34c0-.049-.027-.09-.06-.09s-.105-.089-.161-.2a1.916,1.916,0,0,0-.227-.336.475.475,0,0,1-.125-.233c0-.052-.027-.094-.059-.094s-.105-.089-.161-.2a1.343,1.343,0,0,0-.227-.313.386.386,0,0,1-.126-.227.154.154,0,0,0-.059-.135,3.138,3.138,0,0,1-.371-.49c-.172-.256-.331-.482-.353-.5a1.3,1.3,0,0,1-.143-.233c-.056-.108-.128-.2-.161-.2s-.059-.042-.059-.094a.475.475,0,0,0-.125-.233,1.918,1.918,0,0,1-.227-.336c-.056-.108-.128-.2-.161-.2s-.059-.042-.059-.094a.475.475,0,0,0-.125-.233,1.918,1.918,0,0,1-.227-.336c-.056-.108-.128-.2-.161-.2s-.059-.04-.06-.09a.972.972,0,0,0-.215-.34,1,1,0,0,1-.215-.334.122.122,0,0,0-.058-.108,2.857,2.857,0,0,1-.515-.771.07.07,0,0,0-.059-.077c-.033,0-.105-.089-.161-.2a1.915,1.915,0,0,0-.227-.336.5.5,0,0,1-.125-.2,1.355,1.355,0,0,0-.567-.559,2.116,2.116,0,0,1-.7-.236.385.385,0,0,0-.212-.049.278.278,0,0,1-.207-.072.475.475,0,0,0-.5,0m-13.472.287a.239.239,0,0,1-.183.072c-.076,0-.139.026-.139.058s-.113.1-.251.157-.251.126-.251.161-.032.042-.072.018-.092.006-.115.068a.177.177,0,0,1-.147.112,8.468,8.468,0,0,0-1.646,1.625c-.023.091-.071.166-.107.166s-.1.089-.153.2a1.271,1.271,0,0,1-.186.3c-.123.129-.941.2-.941.084,0-.052-.182-.08-.514-.08-.633,0-.6.048.09.152.958.143,1.273.155,1.375.052a4.887,4.887,0,0,0,.553-.814,11.947,11.947,0,0,1,1.6-1.539.147.147,0,0,0,.127-.056,1.32,1.32,0,0,1,.59-.374c.063,0,.114-.032.114-.072s.065-.072.143-.072.143-.032.143-.072.064-.072.143-.072.143-.032.143-.072-.063-.072-.139-.072a.239.239,0,0,0-.183.072m1.707,1.173c-.46.1-.561.189-.218.189a.475.475,0,0,0,.3-.072,5.635,5.635,0,0,1,1.792,0,.481.481,0,0,0,.305.072c.366,0,.21-.107-.3-.2a5.666,5.666,0,0,0-1.882.016m-1.205.357a1.239,1.239,0,0,0-.31.209.11.11,0,0,1-.095.054,3.793,3.793,0,0,0-1.348,1.147,2.923,2.923,0,0,1-.218.287,1.971,1.971,0,0,0-.358.563c0,.042,2.044,2.125,4.542,4.629,4.928,4.941,4.918,4.932,4.918,4.231,0-.368-.108-.43-.18-.1-.068.308.245.6-4.65-4.3-4.84-4.838-4.6-4.553-4.181-4.866a.309.309,0,0,0,.125-.2c0-.057.032-.1.072-.1a.09.09,0,0,0,.078-.09c.005-.077.182-.241.98-.914a4.414,4.414,0,0,1,1.173-.573c.073,0,.133-.032.133-.072,0-.121-.378-.068-.681.1m3.691-.1c0,.039.06.072.133.072a4.7,4.7,0,0,1,1.167.561,7.924,7.924,0,0,1,1.5,1.65c.055.124.124.226.154.226s.054.065.054.143.032.143.072.143.072.081.072.179.032.179.072.179c.162,0-.114-.835-.3-.92-.03-.013-.054-.086-.054-.161s-.025-.137-.056-.137-.111-.093-.178-.207a4.658,4.658,0,0,0-1.682-1.447c-.128-.056-.233-.125-.233-.155s-.063-.054-.139-.054a.239.239,0,0,1-.183-.072.3.3,0,0,0-.219-.072c-.1,0-.175.032-.175.072m-10.122.194a1.014,1.014,0,0,0,.322,0c.089-.017.016-.031-.161-.031s-.25.014-.161.031m-1.738.2a8.1,8.1,0,0,0-.851.277,1.493,1.493,0,0,1-.376.122c-.054,0-.1.032-.1.072s-.065.072-.143.072-.143.028-.143.063-.056.081-.125.1a2.66,2.66,0,0,0-.691.425.489.489,0,0,1-.23.125.128.128,0,0,0-.112.056,2.188,2.188,0,0,1-.34.3c-.487.383-8.891,8.818-9.386,9.421a5.016,5.016,0,0,0-.352.484c-.064.108-.142.2-.173.2s-.056.064-.056.143-.028.143-.063.143-.081.056-.1.125a2.339,2.339,0,0,1-.163.34c-.2.343-.244.457-.244.572,0,.06-.032.108-.072.108s-.072.081-.072.179.032.179.072.179.072-.081.072-.179.032-.179.072-.179.072-.081.072-.179.032-.179.072-.179.072-.064.072-.143.032-.143.072-.143.072-.065.072-.143.033-.143.073-.143.113-.088.161-.2a1.526,1.526,0,0,1,.2-.318c.059-.067.236-.293.394-.5.4-.531,8.91-9.1,9.4-9.468.117-.088.289-.232.383-.32a.649.649,0,0,1,.232-.161.554.554,0,0,0,.212-.141c.083-.078.179-.124.212-.1s.081-.013.1-.074a.2.2,0,0,1,.179-.112c.075,0,.136-.024.136-.054,0-.064.348-.233.48-.233a.085.085,0,0,0,.093-.072c0-.039.081-.072.179-.072s.179-.032.179-.072.1-.072.215-.072.215-.032.215-.072.129-.072.287-.072.287-.035.287-.077.128-.072.3-.065c.518.02.7,0,.7-.073,0-.121-.789-.063-1.4.1m9.871.523c-.385.07-.109.162.484.162s.954-.13.412-.153c-.128-.005-.346-.016-.484-.024a2.2,2.2,0,0,0-.412.015m-.735.234c0,.039-.081.072-.179.072s-.179.032-.179.072.079.072.175.072a.3.3,0,0,0,.219-.072.3.3,0,0,1,.219-.072c.1,0,.175-.032.175-.072s-.1-.072-.215-.072-.215.032-.215.072m2.007,0c0,.039.081.072.18.072a.883.883,0,0,1,.34.083c.088.046.217.11.286.143a3.64,3.64,0,0,1,1.331,1.1,3.81,3.81,0,0,1,.648,1.29,43.24,43.24,0,0,1,.063,4.694c-.076,0-6.287-6.233-6.287-6.309,0-.034.121-.152.269-.262s.285-.217.3-.237a1.585,1.585,0,0,1,.233-.138c.215-.111.26-.221.09-.221-.059,0-.107.032-.107.072s-.05.072-.111.072a.541.541,0,0,0-.274.161,3.962,3.962,0,0,1-.355.3c-.356.264-.341.282,3.1,3.727l3.3,3.3.011-2.365c.013-2.632.012-2.641-.085-2.675-.038-.013-.07-.134-.07-.269s-.032-.245-.072-.245-.072-.081-.072-.179-.025-.179-.055-.179-.111-.131-.181-.291a4,4,0,0,0-1.277-1.286c-.075,0-.136-.032-.136-.072s-.064-.072-.143-.072-.143-.032-.143-.072-.081-.072-.179-.072-.179-.032-.179-.072-.1-.072-.215-.072-.215.032-.215.072m-10.534.43c0,.039-.113.072-.251.072s-.251.032-.251.072c0,.091.247.092.532,0a5.64,5.64,0,0,1,.686-.133l.466-.065-.591-.01c-.353-.006-.591.019-.591.062m-.932.287c0,.039-.081.072-.179.072s-.179.032-.179.072-.064.072-.143.072-.143.032-.143.072-.064.072-.143.072-.143.032-.143.072-.048.072-.107.072a.453.453,0,0,0-.244.136.849.849,0,0,1-.28.182c-.079.025-1.783,1.692-3.787,3.7s-4.151,4.161-4.772,4.777a12.074,12.074,0,0,0-1.175,1.266.7.7,0,0,1-.18.263.384.384,0,0,0-.133.233c0,.064-.026.117-.058.117a1.593,1.593,0,0,0-.372.688c0,.055-.032.1-.072.1s-.072.081-.072.179-.032.179-.072.179-.072.1-.072.219.03.2.072.175a.194.194,0,0,0,.072-.151,1.486,1.486,0,0,1,.143-.4,1.536,1.536,0,0,0,.143-.391.085.085,0,0,1,.072-.094c.039,0,.072-.051.072-.114a1.321,1.321,0,0,1,.374-.59.141.141,0,0,0,.056-.122c0-.137,9.562-9.709,9.974-9.985a1.745,1.745,0,0,1,.406-.224.11.11,0,0,0,.095-.054,2.191,2.191,0,0,1,.747-.376c.055,0,.1-.032.1-.072s.063-.072.139-.072a.239.239,0,0,0,.183-.072c.025-.041-.035-.072-.139-.072s-.183.032-.183.072m16.912.752c0,.1.032.179.072.179s.072-.081.072-.179-.032-.179-.072-.179-.072.081-.072.179m.2.22a.534.534,0,0,0,.018.5.724.724,0,0,1,.072.394.724.724,0,0,0,.072.394c.044.027.072-.107.072-.354,0-.219-.03-.4-.068-.4s-.077-.132-.09-.293-.046-.269-.076-.239m5.928.262a.639.639,0,0,0,0,.273c.018.1.035.483.039.857,0,.468.028.647.076.573a2.25,2.25,0,0,0,.071-.676v-.569l.143.154a.661.661,0,0,1,.143.2,8.679,8.679,0,0,0,.8,1.17.146.146,0,0,1,.059.128.519.519,0,0,0,.143.258.522.522,0,0,1,.143.248.085.085,0,0,0,.072.094.074.074,0,0,1,.072.075,9.454,9.454,0,0,0,.783,1.215.934.934,0,0,1,.12.179c.352.644.531.837.531.573,0-.059-.032-.107-.072-.107a.085.085,0,0,1-.072-.094.522.522,0,0,0-.143-.248.566.566,0,0,1-.143-.215.5.5,0,0,0-.126-.2,1.511,1.511,0,0,1-.213-.336c-.048-.108-.121-.2-.161-.2s-.073-.05-.073-.111a.52.52,0,0,0-.143-.264.522.522,0,0,1-.143-.248.085.085,0,0,0-.072-.094c-.039,0-.072-.048-.072-.107a.425.425,0,0,0-.125-.234,1.312,1.312,0,0,1-.213-.322c-.049-.108-.121-.2-.161-.2s-.073-.048-.073-.107a.425.425,0,0,0-.125-.234,1.311,1.311,0,0,1-.213-.322c-.049-.108-.121-.2-.161-.2s-.073-.064-.073-.143-.028-.143-.063-.143-.1-.1-.152-.215-.117-.215-.152-.215-.063-.046-.063-.1c0-.143-.136-.214-.181-.1m-21.353.056c-.028.046.228.072.717.072s.745-.026.717-.072a3.619,3.619,0,0,0-1.433,0m-.681.143c0,.039.113.072.251.072s.251-.032.251-.072-.113-.072-.251-.072-.251.032-.251.072m2.293,0c0,.039.129.072.287.072s.287.032.287.072.079.072.175.072a.3.3,0,0,1,.219.072.239.239,0,0,0,.183.072c.076,0,.139.024.139.054s.1.1.226.154c.334.148.128-.051,5.175,5,4.961,4.961,4.834,4.83,4.97,5.133.049.108.121.2.161.2s.073.064.073.143.032.143.072.143.072.081.072.179.032.179.072.179.072.113.072.251.032.251.072.251c.089,0,.094-.317.008-.485-.035-.068-.14-.286-.233-.483a1.549,1.549,0,0,0-.223-.382.152.152,0,0,1-.054-.129.809.809,0,0,0-.215-.335,1.069,1.069,0,0,1-.215-.283c0-.094-9.008-9.061-9.239-9.2-.121-.072-.221-.156-.221-.187s-.064-.056-.143-.056-.143-.024-.143-.054-.1-.1-.233-.149c-.493-.2-.6-.245-.716-.307-.17-.086-.628-.08-.628.008m12.182.179c0,.138.035.251.079.251s.072.149.061.412c-.052,1.175.01,6.544.075,6.5.107-.066.1-6.376-.012-6.961-.091-.495-.2-.608-.2-.205m-14.906-.036c0,.039.081.072.179.072s.179-.032.179-.072-.081-.072-.179-.072-.179.032-.179.072m-.386.13a1.578,1.578,0,0,1-.35.22,5.128,5.128,0,0,0-1.414,1.21,4.563,4.563,0,0,0-.717,1.277c0,.056-.032.1-.072.1s-.072.095-.072.211a.368.368,0,0,1-.072.255.609.609,0,0,0,0,.573c.044.027.072-.083.072-.282,0-.18.032-.327.072-.327s.072-.1.072-.215.032-.215.072-.215.072-.077.072-.171a.235.235,0,0,1,.106-.212.113.113,0,0,0,.064-.151c-.023-.061-.006-.11.039-.11s.119-.084.166-.186a3.344,3.344,0,0,1,.725-.876c.5-.475.589-.549.785-.638.107-.049.194-.121.194-.161s.064-.073.143-.073.143-.032.143-.072.064-.072.143-.072.143-.032.143-.072c0-.086-.263-.1-.314-.013m2.052.786a1.361,1.361,0,0,0-.591.09c0,.038-.113.069-.251.069s-.251.032-.251.072-.081.072-.179.072-.179.028-.179.063-.056.082-.125.106a3.437,3.437,0,0,0-1.379,1.172.476.476,0,0,1-.143.235.5.5,0,0,0-.143.287c0,.079-.032.143-.072.143s-.072.064-.072.143.032.143.072.143.072-.064.072-.143.032-.143.072-.143.072-.065.072-.143.027-.143.059-.143.1-.089.16-.2a4.447,4.447,0,0,1,1.113-1.093c.055,0,.1-.032.1-.072s.065-.072.143-.072.143-.032.143-.072.064-.072.143-.072.143-.029.143-.064a4.237,4.237,0,0,1,2.078-.143,3.391,3.391,0,0,1,1.429.75c1.019.914,7.818,7.651,8.038,7.966.055.078.35.409.655.734a3.438,3.438,0,0,1,.555.691c0,.054.032.1.072.1s.072.059.072.131a.308.308,0,0,0,.049.181,3.553,3.553,0,0,1,.021,2.519c-.209.52-.254.609-.3.609-.03,0-.054.052-.054.116a2.47,2.47,0,0,1-.52.629,3.623,3.623,0,0,1-2.671,1.119c-.42,0-.626.135-.236.156a1.981,1.981,0,0,0,.906-.091c.013-.036.15-.065.3-.065s.281-.032.281-.072.1-.072.215-.072.215-.032.215-.072.064-.072.143-.072.143-.032.143-.072.052-.072.115-.072a4.458,4.458,0,0,0,1.221-1.2c.023-.091.07-.165.105-.165s.064-.064.064-.143.032-.143.072-.143.072-.1.072-.215.032-.215.072-.215.072-.113.072-.251.032-.251.072-.251a4.372,4.372,0,0,0,0-1.577c-.039,0-.072-.073-.072-.163,0-.606-.616-1.316-4.548-5.25-3.969-3.97-5.252-5.193-5.448-5.193-.059,0-.108-.032-.108-.072s-.048-.072-.107-.072-.107-.032-.107-.072-.081-.072-.179-.072-.179-.032-.179-.072-.113-.072-.251-.072-.251-.028-.251-.063c0-.093-.248-.119-.914-.1m20.682,2.113c-.016.363-.012,1.113.008,1.664.05,1.344.145.638.145-1.081,0-1.261-.105-1.662-.153-.583m-5.58,5.212c0,3.434.024,5.16.073,5.16s.072-1.724.07-5.16c0-3.3-.028-5.16-.073-5.16s-.07,1.858-.07,5.16m-18.632-4.367c0,.176.028.273.072.246a.447.447,0,0,0,.072-.291c0-.136-.032-.247-.072-.247s-.072.131-.072.291m-1.39.324a2.8,2.8,0,0,0,.028,1.033q.058.179.065-.484c.007-.661-.01-.764-.093-.549m1.246.527c0,.289.031.506.072.506s.072-.2.072-.462a1.109,1.109,0,0,0-.072-.506c-.045-.028-.072.143-.072.462m-3.583.214c-.481.416-4.872,4.79-4.876,4.856a1.262,1.262,0,0,1-.215.305.948.948,0,0,0-.212.34.084.084,0,0,1-.072.092c-.039,0-.072.065-.072.143s-.032.143-.072.143-.072.079-.072.175a.3.3,0,0,1-.072.219.239.239,0,0,0-.072.183c0,.076.032.139.072.139s.072-.081.072-.179.032-.179.072-.179a.085.085,0,0,0,.072-.093c0-.132.169-.479.233-.48.03,0,.054-.065.054-.144s.031-.143.07-.143.118-.094.177-.208a1.419,1.419,0,0,1,.209-.3c.056-.053,1.181-1.17,2.5-2.483,2.222-2.209,2.415-2.383,2.594-2.338s.191.031.169-.121c-.037-.256-.2-.234-.562.075m.573.4c0,.155.029.241.072.215a.358.358,0,0,0,0-.43c-.043-.026-.072.06-.072.215m3.153.282c0,.14.032.255.072.255s.072-.095.072-.211a.368.368,0,0,0-.072-.255c-.043-.026-.072.059-.072.211m-1.29.183c0,.158.032.287.072.287s.072-.129.072-.287-.032-.287-.072-.287-.072.129-.072.287m-1.72.031c0,.14.033.255.074.255s.066.119.056.264.017.275.069.293.087.123.087.238.032.209.072.209.072.081.072.179.032.179.072.179.072.065.072.143.032.143.072.143.072.064.072.143.032.143.072.143.072.048.072.107a.476.476,0,0,0,.143.251.505.505,0,0,1,.143.208c0,.116.374.522,2.078,2.256.926.942,1.74,1.773,1.809,1.846a.481.481,0,0,1,.125.276c0,.079.032.143.072.143.134,0,.073-.364-.09-.534-.089-.093-.871-.89-1.738-1.77a17.391,17.391,0,0,1-2.114-2.271.513.513,0,0,0-.126-.195,3.917,3.917,0,0,1-.366-.64c-.132-.276-.269-.558-.3-.626a.686.686,0,0,1-.064-.264.24.24,0,0,0-.072-.184.359.359,0,0,1-.072-.251.359.359,0,0,0-.072-.251.359.359,0,0,1-.072-.251.359.359,0,0,0-.072-.251c-.043-.026-.072.059-.072.211m3.153.251a.239.239,0,0,0,.072.183.239.239,0,0,1,.072.183c0,.076.032.139.072.139s.072.048.072.107.032.107.072.107.072-.064.072-.143-.032-.143-.072-.143-.072-.065-.072-.143-.032-.143-.072-.143-.072-.064-.072-.143-.032-.143-.072-.143-.072.063-.072.139m-1.29.255c0,.1.032.179.072.179s.072-.081.072-.179-.032-.179-.072-.179-.072.081-.072.179m25.211.624a7.87,7.87,0,0,0,.091,2.1,15.836,15.836,0,0,0,0-2.718c-.035-.021-.077.257-.094.618m-25.067-.268a2.344,2.344,0,0,0,.369.756,3.674,3.674,0,0,0,.276.382c.616.747,8.462,8.593,9.219,9.219a5.126,5.126,0,0,0,1.279.718c.079.029.233.089.344.133.248.1.7.106.7.009,0-.039-.145-.072-.322-.072s-.322-.032-.322-.072-.1-.072-.215-.072-.215-.032-.215-.072-.064-.072-.143-.072-.143-.032-.143-.072-.061-.072-.136-.072a.2.2,0,0,1-.177-.108c-.023-.059-.068-.1-.1-.09-.135.043-.766-.561-4.994-4.783-4.545-4.538-4.743-4.744-4.895-5.076-.048-.105-.12-.191-.16-.191s-.073-.064-.073-.143-.032-.143-.072-.143-.072-.064-.072-.143-.032-.143-.072-.143-.072.047-.072.105m1.549.168c-.055.088,9.291,9.4,9.434,9.4.068,0,.124.032.124.072s.065.072.143.072.143.032.143.072.081.072.179.072.179.032.179.072.153.071.34.071c.246,0,.311-.02.233-.071a.6.6,0,0,0-.27-.071.727.727,0,0,1-.287-.068c-.068-.037-.229-.109-.357-.161s-.233-.118-.233-.148-.05-.054-.111-.054-2.208-2.1-4.771-4.658-4.672-4.658-4.686-4.658-.042.026-.062.058m-6.117,1.628c-.858.849-1.672,1.7-1.81,1.881s-.307.4-.376.477a.475.475,0,0,0-.125.233.085.085,0,0,1-.072.094c-.039,0-.072.064-.072.143s-.032.143-.072.143-.072.081-.072.179-.032.179-.072.179-.072.129-.072.287-.029.287-.064.287c-.1,0-.166.6-.112.967.078.518.175.372.175-.264a3.356,3.356,0,0,1,.438-1.743,2.143,2.143,0,0,1,.282-.466,2.149,2.149,0,0,0,.235-.287c.067-.1.837-.9,1.711-1.772,1.573-1.577,1.779-1.731,1.779-1.336a.61.61,0,0,0,.063.224c.061.121.105.223.307.716.052.128.119.233.149.233s.054.042.054.094a.521.521,0,0,0,.143.248.566.566,0,0,1,.143.215.5.5,0,0,0,.127.2,4.907,4.907,0,0,1,.3.39c.1.138.848.92,1.668,1.737l1.491,1.487-1.3,1.291c-.715.71-1.418,1.379-1.562,1.487a3.449,3.449,0,0,0-.379.322.39.39,0,0,1-.233.126c-.064,0-.117.032-.117.072s-.064.072-.143.072-.143.029-.143.064q0,.146-1.182.2a3.131,3.131,0,0,1-2.059-.5,5.827,5.827,0,0,1-1.2-1.232c0-.061-.024-.112-.054-.112s-.1-.1-.148-.233-.124-.289-.161-.357a.662.662,0,0,1-.067-.264.24.24,0,0,0-.072-.184c-.042-.026-.072.046-.072.171a.377.377,0,0,0,.072.259.3.3,0,0,1,.072.219c0,.1.032.175.072.175s.072.065.072.143.029.143.064.143.082.074.1.164a4.561,4.561,0,0,0,1.225,1.2c.061,0,.111.032.111.072s.064.072.143.072.143.032.143.072.065.072.143.072.143.032.143.072.11.072.245.072.257.036.271.08a4.8,4.8,0,0,0,1.693-.011c.013-.038.116-.069.229-.069a.356.356,0,0,0,.249-.072.239.239,0,0,1,.183-.072c.076,0,.139-.032.139-.072s.048-.072.107-.072a.424.424,0,0,0,.234-.125,6.19,6.19,0,0,1,.484-.39c.2-.145.938-.846,1.646-1.558l1.289-1.294-1.647-1.672a13.829,13.829,0,0,1-2.107-2.3c-.056-.1-.128-.189-.161-.189s-.059-.064-.059-.143-.024-.144-.054-.144c-.064,0-.233-.348-.233-.48a.085.085,0,0,0-.072-.093c-.039,0-.072-.064-.072-.143s-.032-.143-.072-.143-.072-.081-.072-.179-.032-.179-.072-.179-.072-.1-.072-.215c0-.343-.061-.3-1.7,1.328m29.49,2.309a12.31,12.31,0,0,0,.092,2.49,22.109,22.109,0,0,0,0-3.117,1.674,1.674,0,0,0-.1.627m-36.3.11c-.107.458-.113.768-.016.768.039,0,.072-.143.072-.318a.632.632,0,0,1,.072-.363c.084-.052.1-.466.016-.466a.839.839,0,0,0-.143.378m1.2.655c0,.174-.034.328-.074.341a6.914,6.914,0,0,0-.009,2.121c.048.016.083.177.083.38s.032.352.072.352.072.1.072.215.032.215.072.215c.088,0,.1-.335.01-.388a10.665,10.665,0,0,1-.121-3.249c.041-.214.035-.3-.022-.3s-.081.129-.081.317m1.624.09a.545.545,0,0,0,.024.49c.043.027.072-.071.072-.246,0-.3-.012-.327-.1-.243M50,142.308a4,4,0,0,0,.064,1,3.6,3.6,0,0,0,.115-1.5c-.084-.833-.179-.565-.179.5m29.519-.735c-.03,1.165,0,1.719.077,1.594a3.647,3.647,0,0,0,.07-.9c0-.761-.129-1.376-.147-.7m-26.6.137a4.251,4.251,0,0,0,.024,1.385c.047.073.07-.139.071-.663,0-.769,0-.812-.094-.723m11.693.951c-.013.037-.362.417-.776.845s-.919.954-1.122,1.169a22.217,22.217,0,0,1-1.935,1.773c-.131.09-.239.195-.239.233s-.065.069-.143.069-.143.032-.143.072-.064.072-.143.072-.143.032-.143.072-.081.072-.179.072-.179.032-.179.072-.113.072-.251.072-.251.032-.251.072.1.072.216.072a.96.96,0,0,0,.358-.072l.285-.143a.694.694,0,0,1,.251-.072c.06,0,.108-.032.108-.072a.07.07,0,0,1,.068-.072,32.264,32.264,0,0,0,4.375-4.185c0-.123-.116-.159-.155-.048m21.957.506c0,.138.015.194.033.125a.592.592,0,0,0,0-.251c-.018-.069-.033-.013-.033.125m-5.409-.03a.837.837,0,0,0-.054.361.6.6,0,0,1-.072.351.368.368,0,0,0-.072.255c0,.116.032.211.072.211s.072-.11.072-.245.034-.256.076-.27.067-.171.054-.371-.047-.321-.076-.291m-28.091.143c-.078.079-.066.352.027.583.044.11.1.265.133.344a6.564,6.564,0,0,0,.578,1.111,3.491,3.491,0,0,1,.214.287,2.54,2.54,0,0,0,.715.716,4.761,4.761,0,0,1,.39.3.473.473,0,0,0,.233.127c.052,0,.094.024.094.054s.1.1.233.148.289.124.357.161a.672.672,0,0,0,.269.067c.079,0,.144.032.144.072s.113.072.251.072.251-.032.251-.072-.113-.072-.251-.072-.251-.032-.251-.072-.1-.072-.215-.072-.215-.026-.215-.058-.113-.1-.251-.157-.251-.125-.251-.157-.044-.058-.1-.058c-.121,0-.444-.268-.953-.788-.583-.6-.74-.787-.74-.9,0-.057-.032-.1-.072-.1s-.072-.065-.072-.143-.032-.143-.072-.143-.072-.064-.072-.143-.032-.143-.072-.143-.072-.1-.072-.215-.03-.215-.068-.215-.077-.132-.09-.293-.046-.269-.076-.239m26.318.241c0,.16-.032.291-.072.291s-.072.1-.072.215-.032.215-.072.215-.072.064-.072.143-.032.143-.072.143-.072.064-.072.143-.032.143-.072.143-.072.045-.072.1a.828.828,0,0,1-.215.33.97.97,0,0,0-.22.312,1.368,1.368,0,0,1-.361.369c-.2.158-.45.375-.566.484a.721.721,0,0,1-.32.2c-.06,0-.11.024-.11.054,0,.064-.348.233-.48.233a.085.085,0,0,0-.093.072c0,.039-.1.072-.215.072s-.215.032-.215.072-.145.072-.322.072-.322.032-.322.072c0,.15.872.012,1.05-.166a.4.4,0,0,1,.216-.049c.092,0,.167-.029.167-.063s.056-.081.125-.1a2.694,2.694,0,0,0,.591-.339,3.5,3.5,0,0,1,.287-.214,2.794,2.794,0,0,0,.858-.93,3.159,3.159,0,0,1,.373-.49.143.143,0,0,0,.059-.126c0-.1.031-.177.2-.512a.8.8,0,0,0,.083-.3.24.24,0,0,1,.072-.184.475.475,0,0,0,0-.5c-.043-.027-.072.071-.072.247m-14.3,1.1a30.291,30.291,0,0,1-3.357,3.136.332.332,0,0,0-.184.143.34.34,0,0,1-.225.143c-.067,0-.132.024-.145.054a2.191,2.191,0,0,1-.747.376c-.055,0-.1.032-.1.072s-.091.072-.2.072a.494.494,0,0,0-.254.051,2.75,2.75,0,0,1-.989.232.5.5,0,0,0-.309.075c-.027.044.107.072.354.072.219,0,.4-.032.4-.072s.129-.072.287-.072.287-.032.287-.072.1-.072.215-.072.215-.032.215-.072.081-.072.179-.072.179-.032.179-.072.064-.072.143-.072.143-.032.143-.072.065-.072.143-.072.143-.032.143-.072.048-.072.107-.072a.444.444,0,0,0,.238-.125,1.986,1.986,0,0,1,.317-.233,38.577,38.577,0,0,0,3.112-2.912c.638-.645,1.175-1.173,1.194-1.173a22.372,22.372,0,0,1,2.455,2.293,24.659,24.659,0,0,0,2.06,1.9c.144.068.262.153.262.188s.064.063.143.063.143.032.143.072.064.072.143.072.143.032.143.072.064.072.143.072.143.032.143.072.063.072.139.072a.239.239,0,0,1,.183.072.3.3,0,0,0,.219.072c.1,0,.175.032.175.072s.129.072.287.072.287.032.287.072.163.072.363.072c.223,0,.345-.027.318-.072a.619.619,0,0,0-.358-.072.619.619,0,0,1-.358-.072.37.37,0,0,0-.256-.072.907.907,0,0,1-.336-.063c-.068-.035-.205-.095-.3-.133q-.244-.095-1.014-.5a1.088,1.088,0,0,1-.278-.2.284.284,0,0,0-.148-.106,17.208,17.208,0,0,1-2.348-2.186c-.92-.907-1.745-1.717-1.833-1.8-.346-.33-.368-.318-1.516.851m21.313-.5a9.223,9.223,0,0,0,.092,2.193,15.757,15.757,0,0,0,0-2.784,1.463,1.463,0,0,0-.092.591m-36.248-.256a2.64,2.64,0,0,0,.219.919c.031.079.1.3.149.484s.118.34.149.34.056.045.056.1a2.978,2.978,0,0,0,.358.759,1.635,1.635,0,0,1,.137.233c.056.108.128.2.161.2s.059.048.059.107a12.386,12.386,0,0,0,1.694,1.756,1.077,1.077,0,0,1,.315.212,1.007,1.007,0,0,0,.338.215.086.086,0,0,1,.09.075c0,.039.056.072.125.073a.665.665,0,0,1,.3.142.665.665,0,0,0,.3.142c.069,0,.125.034.125.073s.063.072.139.072a.239.239,0,0,1,.183.072.291.291,0,0,0,.215.072.291.291,0,0,1,.215.072.291.291,0,0,0,.215.072.291.291,0,0,1,.215.072.5.5,0,0,0,.312.072.7.7,0,0,1,.336.063,2.533,2.533,0,0,0,.677.111c.553.044.6.038.466-.06a1.271,1.271,0,0,0-.663-.111c-.3,0-.52-.033-.52-.074s-.145-.072-.322-.072-.322-.032-.322-.072-.1-.072-.215-.072-.215-.032-.215-.072-.081-.072-.179-.072-.179-.032-.179-.072-.081-.072-.179-.072-.179-.032-.179-.072-.064-.072-.143-.072-.143-.026-.143-.058-.113-.1-.251-.157-.251-.125-.251-.157-.065-.058-.143-.058-.143-.032-.143-.071-.126-.15-.281-.248a12.475,12.475,0,0,1-1.8-1.788.331.331,0,0,0-.143-.186.344.344,0,0,1-.143-.231c0-.07-.026-.128-.058-.128s-.1-.113-.157-.251-.125-.251-.157-.251-.058-.064-.058-.143-.032-.143-.072-.143-.072-.081-.072-.179-.032-.179-.072-.179-.072-.1-.072-.215-.032-.215-.072-.215-.072-.113-.072-.251-.032-.251-.072-.251-.072-.161-.072-.358-.032-.358-.072-.358-.072.119-.072.264m30.712.632a5.49,5.49,0,0,1-.328.752c-.09.177-.2.395-.243.483s-.1.161-.133.161-.054.041-.055.09a6.612,6.612,0,0,1-1.916,1.916c-.049,0-.09.025-.09.055s-.073.089-.161.133-.306.153-.483.243-.387.189-.466.219l-.287.11c-.133.051-.131.057.034.085.1.016.189-.005.2-.049s.1-.079.2-.079.173-.032.173-.072.065-.072.143-.072.143-.032.143-.072.064-.072.143-.072.143-.032.143-.072.064-.072.143-.072.143-.032.143-.072.045-.072.1-.072a.828.828,0,0,0,.33-.215,1.687,1.687,0,0,1,.258-.215,3.748,3.748,0,0,0,.886-.85c.1-.131.25-.317.34-.414a.6.6,0,0,0,.164-.28c0-.057.032-.1.072-.1s.072-.065.072-.143.032-.143.072-.143.072-.065.072-.143.024-.143.054-.143.1-.1.149-.233.128-.3.168-.385a.513.513,0,0,0,.041-.287c-.03-.128-.034-.128-.085.008m-29.135.287c0,.1.032.179.072.179s.072.064.072.143.032.143.072.143.072.064.072.143.032.143.072.143.072.064.072.143.032.143.072.143.072.048.072.107a.476.476,0,0,0,.143.251.486.486,0,0,1,.143.221,8.589,8.589,0,0,0,1.356,1.356.486.486,0,0,1,.221.143.475.475,0,0,0,.251.143c.059,0,.107.032.107.072s.065.072.143.072.144.024.144.054c0,.064.348.233.48.233a.085.085,0,0,1,.093.072c0,.039.081.072.179.072s.179.032.179.072.094.072.209.072.221.035.235.077.137.065.275.051l.249-.027-.215-.055a1.853,1.853,0,0,1-.339-.122.6.6,0,0,0-.234-.067.622.622,0,0,1-.234-.064c-.068-.035-.286-.139-.483-.23a5.51,5.51,0,0,1-1.142-.724.49.49,0,0,0-.2-.128,6.312,6.312,0,0,1-1.126-1.172.33.33,0,0,0-.143-.19.344.344,0,0,1-.143-.231c0-.07-.027-.128-.06-.128a.886.886,0,0,1-.223-.34c-.089-.187-.191-.4-.226-.465a.62.62,0,0,1-.064-.233c0-.06-.032-.108-.072-.108s-.072.081-.072.179M64.643,146.8c-1.8,1.762-2.162,2.1-2.295,2.1-.051,0-.094.029-.094.065s-.1.1-.215.14-.215.109-.215.15-.064.075-.143.075-.143.032-.143.072-.064.072-.143.072-.143.032-.143.072-.065.072-.143.072-.143.032-.143.072-.081.072-.179.072-.179.032-.179.072-.1.072-.215.072-.215.032-.215.072c0,.089.245.094.413.008.068-.035.221-.1.339-.152s.271-.117.339-.152a.625.625,0,0,1,.233-.063c.06,0,.108-.028.108-.063s.056-.081.125-.1a2.662,2.662,0,0,0,.691-.425.5.5,0,0,1,.21-.125.385.385,0,0,0,.183-.129,2.661,2.661,0,0,1,.36-.3c.134-.094.886-.811,1.669-1.594l1.425-1.424,1.484,1.491c.816.82,1.6,1.57,1.735,1.666a2.7,2.7,0,0,1,.367.3.379.379,0,0,0,.217.129.332.332,0,0,1,.2.143.344.344,0,0,0,.231.143c.07,0,.128.024.128.054,0,.064.348.233.48.233a.085.085,0,0,1,.093.072c0,.039.049.072.108.072a.748.748,0,0,1,.269.083c.344.178.414.2.549.2a.24.24,0,0,1,.184.072.378.378,0,0,0,.26.072.906.906,0,0,1,.336.062c.245.126,1.271.158,1.094.034a1.2,1.2,0,0,0-.618-.105c-.255,0-.463-.028-.463-.066s-.129-.069-.287-.069-.287-.032-.287-.072-.113-.072-.251-.072-.251-.032-.251-.072-.063-.072-.139-.072a.239.239,0,0,1-.183-.072.23.23,0,0,0-.177-.072c-.073,0-.144-.024-.157-.054a1.624,1.624,0,0,0-.381-.233,2.517,2.517,0,0,1-.484-.3.437.437,0,0,0-.19-.125c-.111,0-.505-.364-2.191-2.024-.91-.9-1.671-1.63-1.689-1.63s-.749.7-1.623,1.559m-6.852.5c-.474.012-.757.047-.73.09a7.144,7.144,0,0,0,1.929.005c.056-.09-.3-.118-1.2-.095m16.288.087a1.844,1.844,0,0,0,1,0c.074-.048-.082-.07-.5-.07s-.576.022-.5.07m12.174.555c-.013.746-.065.91-.3.936-.108.012-.2.053-.2.089a1.367,1.367,0,0,1-.589.06c-.369,0-.6.023-.615.072s-.256.079-.629.079c-.354,0-.6.03-.6.072,0,.091.605.092,1.174,0,.241-.038.769-.108,1.173-.155l.735-.086v-.777c0-.85-.137-1.115-.152-.293m-10.2.878c-.026.043.059.072.211.072s.255-.032.255-.072-.095-.072-.211-.072a.368.368,0,0,0-.255.072m-19.313.143c0,.039.179.072.4.072.247,0,.381-.027.354-.072a.737.737,0,0,0-.4-.072c-.195,0-.354.032-.354.072m18.524,0c-.027.044.095.072.318.072.2,0,.363-.032.363-.072s-.143-.072-.318-.072a.631.631,0,0,0-.363.072m7.041.338c-.108.016-.2.062-.2.1s-.177.067-.412.061c-.728-.019-.843-.007-.755.081s.291.072,1.56-.049c.628-.06.926-.163.491-.17a2.575,2.575,0,0,1-.394-.029.97.97,0,0,0-.293,0m-2.436.293c-.108.012-.2.053-.2.09a1.455,1.455,0,0,1-.609.067c-.4,0-.609.027-.609.081s.163.067.555.034a8.868,8.868,0,0,0,1.629-.2c.054-.054-.487-.107-.769-.074m-2.634.371c0,.041-.215.072-.5.072s-.5.031-.5.069-.211.067-.469.065a1.494,1.494,0,0,0-.555.067.753.753,0,0,1-.23.109c-.079.022.147.021.5,0a3.192,3.192,0,0,0,.717-.094,5.831,5.831,0,0,1,1.415-.189c.6-.056.635-.169.054-.169-.239,0-.43.032-.43.072m-17.7.143c0,.041-.222.072-.524.072a1.354,1.354,0,0,0-.663.1c-.159.118.894.08,1.128-.041a.907.907,0,0,1,.336-.062.378.378,0,0,0,.26-.072c.027-.043-.071-.072-.247-.072-.16,0-.291.032-.291.072" transform="translate(0 0)" fill="#fff" fill-rule="evenodd"/>
    <path id="path2" d="M74.735,122.875c0,.037-.2.08-.448.094s.568.024,1.809.023,1.678-.012.969-.024a7.435,7.435,0,0,1-1.358-.091,1.777,1.777,0,0,0-.973,0m-1.075.147c0,.039-.129.072-.287.072s-.287.032-.287.072-.1.072-.215.072-.215.032-.215.072-.1.072-.215.072-.215.032-.215.072-.065.072-.143.072-.143.032-.143.072-.064.072-.143.072-.143.032-.143.072-.064.072-.143.072-.143.032-.143.072-.066.072-.148.072-.128.032-.1.072.008.072-.037.072a.344.344,0,0,0-.18.09c-.055.049-.254.2-.443.34a8.55,8.55,0,0,0-1.361,1.335,4.672,4.672,0,0,0,.673-.6,4.8,4.8,0,0,1,1.379-1.09c.042,0,.077-.024.077-.054s.073-.089.161-.133l.483-.242.447-.226a.709.709,0,0,1,.269-.063c.079,0,.144-.032.144-.072s.09-.072.2-.072a.479.479,0,0,0,.269-.066.689.689,0,0,1,.313-.09c.218-.021.422-.2.226-.2a.075.075,0,0,0-.078.072m5.088.036c.063.075.21.1.492.1.309-.009.34-.019.133-.04-.149-.015-.252-.058-.229-.1s-.076-.067-.222-.067c-.226,0-.251.015-.175.107m1.5.143a.48.48,0,0,0,.349.1c.152,0,.2-.023.117-.043a.558.558,0,0,1-.211-.1c-.126-.12-.357-.081-.254.043m.824.088a.657.657,0,0,1,.283.1,1.033,1.033,0,0,0,.444.066.806.806,0,0,1,.42.072.737.737,0,0,0,.4.072c.195,0,.354.032.354.072s.143.072.318.072a.632.632,0,0,1,.363.072.535.535,0,0,0,.327.072c.155,0,.282.032.282.072s.129.072.287.072.287.032.287.072.129.072.287.072.287.032.287.072.113.072.251.072.251.032.251.072.113.072.251.072.251.032.251.072.095.072.211.072a.368.368,0,0,1,.255.072.291.291,0,0,0,.215.072.291.291,0,0,1,.215.072.3.3,0,0,0,.219.072c.1,0,.175.032.175.072a.077.077,0,0,0,.08.072c.056,0,.053-.033-.009-.107a.333.333,0,0,0-.224-.107c-.074,0-.135-.032-.135-.072s-.1-.072-.215-.072-.215-.032-.215-.072-.113-.072-.251-.072-.251-.032-.251-.072-.115-.072-.255-.072-.237-.029-.211-.072-.071-.072-.247-.072c-.16,0-.291-.032-.291-.072s-.113-.072-.251-.072-.251-.032-.251-.072-.127-.072-.282-.072a.535.535,0,0,1-.327-.072.535.535,0,0,0-.327-.072c-.155,0-.282-.032-.282-.072s-.143-.072-.318-.072a.631.631,0,0,1-.363-.072.738.738,0,0,0-.4-.072c-.195,0-.354-.032-.354-.072s-.193-.072-.434-.072c-.271,0-.417-.027-.39-.072s-.086-.068-.3-.061c-.241.008-.28.02-.13.041m20.979.575c.384.013,1.013.013,1.4,0s.07-.023-.7-.023-1.083.011-.7.023m-27.321.126c-.078.094-.015.107.5.107s.58-.013.5-.107c-.06-.073-.223-.107-.5-.107s-.441.035-.5.107m-.932.107c0,.039-.111.072-.247.072a.447.447,0,0,0-.291.072.24.24,0,0,1-.184.072.675.675,0,0,0-.264.066c-.068.036-.357.173-.642.3-.3.141-.518.283-.518.346s.019.079.052.03a.883.883,0,0,1,.286-.179c.128-.056.233-.126.233-.156s.063-.054.139-.054a.239.239,0,0,0,.183-.072.3.3,0,0,1,.219-.072c.1,0,.175-.032.175-.072s.1-.072.215-.072.215-.032.215-.072.129-.072.287-.072.287-.03.287-.068.137-.08.3-.095c.291-.026.288-.028-.072-.04-.211-.007-.376.019-.376.059m2.4-.019a.837.837,0,0,1,.355.1.57.57,0,0,0,.3.067c.13,0,.236.032.236.072s.1.072.215.072.215.032.215.072.079.072.175.072a.3.3,0,0,1,.219.072.239.239,0,0,0,.183.072c.076,0,.139.028.139.063s.056.083.125.106.2.075.287.114c.42.183.094-.062-.36-.271-.285-.131-.574-.269-.642-.3a.686.686,0,0,0-.269-.066c-.079,0-.144-.032-.144-.072s-.111-.072-.247-.072a.447.447,0,0,1-.291-.072.767.767,0,0,0-.416-.06c-.337.011-.345.015-.085.041m-4.8,1.044a1.406,1.406,0,0,0-.179.121c-.02.02-.218.189-.441.376a6.585,6.585,0,0,0-.714.717c-.214.261-.075.152.454-.358a5.094,5.094,0,0,1,.867-.735.173.173,0,0,0,.146-.107c.048-.125.052-.124-.133-.014m7.535.016c.036.095.312.2.311.116,0-.026-.078-.083-.173-.127-.135-.063-.165-.06-.138.011m9.01.146c.044.095.128.17.188.168s.079-.016.018-.041a.153.153,0,0,1-.09-.13.156.156,0,0,0-.1-.131c-.079-.03-.083,0-.018.135m-7.983.7c.374.38.69.691.7.691a5.233,5.233,0,0,0-.986-1.069c-.322-.255-.269-.184.283.378m8.27-.271c.044.095.1.173.127.173.082,0-.021-.275-.116-.311-.071-.027-.074,0-.011.138m15.975.425c0,.236.014.325.03.2a1.913,1.913,0,0,0,0-.43c-.016-.108-.029,0-.029.234m-29.869-.251a.535.535,0,0,1-.327.072c-.155,0-.282.032-.282.072s-.056.072-.124.072a3.581,3.581,0,0,0-1.121.546c-.024.059.013.059.14,0,.095-.044.173-.1.173-.134s.065-.054.144-.054.143-.032.143-.072.063-.072.139-.072a.239.239,0,0,0,.183-.072.291.291,0,0,1,.215-.072.291.291,0,0,0,.215-.072.513.513,0,0,1,.318-.072.542.542,0,0,0,.363-.107c.073-.088.069-.108-.023-.108a.2.2,0,0,0-.156.072m.665-.019a3.577,3.577,0,0,0,.573,0c.147-.015.009-.028-.307-.028s-.435.013-.267.028m.948.055a.542.542,0,0,0,.363.107.512.512,0,0,1,.318.072.291.291,0,0,0,.215.072.291.291,0,0,1,.215.072.23.23,0,0,0,.177.072c.073,0,.144.024.157.054.04.091.626.37.59.281a3.516,3.516,0,0,0-1.123-.549c-.068,0-.124-.032-.124-.072s-.127-.072-.282-.072a.535.535,0,0,1-.327-.072.2.2,0,0,0-.156-.072c-.091,0-.1.02-.023.108m-7.119.251a.536.536,0,0,1-.49.225c-.195.006-.243.022-.13.042a.59.59,0,0,1,.247.1c.115.111.168.077.4-.257.254-.369.241-.424-.025-.108m19.685-.037c.046.1.108.179.139.179.066,0-.063-.26-.157-.318-.035-.022-.027.04.018.139m-22.24.175c0,.037-.089.08-.2.1a4.127,4.127,0,0,0,.878.03,3.64,3.64,0,0,0,.86-.031.657.657,0,0,1-.283-.1,3.063,3.063,0,0,0-1.258,0m-1,.148c0,.039-.129.072-.287.072s-.287.032-.287.072-.1.072-.215.072-.215.032-.215.072-.081.072-.179.072-.179.032-.179.072a.085.085,0,0,1-.093.072c-.132,0-.479.169-.48.233,0,.03-.062.054-.136.054a.194.194,0,0,0-.174.1c-.025.065.1.026.358-.107a2.109,2.109,0,0,1,.5-.209c.055,0,.1-.032.1-.072s.081-.072.179-.072.179-.032.179-.072.095-.072.211-.072a.368.368,0,0,0,.255-.072.535.535,0,0,1,.327-.072c.155,0,.282-.03.282-.067s.1-.08.233-.1c.2-.025.192-.03-.072-.04-.168-.006-.3.021-.3.06m23.513.069a1.859,1.859,0,0,0,.171.256c.039.044.394.569.788,1.166a11.066,11.066,0,0,0,.768,1.087c.088,0-.036-.245-.172-.343a.3.3,0,0,1-.13-.186.421.421,0,0,0-.143-.222.425.425,0,0,1-.143-.245.3.3,0,0,0-.143-.2.29.29,0,0,1-.143-.185.421.421,0,0,0-.143-.226.426.426,0,0,1-.143-.246.338.338,0,0,0-.143-.22c-.079-.057-.143-.139-.143-.183a.609.609,0,0,0-.189-.253l-.188-.174.1.176m-19.371.628a1.626,1.626,0,0,0-.236.437c.046.046.209-.149.3-.364.048-.108.116-.2.152-.2s.082-.064.1-.143c.065-.249-.048-.155-.322.267m2.463-.041a2.017,2.017,0,0,0-.436.472.09.09,0,0,1-.078.09c-.039,0-.072.047-.072.1a.309.309,0,0,1-.125.2c-.125.094-.338.419-.289.44.014.006,1.621,1.591,3.57,3.522L78,135.455l-3.506-3.524-3.506-3.524.194-.293a4.405,4.405,0,0,1,1.007-1.135c.114-.088.19-.179.167-.2a1.524,1.524,0,0,0-.47.341M78.1,126.8c0,.032.092.113.2.18a3.21,3.21,0,0,1,.784.813c.042.074.1.112.126.085s-.156-.264-.407-.526c-.447-.466-.708-.669-.708-.551m2.629.085a.274.274,0,0,0,.127.173c.071.027.074,0,.011-.138-.1-.207-.189-.231-.138-.035m-6.284.077c0,.039-.1.072-.216.072a.921.921,0,0,0-.34.063c-.068.035-.221.106-.339.159-.523.233-1.254.827-1.254,1.02,0,.088,6.665,6.784,6.753,6.784.03,0,.052-.056.049-.125,0-.088-.017-.1-.045-.027-.055.139-6.614-6.426-6.614-6.62a.459.459,0,0,1,.192-.287,3.958,3.958,0,0,0,.355-.3.541.541,0,0,1,.274-.161c.061,0,.111-.032.111-.072s.065-.072.143-.072.143-.032.143-.072.081-.072.179-.072.179-.032.179-.072.129-.072.287-.072.287-.03.287-.067.073-.081.161-.1c.117-.022.1-.034-.072-.041-.128-.005-.233.023-.233.062m1.165-.02c.148.016.269.058.269.1s.129.067.287.067.287.032.287.072.081.072.179.072.179.032.179.072.064.072.143.072.143.032.143.072.061.072.136.072a4,4,0,0,1,1.277,1.286c.069.16.15.291.181.291s.055.081.055.179.032.179.072.179.072.113.072.251.03.251.066.251.081.056.1.125c.025.1.035.09.041-.032a.251.251,0,0,0-.063-.2.368.368,0,0,1-.072-.255c0-.116-.032-.211-.072-.211s-.072-.081-.072-.179-.032-.179-.072-.179a.075.075,0,0,1-.072-.077c0-.375-1.044-1.391-1.756-1.708-.118-.053-.271-.124-.339-.159a.921.921,0,0,0-.34-.063c-.119,0-.216-.032-.216-.072s-.153-.066-.34-.06c-.312.011-.318.015-.072.04m5.408.378c.021.079.066.143.1.143s.063.065.063.143.032.143.072.143.072.063.072.139a.239.239,0,0,0,.072.183.3.3,0,0,1,.072.219c0,.1.032.175.072.175s.072.1.072.219.03.2.072.175.072.071.072.246c0,.16.03.291.068.291s.08.137.095.3l.027.3.013-.336a.656.656,0,0,0-.059-.38.447.447,0,0,1-.072-.291c0-.136-.032-.247-.072-.247s-.072-.1-.072-.215-.032-.215-.072-.215a.081.081,0,0,1-.072-.088,4.415,4.415,0,0,0-.513-1.057c-.026,0-.03.063-.01.142m-14.741.108c-.078.094,0,.107.65.107.665,0,.725-.011.6-.105a1.816,1.816,0,0,0-1.25,0m-3.567.107a.566.566,0,0,1-.215.143.649.649,0,0,0-.232.161c-.094.089-.266.233-.383.32-.281.21-1.386,1.306-5.6,5.553-3.586,3.612-4.281,4.357-4.068,4.357.033,0,.121-.1.2-.23s2.041-2.148,4.369-4.493S61.092,129,61.191,128.9a10.8,10.8,0,0,1,1.344-1.132,1.374,1.374,0,0,0,.376-.315c0-.089-.027-.078-.2.082m2.671,0a.359.359,0,0,1-.251.072.359.359,0,0,0-.251.072.3.3,0,0,1-.219.072c-.1,0-.175.032-.175.072s-.081.072-.179.072-.179.032-.179.072-.064.072-.143.072-.143.026-.143.058-.113.1-.251.157c-.267.105-.347.227-.107.164.079-.021.143-.066.143-.1s.064-.063.143-.063.143-.032.143-.072.064-.072.143-.072.143-.032.143-.072.081-.072.179-.072.179-.032.179-.072.1-.072.215-.072.215-.032.215-.072.113-.072.251-.072.251-.03.251-.068.153-.08.34-.095l.34-.027-.372-.013a.765.765,0,0,0-.416.059m2.634-.019c.187.015.34.057.34.095s.169.062.376.055c.36-.012.363-.014.072-.04-.168-.015-.3-.058-.3-.095s-.185-.062-.412-.055c-.408.013-.408.013-.072.04m11.332.633c.044.095.1.173.134.173s.054.065.054.144.032.143.072.143.072.064.072.143.032.143.072.143.072.1.072.215.032.215.072.215.072.129.072.287.03.287.067.287.08.121.1.269c.026.246.029.24.04-.072.007-.187-.02-.34-.06-.34s-.072-.129-.072-.287-.032-.287-.072-.287-.072-.081-.072-.179-.032-.179-.072-.179-.072-.064-.072-.143-.026-.143-.058-.143-.1-.112-.156-.248a.611.611,0,0,0-.183-.281c-.065-.025-.067.008-.006.14m-16.223.389c0,.039-.048.072-.107.072s-.107.029-.107.065c0,.1.271.006.315-.108.021-.055.007-.1-.031-.1a.071.071,0,0,0-.069.072m-.6.452c-.31.254-8.689,8.661-9.085,9.115a4.367,4.367,0,0,0-.7,1.034.075.075,0,0,1-.072.077c-.039,0-.072.064-.072.143s-.032.143-.072.143-.072.064-.072.143-.032.143-.072.143-.072.081-.072.179-.032.179-.072.179-.072.095-.072.211a.368.368,0,0,1-.072.255.535.535,0,0,0-.072.327c0,.155-.032.282-.072.282s-.066.137-.06.3c.01.264.015.274.04.072.016-.128.059-.233.1-.233s.067-.145.067-.322.032-.322.072-.322.072-.113.072-.251.032-.251.072-.251.072-.081.072-.179.032-.179.072-.179.072-.045.072-.1a1.593,1.593,0,0,1,.372-.688c.032,0,.058-.053.058-.117a.384.384,0,0,1,.133-.233.7.7,0,0,0,.18-.263,12.067,12.067,0,0,1,1.175-1.266c1.906-1.891,8.422-8.44,8.393-8.436a2.956,2.956,0,0,0-.307.233m25.039.018c0,.061.034.09.076.064s.094.02.116.1.064.15.094.15.095.1.144.215.117.215.152.215.063.048.063.107a.476.476,0,0,0,.143.251.475.475,0,0,1,.143.243.17.17,0,0,0,.107.141c.162.062.142.02-.322-.671a7.3,7.3,0,0,1-.43-.683.538.538,0,0,0-.246-.248c-.023,0-.041.05-.041.112m3.01.148a1.89,1.89,0,0,0,.374.516A.144.144,0,0,1,91,129.8c0,.056.031.1.069.1.092,0,.006-.216-.155-.39a.472.472,0,0,1-.129-.225.162.162,0,0,0-.107-.128c-.059-.023-.107-.023-.107,0m-24.508.17c0,.039-.129.072-.287.072s-.287.032-.287.072-.1.072-.215.072-.215.032-.215.072-.064.072-.143.072-.143.032-.143.072-.061.072-.136.072a.2.2,0,0,0-.177.108c-.054.142-.053.142.42-.108a2,2,0,0,1,.541-.215.228.228,0,0,0,.176-.072.523.523,0,0,1,.322-.072.524.524,0,0,0,.322-.072,3.618,3.618,0,0,1,1.433,0,.632.632,0,0,0,.363.072c.175,0,.318.032.318.072s.079.072.175.072a.3.3,0,0,1,.219.072.239.239,0,0,0,.183.072c.076,0,.139.032.139.072s.065.072.143.072.144.024.144.054.078.09.173.134c.132.061.165.06.14-.006a.612.612,0,0,0-.281-.183c-.136-.053-.248-.123-.248-.156s-.063-.058-.139-.058a.239.239,0,0,1-.183-.072.3.3,0,0,0-.219-.072c-.1,0-.175-.032-.175-.072s-.129-.072-.287-.072-.287-.032-.287-.072a5.636,5.636,0,0,0-1.792,0m21.521.645c0,.256.013.361.029.233a2.274,2.274,0,0,0,0-.466c-.016-.128-.029-.023-.029.233m3.677.213a1.087,1.087,0,0,0,.207.29.3.3,0,0,1,.106.187c0,.054.031.1.069.1.094,0,.007-.21-.153-.371a.435.435,0,0,1-.131-.231.162.162,0,0,0-.1-.138c-.084-.032-.084-.007,0,.164m-27.048-.092c-.373.15-1.612,1.528-1.373,1.528.038,0,.069-.045.069-.1a6.3,6.3,0,0,1,1.333-1.333c.055,0,.1-.032.1-.072s-.008-.069-.018-.066l-.112.043m5.578.146a1.382,1.382,0,0,0,.324.307c.358.28,8.47,8.4,8.832,8.844.126.154.252.258.28.231.051-.051-9.085-9.242-9.313-9.368-.069-.038-.124-.044-.123-.013M81.9,131.37a4.393,4.393,0,0,0,.07,1.182c.045,0,.071,1.86.073,5.16,0,3.654-.02,5.16-.075,5.16s-.067.073-.055.161.055.161.095.161c.076,0,.146-12.54.072-12.845-.111-.46-.18-.07-.18,1.021M66.1,130.4a.368.368,0,0,1-.255.072c-.116,0-.211.032-.211.072s-.045.072-.1.072a2.911,2.911,0,0,0-1.315.9c-.562.56-.721.789-.484.7a.185.185,0,0,0,.107-.161c0-.234.942-1.053,1.379-1.2.069-.023.125-.071.125-.106s.081-.063.179-.063.179-.032.179-.072.113-.072.251-.072.251-.031.251-.069a1.365,1.365,0,0,1,.591-.093l.591-.024-.623-.015a1.7,1.7,0,0,0-.667.057m1.451-.021c.089.017.161.061.161.1s.113.067.251.067.251.032.251.072.081.072.179.072.179.032.179.072.048.072.107.072.107.032.107.072.049.072.108.072c.137,0,.327.166,1.588,1.39.565.548,1.1,1.045,1.188,1.1a11.62,11.62,0,0,0-1.025-1.073c-1.1-1.095-1.737-1.636-1.925-1.636a.075.075,0,0,1-.077-.072c0-.039-.063-.072-.139-.072a.239.239,0,0,1-.183-.072.36.36,0,0,0-.251-.072.359.359,0,0,1-.251-.072.314.314,0,0,0-.237-.062c-.169.009-.173.014-.032.041m11.5.2c0,.158.015.214.033.124a.782.782,0,0,0,0-.287c-.018-.068-.032,0-.031.162m1.09,3.046c0,1.675.009,2.36.021,1.523s.011-2.208,0-3.046-.021-.152-.021,1.523m8.616-2.871a.281.281,0,0,0,.137.177c.125.048.125-.026,0-.19s-.182-.159-.137.013m3.059.261c.044.095.1.173.127.173.082,0-.021-.275-.116-.311-.071-.027-.074,0-.011.138m-4.355.144a6.163,6.163,0,0,0-.029.95c.012.67.019.725.039.278.015-.331.052-.54.093-.515s.069-.133.069-.392c0-.415-.079-.563-.171-.321m1.583.025a.274.274,0,0,0,.127.173c.071.027.074,0,.011-.138-.1-.207-.189-.231-.138-.035m3.059.261c.044.095.1.173.127.173.082,0-.021-.275-.116-.311-.071-.027-.074,0-.011.138m-2.771.174c.021.079.066.143.1.143s.063.042.063.094a.521.521,0,0,0,.143.248.52.52,0,0,1,.143.257.172.172,0,0,0,.107.144c.157.06.138.011-.179-.456a2.392,2.392,0,0,1-.287-.5.071.071,0,0,0-.065-.076c-.036,0-.048.064-.027.143m-26.709.143c-.057.035-.08.088-.051.117s.09.015.137-.031c.108-.108.048-.169-.086-.086m29.767.113c.044.095.1.173.127.173.082,0-.021-.275-.116-.311-.071-.027-.074,0-.011.138m-13.334.425c0,.236.014.325.03.2a1.912,1.912,0,0,0,0-.43c-.016-.108-.029,0-.029.234M62.5,132.031c-.049.018-.09.11-.09.205s-.032.173-.072.173-.072.1-.072.215-.032.215-.072.215-.072.147-.072.327c0,.2-.028.309-.072.282s-.072.038-.072.148c0,.163.016.179.107.1a.626.626,0,0,0,.107-.439c0-.192.032-.35.072-.35s.072-.1.072-.215.032-.215.072-.215.072-.058.072-.129a.347.347,0,0,1,.085-.214c.1-.1.063-.154-.067-.107m30.17.252a2.2,2.2,0,0,0,.214.3.515.515,0,0,1,.125.206.3.3,0,0,0,.09.154c.049.05.541.772,1.093,1.606s1.026,1.516,1.055,1.517c.08,0-.025-.223-.171-.369a.437.437,0,0,1-.131-.238c0-.059-.033-.107-.073-.107s-.112-.089-.16-.2a.853.853,0,0,0-.214-.291.333.333,0,0,1-.126-.233c0-.077-.033-.139-.073-.139s-.112-.089-.16-.2a.692.692,0,0,0-.175-.253.948.948,0,0,1-.207-.3c-.065-.137-.147-.249-.181-.249s-.063-.043-.063-.1a.421.421,0,0,0-.143-.226.422.422,0,0,1-.143-.236.383.383,0,0,0-.126-.222,1.323,1.323,0,0,1-.225-.309.555.555,0,0,0-.2-.23c-.079-.03-.08-.009-.008.118m-29.185.2c0,.079-.032.143-.072.143s-.072.081-.072.179-.032.179-.072.179-.072.111-.072.246a.447.447,0,0,1-.072.291,3.27,3.27,0,0,0,0,1.362.37.37,0,0,1,.072.256.876.876,0,0,0,.066.336c.036.068.141.293.233.5s.212.373.274.371.079-.016.018-.041a.159.159,0,0,1-.09-.138c0-.056-.032-.1-.072-.1s-.072-.062-.072-.139a.239.239,0,0,0-.072-.183.3.3,0,0,1-.072-.219c0-.1-.032-.175-.072-.175s-.072-.145-.072-.322-.032-.322-.072-.322-.072-.216-.072-.506c0-.319.027-.489.072-.462s.072-.095.072-.318c0-.2.032-.363.072-.363s.072-.081.072-.179.028-.179.063-.179.079-.081.1-.179.006-.179-.027-.179-.062.064-.062.143m26.567.269a1.023,1.023,0,0,0,.177.264.5.5,0,0,1,.129.2.566.566,0,0,0,.143.215.521.521,0,0,1,.143.248.085.085,0,0,0,.072.094c.039,0,.072.057.072.126a.3.3,0,0,0,.143.215.3.3,0,0,1,.143.215.3.3,0,0,0,.143.215.31.31,0,0,1,.143.225.2.2,0,0,0,.107.176c.157.06.138.011-.179-.456a2.391,2.391,0,0,1-.287-.5.069.069,0,0,0-.059-.076c-.033,0-.105-.089-.161-.2a1.916,1.916,0,0,0-.227-.336.475.475,0,0,1-.125-.233.085.085,0,0,0-.072-.094c-.039,0-.072-.048-.072-.108s-.032-.107-.072-.107-.072-.048-.072-.108-.031-.107-.069-.107-.048.056-.022.125m-11,.412c0,.158.015.214.033.125a.782.782,0,0,0,0-.287c-.018-.068-.032,0-.031.162m25.16.43c0,.355.012.509.027.343a4.664,4.664,0,0,0,0-.645c-.015-.188-.027-.052-.027.3m-16.77.251c0,.3.013.417.028.269a3.1,3.1,0,0,0,0-.537c-.015-.148-.028-.027-.028.269m-14.644.735c.9.915,1,1.018,1,.966,0-.01-.443-.454-.985-.985l-.985-.966.966.985M62,134.2c0,.138.015.194.033.125a.592.592,0,0,0,0-.251c-.018-.069-.033-.013-.033.125m-4.65,2.589c-1.323,1.315-2.452,2.435-2.507,2.488a1.42,1.42,0,0,0-.209.3c-.059.114-.139.208-.177.208s-.07.064-.07.143-.024.144-.054.144c-.064,0-.233.348-.233.48a.085.085,0,0,1-.072.093c-.039,0-.072.081-.072.179s-.032.179-.072.179-.072.147-.072.327c0,.2-.028.309-.072.282s-.072.009-.072.073c0,.245.18.046.2-.222a.789.789,0,0,1,.09-.349.4.4,0,0,0,.067-.233c0-.091.032-.165.072-.165s.072-.047.072-.105a3.84,3.84,0,0,1,.715-1.22c.148-.2,4.262-4.308,4.645-4.642.351-.306.516-.256.516.158,0,.121.032.22.072.22s.072.093.072.207a1.065,1.065,0,0,0,.107.412l.107.205v-.2c0-.108-.032-.2-.071-.2s-.072-.131-.072-.291c0-.176-.028-.273-.072-.247s-.072-.071-.072-.247c0-.16-.03-.291-.066-.291a.669.669,0,0,1-.182-.045,17.54,17.54,0,0,0-2.522,2.347m4.633-1.953c0,.084.032.152.072.152s.072.145.072.322.032.322.072.322.072.1.072.215.032.215.072.215.072.064.072.143.032.143.072.143.072.061.072.136a.2.2,0,0,0,.107.177c.145.056.133-.025-.036-.241a.663.663,0,0,1-.142-.3.217.217,0,0,0-.073-.166.291.291,0,0,1-.072-.215.291.291,0,0,0-.072-.215.607.607,0,0,1-.072-.354.577.577,0,0,0-.107-.4c-.09-.075-.107-.064-.107.063m25.366.264a4.662,4.662,0,0,0-.056.985c.012.677.018.715.039.244.015-.331.052-.541.093-.515s.069-.147.069-.428c0-.506-.035-.575-.145-.286m4.279.1a.281.281,0,0,0,.137.177c.125.048.125-.026,0-.19s-.182-.159-.137.013m-12.683,1.221a11.909,11.909,0,0,0,.967.93,12.242,12.242,0,0,0-.947-.963l-.967-.93.947.963m12.969-.791a.274.274,0,0,0,.127.173c.071.027.074,0,.011-.138-.1-.207-.189-.231-.138-.035m-16.388,1.685c.887.909,1.929,1.99,2.316,2.4s.63.64.539.5-1.133-1.22-2.316-2.4c-1.561-1.563-1.709-1.7-.539-.5M92.2,136.064c.021.079.066.143.1.143a.073.073,0,0,1,.063.079.817.817,0,0,0,.18.293c.1.118.163.24.144.272s.009.075.065.1c.093.036.165.143.414.62a1.524,1.524,0,0,0,.219.3.422.422,0,0,1,.125.226.167.167,0,0,0,.1.14c.133.051-.025-.235-.608-1.1a7.557,7.557,0,0,1-.428-.678.664.664,0,0,0-.143-.2.522.522,0,0,1-.143-.248c0-.052-.029-.094-.065-.094s-.048.065-.027.143m-31.869.031c0,.062.032.113.072.113s.072.1.072.215.032.215.072.215.072.063.072.139a.239.239,0,0,0,.072.183.239.239,0,0,1,.072.184c0,.076.025.139.055.139s.107.121.171.269a13.111,13.111,0,0,0,2.564,2.954c.963.967,1.72,1.7,1.682,1.633s-.826-.891-1.751-1.828c-1.7-1.719-2.076-2.129-2.076-2.247a.506.506,0,0,0-.143-.208.475.475,0,0,1-.143-.251c0-.059-.032-.107-.072-.107s-.072-.065-.072-.143-.032-.143-.072-.143-.072-.064-.072-.143-.032-.143-.072-.143-.072-.081-.072-.179-.032-.179-.072-.179-.072-.083-.072-.184a.472.472,0,0,0-.107-.292c-.1-.1-.107-.095-.107.005m35.073.245a1.137,1.137,0,0,0,.216.293.308.308,0,0,1,.112.192.091.091,0,0,0,.08.1c.048,0,.032-.065-.039-.161a2.119,2.119,0,0,1-.2-.356.489.489,0,0,0-.177-.231c-.073-.028-.07.009.01.165m-36.7.532a4.391,4.391,0,0,0-.52.57,3.246,3.246,0,0,0,.542-.484c.6-.6.677-.632.677-.321,0,.118.032.215.072.215s.072.081.072.179.032.179.072.179.072.065.072.143.032.143.072.143a.085.085,0,0,1,.072.093c0,.132.169.479.233.48.03,0,.054.065.054.144s.027.143.059.143.105.085.161.189a13.391,13.391,0,0,0,2.107,2.278l1.646,1.653-1.469-1.5a17.487,17.487,0,0,1-2-2.186,3.469,3.469,0,0,0-.214-.287,8.877,8.877,0,0,1-.736-1.433c-.04-.1-.1-.235-.136-.3a.706.706,0,0,1-.063-.269c0-.267-.242-.148-.771.377m5.345-.11c.419.5,8.86,8.9,8.939,8.9.037,0-2.013-2.08-4.555-4.622s-4.633-4.622-4.647-4.622a2.306,2.306,0,0,0,.263.34m15.969-.006a.42.42,0,0,0-.04.233c.006.121.02.142.041.06s.063-.125.1-.125.066-.048.066-.108c0-.112-.085-.142-.167-.06m-17.2.162a.274.274,0,0,0,.127.173c.071.027.074,0,.011-.138-.1-.207-.189-.231-.138-.035m33.157.261c.044.095.121.173.17.173.072,0,.072-.028,0-.141-.137-.22-.27-.244-.172-.032m-32.716.3c.338.42,8.889,8.936,8.931,8.894s-9.048-9.162-9.117-9.162a1.033,1.033,0,0,0,.186.269m24.041.3c0,.256.013.361.029.233a2.27,2.27,0,0,0,0-.466c-.016-.128-.029-.023-.029.233m10.018,1.378c1.057,1.6,1.369,2.014,1.231,1.656a.9.9,0,0,0-.177-.251.438.438,0,0,1-.131-.238c0-.059-.033-.107-.073-.107s-.113-.089-.161-.2a1.511,1.511,0,0,0-.213-.336.479.479,0,0,1-.126-.216c0-.042-.065-.117-.143-.166a.3.3,0,0,1-.143-.216.344.344,0,0,0-.143-.23.332.332,0,0,1-.143-.184.425.425,0,0,0-.143-.21.425.425,0,0,1-.143-.246.338.338,0,0,0-.143-.22.332.332,0,0,1-.143-.183.609.609,0,0,0-.189-.253,11.215,11.215,0,0,0,.985,1.6m-40.194-.714c-.522.523-.948.969-.948.992s.427-.39.95-.919c1.122-1.134,1.016-1.024.978-1.024-.017,0-.458.428-.979.95m-5.074-.251c-.1.065-.188.3-.118.3.028,0,.089-.081.134-.179a.886.886,0,0,0,.072-.178.586.586,0,0,0-.088.054m41.726.3a.274.274,0,0,0,.127.173c.071.027.074,0,.011-.138-.1-.207-.189-.231-.138-.035m-42.025.128a.185.185,0,0,0-.09.169c0,.076-.032.137-.072.137s-.072.064-.072.143-.032.143-.072.143-.072.081-.072.179-.032.179-.072.179-.072.081-.072.179-.032.179-.072.179-.072.111-.072.247a.447.447,0,0,1-.072.291.631.631,0,0,0-.072.363c0,.175-.032.318-.072.318s-.072.051-.072.113c0,.3.181.014.2-.316.012-.2.052-.371.09-.371s.068-.111.068-.247a.447.447,0,0,1,.072-.291.3.3,0,0,0,.072-.219c0-.1.032-.175.072-.175s.072-.045.072-.1a2.224,2.224,0,0,1,.217-.512c.227-.431.234-.463.088-.411m42.313.307c.021.079.066.143.1.143s.063.057.063.128a.344.344,0,0,0,.143.231.33.33,0,0,1,.143.195.476.476,0,0,0,.143.235.475.475,0,0,1,.143.243.17.17,0,0,0,.107.141c.162.062.142.02-.322-.671a4.816,4.816,0,0,1-.43-.714.07.07,0,0,0-.065-.074c-.036,0-.048.064-.027.143m-6.885.162a5.8,5.8,0,0,0-.03.877c.012.628.016.653.038.2.014-.286.056-.52.093-.52.086,0,.091-.623,0-.676-.035-.021-.083.033-.106.121m-31.346.667a1.072,1.072,0,0,0-.23.32.071.071,0,0,1-.072.069c-.039,0-.072.048-.072.107s-.026.108-.058.108-.1.113-.157.251-.125.251-.157.251-.058.081-.058.179-.032.179-.072.179-.072.111-.072.246a.447.447,0,0,1-.072.291.385.385,0,0,0-.061.273c.01.217.012.218.041.032.016-.108.06-.2.1-.2s.067-.129.067-.287.032-.287.072-.287.072-.081.072-.179.032-.179.072-.179.072-.065.072-.143.032-.143.072-.143a.085.085,0,0,0,.072-.094.486.486,0,0,1,.125-.235,3.835,3.835,0,0,0,.577-.783c-.016-.015-.132.085-.258.222m23.517.143c.044.095.1.173.127.173.082,0-.021-.275-.116-.311-.071-.027-.074,0-.011.138m.188.277c0,.024.176.393.367.774a.926.926,0,0,1,.063.34q0,.216.107.216c.059,0,.107-.032.107-.072a.072.072,0,0,0-.072-.072c-.039,0-.072-.113-.072-.251s-.032-.251-.072-.251-.072-.081-.072-.179-.032-.179-.072-.179-.072-.061-.072-.136a.2.2,0,0,0-.107-.177c-.059-.023-.107-.029-.107-.014m15.528.322a.274.274,0,0,0,.127.173c.071.027.074,0,.011-.138-.1-.207-.189-.231-.138-.035m-16.481.13a3.586,3.586,0,0,0,.177.36,1.064,1.064,0,0,1,.13.412c0,.1.031.177.068.177s.08.185.094.412l.026.412.013-.448c.008-.26-.016-.448-.058-.448s-.072-.1-.072-.215-.032-.215-.072-.215-.072-.065-.072-.143-.032-.143-.072-.143-.072-.064-.072-.143-.031-.143-.069-.143-.049.056-.023.125m16.769.3c.021.079.062.143.092.143s.095.1.144.215.117.215.152.215.063.05.063.111a.52.52,0,0,0,.143.264.525.525,0,0,1,.143.24.162.162,0,0,0,.107.128c.157.06.138.011-.179-.456a3.523,3.523,0,0,1-.287-.465.657.657,0,0,0-.143-.2.521.521,0,0,1-.143-.248c0-.052-.029-.094-.065-.094s-.048.065-.027.143m3.246.146a.071.071,0,0,0,.072.069c.039,0,.072.048.072.108s.029.107.065.107c.1,0,.006-.271-.108-.315-.055-.021-.1-.007-.1.031m-11.443.643c0,.256.013.361.029.233a2.276,2.276,0,0,0,0-.466c-.016-.128-.029-.023-.029.233m11.829-.1c.044.095.1.173.127.173.082,0-.021-.275-.116-.311-.071-.027-.074,0-.011.138m-48.167.1c0,.138.015.194.033.125a.592.592,0,0,0,0-.251c-.018-.069-.033-.013-.033.125m29.309.072c0,.138.015.194.033.125a.592.592,0,0,0,0-.251c-.018-.069-.033-.013-.033.125M51.9,142.37c0,.3.013.417.028.269a3.1,3.1,0,0,0,0-.537c-.015-.148-.028-.027-.028.269m47.372-.317c.044.095.1.173.127.173.082,0-.021-.275-.116-.311-.071-.027-.074,0-.011.138m-45.58.46c0,.3.013.417.028.269a3.1,3.1,0,0,0,0-.537c-.015-.148-.028-.027-.028.269m26.437-.107c0,.158.015.214.033.125a.782.782,0,0,0,0-.287c-.018-.068-.032,0-.031.162m-14.769-.018c-.006.108-.044.2-.083.2s-.072.057-.072.127a3.347,3.347,0,0,1-.645.769,7.424,7.424,0,0,0-.645.687,7.187,7.187,0,0,0,.7-.678c.384-.4.725-.743.758-.768a.447.447,0,0,0,.029-.288c-.025-.207-.032-.214-.041-.046m34.19.071a2.195,2.195,0,0,0,.214.3.519.519,0,0,1,.125.2.567.567,0,0,0,.143.215.521.521,0,0,1,.143.248.087.087,0,0,0,.076.094c.084,0-.111-.381-.309-.6a1.581,1.581,0,0,1-.214-.341.514.514,0,0,0-.178-.235c-.071-.027-.071,0,0,.121m-3.194.05c.038.144.237.267.237.146a.071.071,0,0,0-.072-.069c-.039,0-.072-.048-.072-.107s-.029-.108-.065-.108-.049.062-.029.138m-17.307.274c-.007.207-.046.376-.085.376s-.072.113-.072.251-.032.251-.072.251-.072.1-.072.215-.032.215-.072.215-.072.065-.072.143-.029.143-.064.143-.082.074-.105.165a4.458,4.458,0,0,1-1.221,1.2c-.063,0-.115.032-.115.072s-.064.072-.143.072-.143.032-.143.072-.1.072-.215.072-.215.032-.215.072-.129.072-.287.072-.287.03-.287.067-.121.08-.269.1c-.246.026-.24.029.072.04.187.007.34-.02.34-.06s.129-.072.287-.072.287-.032.287-.072.043-.072.1-.072c.552,0,1.65-.981,2.046-1.827.092-.2.2-.414.231-.483a.757.757,0,0,0,.064-.29.4.4,0,0,1,.076-.242.915.915,0,0,0,.049-.462l-.027-.386-.013.376m-16.317,1.1c-.709.711-1.441,1.4-1.627,1.523-.386.264-.537.491-.164.247.232-.152,3.194-3.062,3.117-3.062-.02,0-.617.581-1.326,1.292m24.347-.983a3.342,3.342,0,0,0-.075,1c.01.592.021.671.04.3a1.33,1.33,0,0,1,.1-.544,1.037,1.037,0,0,0,.049-.5c-.021-.434-.027-.448-.111-.258m-32.326.1a.385.385,0,0,0,.061.273.447.447,0,0,1,.072.291c0,.136.032.246.072.246a.081.081,0,0,1,.072.087,2.356,2.356,0,0,0,.37.771c.026,0,.03-.063.009-.142s-.066-.143-.1-.143-.063-.064-.063-.143-.032-.143-.072-.143-.072-.079-.072-.175a.3.3,0,0,0-.072-.219.447.447,0,0,1-.072-.291c0-.136-.03-.246-.067-.246s-.08-.089-.1-.2c-.028-.187-.03-.185-.041.032m25.357.018a.368.368,0,0,1-.072.255.437.437,0,0,0-.072.287.437.437,0,0,1-.072.287.24.24,0,0,0-.072.184.7.7,0,0,1-.063.264c-.035.068-.106.221-.159.34a4.656,4.656,0,0,1-.936,1.283,2.193,2.193,0,0,0-.39.452,2.65,2.65,0,0,0,.756-.671.97.97,0,0,1,.22-.312.828.828,0,0,0,.215-.33c0-.055.032-.1.072-.1s.072-.064.072-.143.032-.143.072-.143.072-.064.072-.143.032-.143.072-.143.072-.1.072-.215.032-.215.072-.215.072-.131.072-.291c0-.176.028-.273.072-.247s.072-.083.072-.282a.781.781,0,0,0-.036-.327c-.02,0-.036.095-.036.211m16.532-.072a.274.274,0,0,0,.127.173c.071.027.074,0,.011-.138-.1-.207-.189-.231-.138-.035m4.631.363c0,.256.013.361.029.233a2.276,2.276,0,0,0,0-.466c-.016-.128-.029-.023-.029.233m-50.456-.143c0,.138.015.194.033.125a.592.592,0,0,0,0-.251c-.018-.069-.033-.013-.033.125m1.069.233c-.006.148.022.269.061.269s.072.143.072.318a.632.632,0,0,0,.072.363.368.368,0,0,1,.072.255c0,.116.032.211.072.211s.072.081.072.179.032.179.072.179.072.047.072.106a1.369,1.369,0,0,0,.182.412,3.281,3.281,0,0,1,.223.432c.057.174.163.158.117-.018-.021-.079-.066-.143-.1-.143s-.063-.064-.063-.143-.032-.143-.072-.143-.072-.064-.072-.143-.032-.143-.072-.143-.072-.064-.072-.143-.032-.143-.072-.143-.072-.1-.072-.215-.032-.215-.072-.215-.072-.1-.072-.215-.032-.215-.072-.215-.072-.161-.072-.358-.03-.358-.067-.358-.08-.089-.1-.2c-.024-.159-.032-.145-.041.072m1.781-.083c0,.08.032.125.072.1s.072.071.072.247c0,.16.032.291.072.291s.072.1.072.215.032.215.072.215.072.064.072.143.032.143.072.143.072.064.072.143.032.143.072.143.073.056.074.125a.45.45,0,0,0,.191.263l.189.138-.211-.317a4.634,4.634,0,0,1-.307-.532c-.053-.118-.124-.271-.159-.34a.706.706,0,0,1-.063-.269c0-.079-.032-.144-.072-.144s-.072-.142-.072-.315c0-.214-.035-.328-.107-.356s-.107,0-.107.1m43.263.065c.021.079.066.143.1.143s.063.042.063.094a.492.492,0,0,0,.125.237,2.641,2.641,0,0,1,.393.6.767.767,0,0,0,.159.229c.162.114.107-.028-.169-.434a3.653,3.653,0,0,1-.293-.474.657.657,0,0,0-.143-.2.521.521,0,0,1-.143-.248c0-.052-.029-.094-.065-.094s-.048.065-.027.143m-15.016.269c-.007.168-.045.3-.084.3s-.072.113-.072.251-.032.251-.072.251-.072.081-.072.18a.766.766,0,0,1-.067.3c-.037.068-.109.229-.161.357s-.118.233-.148.233-.054.065-.054.143-.032.143-.072.143-.072.064-.072.143-.028.143-.063.143-.08.064-.1.143c-.051.193.037.181.137-.018.155-.312.546-1.094.609-1.217a.692.692,0,0,0,.063-.264.24.24,0,0,1,.072-.184.339.339,0,0,0,.072-.241.462.462,0,0,1,.076-.273.685.685,0,0,0,.048-.391l-.028-.314-.013.3M50.828,143.6a.073.073,0,0,0,.031.115c.049.016.084.174.084.38s.032.352.072.352.072.113.072.251.032.251.072.251.072.1.072.215.032.215.072.215.072.081.072.179.032.179.072.179.072.064.072.143.026.143.058.143.1.113.157.251.125.251.157.251.058.057.058.128a.344.344,0,0,0,.143.231.331.331,0,0,1,.143.186,12.474,12.474,0,0,0,1.8,1.788c.154.1.281.209.281.248s.065.071.143.071.143.026.143.058.113.1.251.157.251.125.251.157.065.058.143.058.143.032.143.072.081.072.179.072.179.032.179.072.081.072.179.072.179.032.179.072.1.072.215.072.215.032.215.072.145.072.322.072.322.032.322.072.222.072.523.072a1.513,1.513,0,0,1,.6.079c.05.05.206.062.426.032.191-.026.6-.064.9-.085a1.272,1.272,0,0,0,.555-.1c0-.037.145-.066.322-.066s.322-.032.322-.072.1-.072.215-.072.215-.032.215-.072.081-.072.179-.072.179-.032.179-.072.064-.072.143-.072.143-.032.143-.072.065-.072.143-.072.143-.032.143-.072.061-.072.136-.072a.194.194,0,0,0,.174-.1c.024-.063-.122-.021-.4.117-.243.119-.523.248-.622.287s-.235.1-.3.134a.7.7,0,0,1-.264.063.24.24,0,0,0-.184.072.524.524,0,0,1-.322.072.524.524,0,0,0-.322.072,6.343,6.343,0,0,1-1.4.072,6.343,6.343,0,0,1-1.4-.072.524.524,0,0,0-.322-.072.524.524,0,0,1-.322-.072.368.368,0,0,0-.255-.072c-.116,0-.211-.032-.211-.072s-.079-.072-.175-.072a.3.3,0,0,1-.219-.072.239.239,0,0,0-.183-.072c-.076,0-.139-.032-.139-.072s-.064-.072-.143-.072-.143-.032-.143-.072-.065-.072-.143-.072-.143-.032-.143-.072a.075.075,0,0,0-.077-.072,2.857,2.857,0,0,1-.771-.515.126.126,0,0,0-.112-.058,9.013,9.013,0,0,1-1.477-1.477.126.126,0,0,0-.058-.112,2.858,2.858,0,0,1-.515-.771.075.075,0,0,0-.072-.077c-.039,0-.072-.065-.072-.143s-.032-.143-.072-.143-.072-.064-.072-.143-.032-.143-.072-.143-.072-.079-.072-.175a.3.3,0,0,0-.072-.219.3.3,0,0,1-.072-.219c0-.1-.032-.175-.072-.175s-.072-.113-.072-.251-.032-.251-.072-.251-.072-.175-.072-.39c0-.384-.082-.555-.187-.386m49.589.172c.044.095.1.173.127.173.082,0-.021-.275-.116-.311-.071-.027-.074,0-.011.138M65.67,145.052a31.537,31.537,0,0,1-3.117,2.908.623.623,0,0,0-.246.2c-.034.084.206-.011.317-.125.02-.02.213-.182.43-.358.511-.417,3.928-3.8,3.834-3.792a15.583,15.583,0,0,0-1.218,1.172m3.153.726c1.931,1.933,2.542,2.452,3.332,2.833.256.123.522.253.59.288a.7.7,0,0,0,.269.064c.079,0,.144.032.144.072s.111.072.247.072a.447.447,0,0,1,.291.072.655.655,0,0,0,.381.059l.336-.013-.3-.027c-.168-.015-.3-.058-.3-.095s-.129-.068-.287-.068-.287-.032-.287-.072-.079-.072-.175-.072a.3.3,0,0,1-.219-.072.239.239,0,0,0-.183-.072c-.076,0-.139-.032-.139-.072s-.064-.072-.143-.072-.143-.032-.143-.072-.065-.072-.143-.072-.143-.032-.143-.072-.064-.072-.143-.072-.143-.029-.143-.063-.118-.119-.262-.188a24.649,24.649,0,0,1-2.06-1.9c-.989-.975-1.927-1.881-2.085-2.015s.552.6,1.577,1.623M100.7,144.2c.044.095.1.173.127.173.082,0-.021-.275-.116-.311-.071-.027-.074,0-.011.138m.546.165c0,.123.03.224.067.224s.08.089.1.2c.019.126.034.077.041-.135s-.026-.362-.1-.421c-.092-.076-.107-.056-.107.135m-38.039.483a4.629,4.629,0,0,0-.567.643,8.966,8.966,0,0,0,1.144-1.15c.1-.187.042-.132-.576.506m37.681-.358a.992.992,0,0,0,.125.231c.069.1.16.253.2.329a.364.364,0,0,0,.179.165c.059.015.05-.007-.023-.053a.292.292,0,0,1-.125-.219c0-.077-.032-.14-.072-.14s-.072-.061-.072-.136a.2.2,0,0,0-.107-.177c-.059-.023-.107-.023-.107,0m-45.3.421c.085.118.195.263.245.322a3.037,3.037,0,0,0,.767.573c.042,0,.076.024.076.054s.1.1.233.148.289.124.357.161a.662.662,0,0,0,.264.067.24.24,0,0,1,.184.072.251.251,0,0,0,.2.063c.121-.006.128-.016.032-.041-.069-.018-.125-.063-.125-.1s-.113-.066-.251-.066-.251-.032-.251-.072-.065-.072-.143-.072-.143-.032-.143-.072-.064-.072-.143-.072-.143-.032-.143-.072-.051-.072-.113-.072a.682.682,0,0,1-.315-.2c-.671-.656-.88-.834-.731-.627m42.342.031a.274.274,0,0,0,.127.173c.071.027.074,0,.011-.138-.1-.207-.189-.231-.138-.035m-10.918.65c0,.3.013.417.028.269a3.1,3.1,0,0,0,0-.537c-.015-.148-.028-.027-.028.269m11.206-.215c.021.079.066.143.1.143s.063.042.063.094a.522.522,0,0,0,.143.248.521.521,0,0,1,.143.247.29.29,0,0,0,.143.183.294.294,0,0,1,.143.2.475.475,0,0,0,.143.25.475.475,0,0,1,.143.243.17.17,0,0,0,.107.141c.162.062.142.02-.322-.671a7.623,7.623,0,0,1-.43-.681.664.664,0,0,0-.143-.2.521.521,0,0,1-.143-.248c0-.052-.029-.094-.065-.094s-.048.064-.027.143m-32.728,1.312c-.729.721-1.45,1.416-1.6,1.545s-.256.254-.232.278a20.211,20.211,0,0,0,1.638-1.545c.876-.874,1.577-1.589,1.557-1.589s-.632.59-1.362,1.311m3.122.3c1.943,1.935,2.324,2.27,2.324,2.044,0-.035-.044-.075-.1-.087a15.044,15.044,0,0,1-2.374-2.132l-1.5-1.47,1.653,1.646m-13.807-1.341a5.47,5.47,0,0,0,.942.891.844.844,0,0,0,.329.2c.054,0,.1.026.1.058s.113.1.251.157.251.125.251.157.1.058.215.058.215.032.215.072.11.072.245.072.259.04.277.09.056.068.085.041c.1-.1-.046-.2-.288-.2-.136,0-.247-.032-.247-.072S57.1,147.1,57,147.1a.3.3,0,0,1-.219-.072.239.239,0,0,0-.183-.072c-.076,0-.139-.032-.139-.072a.075.075,0,0,0-.077-.072,3.847,3.847,0,0,1-1.162-.871c-.433-.438-.534-.508-.417-.289m7.24.32a4.323,4.323,0,0,1-1.717,1.127c-.078,0-.141.032-.141.072s-.111.072-.247.072c-.242,0-.393.105-.288.2.029.027.067.009.085-.041s.142-.09.277-.09.245-.032.245-.072.081-.072.179-.072.179-.032.179-.072.064-.072.143-.072.143-.032.143-.072.044-.072.1-.072a.859.859,0,0,0,.331-.2,12.665,12.665,0,0,0,1.075-1.018,2.586,2.586,0,0,0-.363.3m11.042-.246a2.356,2.356,0,0,0,.771.37.081.081,0,0,1,.087.072c0,.039.129.072.287.072s.287.032.287.072.137.066.3.06c.266-.01.275-.015.07-.041-.129-.016-.216-.059-.193-.1s-.114-.067-.321-.067-.363-.032-.363-.072-.081-.072-.179-.072-.179-.032-.179-.072-.064-.072-.143-.072-.143-.028-.143-.063-.064-.08-.143-.1-.143-.016-.142.01m-12.632.137c-.069.015-.125.058-.125.094s-.063.066-.139.066a.239.239,0,0,0-.183.072.368.368,0,0,1-.255.072c-.116,0-.211.031-.211.068s-.169.08-.376.094l-.376.026.408.013a.883.883,0,0,0,.452-.058.229.229,0,0,1,.177-.072,2.956,2.956,0,0,0,.785-.339c.062-.041-.035-.064-.155-.037m-7.344.611a6.287,6.287,0,0,0,.619.7l.53.537-.513-.563a3.269,3.269,0,0,1-.513-.655.164.164,0,0,0-.106-.133c-.09-.035-.093-.016-.018.118m19.324.076c.188.2.22.224.22.126,0-.035-.089-.12-.2-.19l-.2-.126.174.189m5.452.017a3.4,3.4,0,0,1-.5.289c-.138.061-.307.14-.375.176a.652.652,0,0,1-.254.066.324.324,0,0,0-.2.067.9.9,0,0,1-.385.09c-.29.02-.525.2-.262.2.062,0,.113-.032.113-.072s.145-.072.322-.072.322-.032.322-.072.1-.072.215-.072.215-.032.215-.072a.085.085,0,0,1,.093-.072c.132,0,.479-.169.48-.233,0-.03.053-.054.118-.054.1,0,.385-.249.385-.333,0-.04-.023-.027-.287.161m2.74.035-.286.34a.8.8,0,0,0-.161.248c0,.078.289-.22.49-.5.183-.259.152-.317-.043-.083m-7.852.179a.2.2,0,0,0,.175.1c.075,0,.136.032.136.072s.064.072.143.072.143.032.143.072.1.072.215.072.215.032.215.072.145.072.322.072.322.032.322.072.051.072.113.072c.263,0,.027-.181-.262-.2a.9.9,0,0,1-.385-.09.324.324,0,0,0-.2-.067.674.674,0,0,1-.254-.063c-.623-.314-.723-.351-.686-.254m14.113.143a5.756,5.756,0,0,0-.029.914c.011.617.02.682.039.281.014-.286.056-.52.093-.52s.068-.177.068-.394c0-.381-.082-.515-.171-.281m12.618.455a.274.274,0,0,0,.127.173c.071.027.074,0,.011-.138-.1-.207-.189-.231-.138-.036m-19.657.093a1.166,1.166,0,0,0-.231.215.1.1,0,0,1-.082.055,1.033,1.033,0,0,0-.288.215.828.828,0,0,1-.33.215c-.055,0-.1.032-.1.072s-.065.072-.143.072-.143.032-.143.072-.064.072-.143.072-.143.032-.143.072-.064.072-.143.072-.143.032-.143.072-.081.072-.179.072-.179.032-.179.072-.1.072-.215.072-.215.032-.215.072-.129.072-.287.072-.287.03-.287.067-.121.08-.269.1c-.249.026-.245.029.067.04a.657.657,0,0,0,.381-.06.359.359,0,0,1,.251-.072.359.359,0,0,0,.251-.072.24.24,0,0,1,.184-.072.675.675,0,0,0,.264-.065c.068-.036.3-.149.519-.251a5.082,5.082,0,0,0,.86-.475,3.5,3.5,0,0,1,.287-.214,3.188,3.188,0,0,0,.705-.642,1.074,1.074,0,0,0-.248.16m-21.685-.035a5.828,5.828,0,0,0,.717,0c.186-.015.016-.027-.379-.026s-.546.012-.338.027m16.91,0a1.016,1.016,0,0,0,.322,0c.089-.017.016-.031-.161-.031s-.25.014-.161.031m-20.764.266c0,.067.143.2.341.309.131.075.149.072.115-.018a.156.156,0,0,0-.117-.106.451.451,0,0,1-.207-.119c-.072-.065-.131-.1-.131-.066m45.415.018a.153.153,0,0,1,.09.13.156.156,0,0,0,.1.131c.079.03.083,0,.018-.135-.044-.095-.128-.17-.188-.168s-.079.017-.018.041m-44.842.443c0,.026.073.083.161.127.312.155,1.094.546,1.217.609a.692.692,0,0,0,.264.063.24.24,0,0,1,.184.072.437.437,0,0,0,.287.072.437.437,0,0,1,.287.072.655.655,0,0,0,.381.059l.336-.013-.3-.027c-.168-.015-.3-.058-.3-.095s-.129-.068-.287-.068-.287-.032-.287-.072-.1-.072-.215-.072-.215-.032-.215-.072-.081-.072-.179-.072-.179-.032-.179-.072a.085.085,0,0,0-.093-.072c-.132,0-.479-.169-.48-.233,0-.03-.065-.054-.144-.054s-.143-.029-.143-.063-.065-.08-.143-.1-.143-.016-.143.009m45.163.083c.049.079.114.143.144.143s.054.047.054.1a.666.666,0,0,0,.179.3c.242.262.226.159-.036-.222a1.492,1.492,0,0,1-.215-.389c0-.042-.049-.077-.108-.077-.09,0-.093.024-.019.143m-38.015.054c-.069.015-.125.058-.125.094s-.064.066-.143.066-.143.032-.143.072-.065.072-.143.072-.143.032-.143.072-.081.072-.179.072-.179.032-.179.072-.1.072-.215.072-.215.032-.215.072-.129.072-.287.072-.287.03-.287.068-.137.08-.3.095l-.3.027.336.013a.655.655,0,0,0,.381-.059.447.447,0,0,1,.291-.072c.136,0,.247-.032.247-.072s.1-.072.215-.072.215-.032.215-.072.044-.072.1-.072a6.951,6.951,0,0,0,1.043-.481c.061-.042-.034-.065-.155-.038m1.2.471c-.159.125-.368.282-.466.349s-.139.123-.093.125a.3.3,0,0,0,.179-.086,1.517,1.517,0,0,1,.274-.184,1.086,1.086,0,0,0,.308-.269c.161-.218.151-.215-.2.064m23.315.172c-.3.032-.545.235-.283.235.084,0,.152-.032.152-.072s.079-.072.175-.072a.3.3,0,0,0,.219-.072c.024-.039.034-.066.022-.06a2.517,2.517,0,0,1-.286.04m-15.5.262a1.319,1.319,0,0,0,.424.259,1.206,1.206,0,0,1,.393.233c0,.03.063.054.139.054a.239.239,0,0,1,.183.072.239.239,0,0,0,.183.072c.076,0,.139.032.139.072s.113.072.251.072.251.032.251.072.129.072.287.072.287.032.287.072.121.067.269.062c.2-.007.22-.019.09-.042a.59.59,0,0,1-.247-.1.684.684,0,0,0-.34-.066c-.15,0-.272-.032-.272-.072s-.1-.072-.215-.072-.215-.032-.215-.072-.079-.072-.175-.072a.3.3,0,0,1-.219-.072.239.239,0,0,0-.183-.072c-.076,0-.139-.032-.139-.072s-.064-.072-.143-.072-.143-.032-.143-.072-.064-.072-.143-.072-.144-.024-.144-.054-.078-.09-.173-.134c-.127-.059-.165-.059-.142,0m13.967-.027a1.521,1.521,0,0,1-.6.072c-.411,0-.584.029-.649.107s-.064.107.063.107c.084,0,.152-.032.152-.072s.251-.072.609-.072a1.448,1.448,0,0,0,.609-.067c0-.037.1-.08.233-.1.2-.025.2-.03-.067-.04a.559.559,0,0,0-.345.06m-26.766.064c0,.087.183.151.43.151s.43-.064.43-.151c0-.035-.193-.064-.43-.064s-.43.029-.43.064m16.356.026a2.174,2.174,0,0,0,1.109.092c.37-.093.132-.182-.487-.182-.489,0-.644.022-.621.09m7.969.192a.837.837,0,0,1-.355.1c-.233.023-.209.031.125.041.227.007.412-.018.412-.055s.089-.08.2-.1c.168-.025.159-.032-.057-.041a.584.584,0,0,0-.322.056m-1.274.124c-.1.1-.042.167.136.167.1,0,.165-.03.142-.067s.048-.08.157-.1c.147-.022.123-.033-.094-.041a.779.779,0,0,0-.34.037m-1.22.2c-.028.073,0,.107.1.107.078,0,.141-.03.141-.067s.089-.08.2-.1c.142-.022.115-.033-.1-.041s-.31.022-.338.1m-1.144.084c-.083.082-.052.167.06.167.059,0,.107-.031.107-.068s.185-.08.412-.094l.412-.026-.472-.013a1.648,1.648,0,0,0-.52.034m-1.3.167a.806.806,0,0,1-.42.072,1.042,1.042,0,0,0-.444.066.59.59,0,0,1-.247.1c-.131.023-.106.035.09.042.148.005.269-.023.269-.062s.215-.072.5-.072.5-.031.5-.068.185-.08.412-.094c.4-.025.4-.026-.1-.039a1.291,1.291,0,0,0-.56.058m-3.3.272a.632.632,0,0,1,.283.092,2.871,2.871,0,0,0,1.225,0,.635.635,0,0,1,.283-.093,4.661,4.661,0,0,0-.9-.026,4.772,4.772,0,0,0-.9.026" transform="translate(-0.657 -0.134)" fill="#fff" fill-rule="evenodd"/>
  </g>
</svg>
