<svg xmlns="http://www.w3.org/2000/svg" width="20" height="23" viewBox="0 0 20 23">
  <g id="Group_57610" data-name="Group 57610" transform="translate(-1230.5 -49.499)">
    <path id="Subtraction_4" data-name="Subtraction 4" d="M-1851.5,1919a2.735,2.735,0,0,1-2.714-2.75,2.325,2.325,0,0,1,.018-.307.27.27,0,0,1,.268-.244h4.855a.272.272,0,0,1,.271.244c.012.119.017.217.017.307A2.735,2.735,0,0,1-1851.5,1919Zm8.549-4.676h-17.1a.958.958,0,0,1-.95-.963.957.957,0,0,1,.95-.962,1.435,1.435,0,0,0,1.423-1.444v-4.68a7.734,7.734,0,0,1,1.671-5.038,7.546,7.546,0,0,1,4.505-2.724v-.551a.958.958,0,0,1,.95-.963.957.957,0,0,1,.95.963v.551a7.562,7.562,0,0,1,1,.262,3.5,3.5,0,0,0-.454,1.725,3.5,3.5,0,0,0,3.5,3.5,3.5,3.5,0,0,0,1.718-.45,7.716,7.716,0,0,1,.407,2.725v4.68a1.436,1.436,0,0,0,1.425,1.444.958.958,0,0,1,.951.962A.958.958,0,0,1-1842.951,1914.324Z" transform="translate(3092 -1847)" fill="#fff" stroke="rgba(0,0,0,0)" stroke-miterlimit="10" stroke-width="1"/>
    <circle id="Ellipse_1467" data-name="Ellipse 1467" cx="2.5" cy="2.5" r="2.5" transform="translate(1243 51)" fill="#00cb75"/>
  </g>
</svg>
