<svg xmlns="http://www.w3.org/2000/svg" xmlns:xlink="http://www.w3.org/1999/xlink" width="53" height="68" viewBox="0 0 53 68">
  <defs>
    <clipPath id="clip-path">
      <rect id="Rectangle_18885" data-name="Rectangle 18885" width="53" height="68" transform="translate(-0.462)" fill="#fff"/>
    </clipPath>
  </defs>
  <g id="pending_for_sale" data-name="pending for sale" transform="translate(0.462)" clip-path="url(#clip-path)">
    <g id="shopping-cart_1_" data-name="shopping-cart (1)" transform="translate(0.077 8.209)">
      <g id="Group_57368" data-name="Group 57368">
        <g id="Group_57367" data-name="Group 57367">
          <path id="Path_53706" data-name="Path 53706" d="M16.907,41.224a5.533,5.533,0,1,0,5.533,5.533A5.533,5.533,0,0,0,16.907,41.224Zm0,8.607a3.074,3.074,0,1,1,3.074-3.074A3.074,3.074,0,0,1,16.907,49.831Z" transform="translate(0 -0.709)" fill="#fff"/>
          <path id="Path_53707" data-name="Path 53707" d="M40.269,41.224A5.533,5.533,0,1,0,45.8,46.757,5.533,5.533,0,0,0,40.269,41.224Zm0,8.607a3.074,3.074,0,1,1,3.074-3.074A3.074,3.074,0,0,1,40.269,49.831Z" transform="translate(0 -0.709)" fill="#fff"/>
          <path id="Path_53708" data-name="Path 53708" d="M52.749,8.948a1.537,1.537,0,0,0-.984-.492L11.743,7.9,10.636,4.521A5.656,5.656,0,0,0,5.349.709H1.23a1.23,1.23,0,1,0,0,2.459H5.349A3.2,3.2,0,0,1,8.3,5.32l7.808,23.547-.615,1.414a5.9,5.9,0,0,0,.553,5.349,5.718,5.718,0,0,0,4.611,2.582H44.573a1.23,1.23,0,0,0,0-2.459H20.657a3.136,3.136,0,0,1-2.582-1.476,3.381,3.381,0,0,1-.307-2.951l.492-1.107,25.883-2.705a6.763,6.763,0,0,0,5.841-5.164L52.934,9.993A1.045,1.045,0,0,0,52.749,8.948ZM47.585,21.8a4.181,4.181,0,0,1-3.75,3.258L18.259,27.7,12.542,10.362l37.687.553Z" transform="translate(0 -0.709)" fill="#fff"/>
        </g>
      </g>
    </g>
  </g>
</svg>
