<svg id="Group_57365" data-name="Group 57365" xmlns="http://www.w3.org/2000/svg" width="53" height="53" viewBox="0 0 53 53">
  <g id="coins">
    <path id="Path_53691" data-name="Path 53691" d="M25.458,28.229C17.963,28.229,10,25.906,10,21.6a1.1,1.1,0,1,1,2.208,0c0,1.844,5.039,4.417,13.25,4.417s13.25-2.573,13.25-4.417a1.1,1.1,0,1,1,2.208,0C40.917,25.906,32.953,28.229,25.458,28.229Z" transform="translate(12.083 24.771)" fill="#fff"/>
    <path id="Path_53692" data-name="Path 53692" d="M25.458,25.229C17.963,25.229,10,22.906,10,18.6a1.1,1.1,0,0,1,2.208,0c0,1.844,5.039,4.417,13.25,4.417s13.25-2.573,13.25-4.417a1.1,1.1,0,1,1,2.208,0C40.917,22.906,32.953,25.229,25.458,25.229Z" transform="translate(12.083 21.146)" fill="#fff"/>
    <path id="Path_53693" data-name="Path 53693" d="M25.458,25.25C17.963,25.25,10,22.927,10,18.625S17.963,12,25.458,12s15.458,2.323,15.458,6.625S32.953,25.25,25.458,25.25Zm0-11.042c-8.211,0-13.25,2.573-13.25,4.417s5.039,4.417,13.25,4.417,13.25-2.573,13.25-4.417S33.669,14.208,25.458,14.208Z" transform="translate(12.083 14.5)" fill="#fff"/>
    <path id="Path_53694" data-name="Path 53694" d="M24.1,29.958a1.1,1.1,0,0,1-1.1-1.1V15.6a1.1,1.1,0,1,1,2.208,0v13.25A1.1,1.1,0,0,1,24.1,29.958Z" transform="translate(27.792 17.521)" fill="#fff"/>
    <path id="Path_53695" data-name="Path 53695" d="M11.1,29.958a1.1,1.1,0,0,1-1.1-1.1V15.6a1.1,1.1,0,1,1,2.208,0v13.25A1.1,1.1,0,0,1,11.1,29.958Z" transform="translate(12.083 17.521)" fill="#fff"/>
    <path id="Path_53696" data-name="Path 53696" d="M15.458,16.229C7.963,16.229,0,13.906,0,9.6a1.1,1.1,0,0,1,2.208,0c0,1.844,5.039,4.417,13.25,4.417s13.25-2.573,13.25-4.417a1.1,1.1,0,0,1,2.208,0C30.917,13.906,22.953,16.229,15.458,16.229Z" transform="translate(0 10.271)" fill="#fff"/>
    <path id="Path_53697" data-name="Path 53697" d="M15.458,13.229C7.963,13.229,0,10.906,0,6.6a1.1,1.1,0,0,1,2.208,0c0,1.844,5.039,4.417,13.25,4.417S28.708,8.448,28.708,6.6a1.1,1.1,0,1,1,2.208,0C30.917,10.906,22.953,13.229,15.458,13.229Z" transform="translate(0 6.646)" fill="#fff"/>
    <path id="Path_53698" data-name="Path 53698" d="M15.458,22.229C7.963,22.229,0,19.906,0,15.6a1.1,1.1,0,1,1,2.208,0c0,1.844,5.039,4.417,13.25,4.417a30.642,30.642,0,0,0,3.2-.148,1.1,1.1,0,1,1,.234,2.2,32.136,32.136,0,0,1-3.43.161Z" transform="translate(0 17.521)" fill="#fff"/>
    <path id="Path_53699" data-name="Path 53699" d="M15.458,25.229C7.963,25.229,0,22.906,0,18.6a1.1,1.1,0,0,1,2.208,0c0,1.844,5.039,4.417,13.25,4.417a30.642,30.642,0,0,0,3.2-.148,1.1,1.1,0,1,1,.234,2.2,32.135,32.135,0,0,1-3.43.161Z" transform="translate(0 21.146)" fill="#fff"/>
    <path id="Path_53700" data-name="Path 53700" d="M15.458,19.229C7.963,19.229,0,16.906,0,12.6a1.1,1.1,0,0,1,2.208,0c0,1.844,5.039,4.417,13.25,4.417a30.642,30.642,0,0,0,3.2-.148,1.1,1.1,0,1,1,.234,2.2,32.135,32.135,0,0,1-3.43.161Z" transform="translate(0 13.896)" fill="#fff"/>
    <path id="Path_53701" data-name="Path 53701" d="M15.458,13.25C7.963,13.25,0,10.927,0,6.625S7.963,0,15.458,0,30.917,2.323,30.917,6.625,22.953,13.25,15.458,13.25Zm0-11.042c-8.211,0-13.25,2.573-13.25,4.417s5.039,4.417,13.25,4.417,13.25-2.573,13.25-4.417S23.669,2.208,15.458,2.208Z" transform="translate(0 0)" fill="#fff"/>
    <path id="Path_53702" data-name="Path 53702" d="M1.1,37.833a1.1,1.1,0,0,1-1.1-1.1V3.6a1.1,1.1,0,0,1,2.208,0V36.729A1.1,1.1,0,0,1,1.1,37.833Z" transform="translate(0 3.021)" fill="#fff"/>
    <path id="Path_53703" data-name="Path 53703" d="M14.1,17.958a1.1,1.1,0,0,1-1.1-1.1V3.6a1.1,1.1,0,1,1,2.208,0v13.25A1.1,1.1,0,0,1,14.1,17.958Z" transform="translate(15.708 3.021)" fill="#fff"/>
  </g>
  <path id="Path_53704" data-name="Path 53704" d="M2.567,7.839H1.32a8.826,8.826,0,0,0,.289,2.5q.281.891.8.891a1.113,1.113,0,0,0,.734-.285l.08,1.348a1.564,1.564,0,0,1-.822.253q-.834,0-1.318-1.233a10.05,10.05,0,0,1-.5-3.471H0V6.8H.586V5.651H0V4.6H.586a10.041,10.041,0,0,1,.507-3.379Q1.568,0,2.4,0a1.732,1.732,0,0,1,.826.258L3.145,1.61a1.186,1.186,0,0,0-.738-.293q-.485,0-.774.807A8.237,8.237,0,0,0,1.32,4.6H2.567V5.651H1.32V6.8H2.567Z" transform="translate(9.775 8.456) rotate(-90)" fill="#fff" opacity="0.91"/>
  <path id="Path_53705" data-name="Path 53705" d="M3,6.759H1.544a5.734,5.734,0,0,0,.338,2.153q.329.768.939.768a1.593,1.593,0,0,0,.859-.246L3.774,10.6a2.323,2.323,0,0,1-.962.218A1.714,1.714,0,0,1,1.27,9.752,6.605,6.605,0,0,1,.685,6.759H0v-.9H.685v-.99H0v-.9H.685a6.61,6.61,0,0,1,.594-2.913A1.693,1.693,0,0,1,2.807,0a2.576,2.576,0,0,1,.967.223L3.68,1.388a1.7,1.7,0,0,0-.864-.253,1.021,1.021,0,0,0-.906.7,5.375,5.375,0,0,0-.366,2.138H3v.9H1.544v.99H3Z" transform="translate(32.577 34.541) rotate(-88)" fill="#fff" opacity="0.91"/>
</svg>
