<svg xmlns="http://www.w3.org/2000/svg" width="39.011" height="39.011" viewBox="0 0 39.011 39.011">
  <path id="Path_54236" data-name="Path 54236" d="M16.255,34.135V24.382c0-3.166,5.862-4.876,11.378-4.876s11.379,1.71,11.379,4.876v9.753c0,3.166-5.862,4.876-11.379,4.876S16.255,37.3,16.255,34.135Zm1.625,0c0,1.357,3.709,3.251,9.752,3.251s9.753-1.894,9.753-3.251V31.863c-2.125,1.489-6.018,2.272-9.753,2.272s-7.627-.784-9.752-2.272Zm0-4.877c0,1.358,3.709,3.252,9.752,3.252s9.753-1.894,9.753-3.252V26.986c-2.125,1.489-6.018,2.272-9.753,2.272s-7.627-.784-9.752-2.272Zm0-4.876c0,1.357,3.709,3.251,9.752,3.251s9.753-1.894,9.753-3.251-3.71-3.251-9.753-3.251S17.88,23.025,17.88,24.382ZM0,29.258V4.876C0,1.71,5.862,0,11.379,0S22.757,1.71,22.757,4.876V14.63c0,3.166-5.862,4.876-11.378,4.876-3.735,0-7.628-.784-9.753-2.273v2.273c0,1.357,3.71,3.251,9.753,3.251a22.623,22.623,0,0,0,2.352-.109.812.812,0,1,1,.172,1.615,23.474,23.474,0,0,1-2.524.119c-3.735,0-7.628-.784-9.753-2.273v2.273c0,1.357,3.71,3.251,9.753,3.251a22.376,22.376,0,0,0,2.352-.109A.813.813,0,0,1,13.9,29.14a23.726,23.726,0,0,1-2.524.118c-3.735,0-7.628-.784-9.753-2.272v2.272c0,1.358,3.71,3.252,9.753,3.252A22.624,22.624,0,0,0,13.73,32.4a.812.812,0,1,1,.172,1.615,23.709,23.709,0,0,1-2.524.119C5.862,34.135,0,32.425,0,29.258ZM1.625,14.63c0,1.357,3.71,3.251,9.753,3.251s9.752-1.894,9.752-3.251V12.357c-2.125,1.489-6.018,2.273-9.752,2.273s-7.628-.784-9.753-2.273Zm0-4.877c0,1.358,3.71,3.252,9.753,3.252s9.752-1.894,9.752-3.252V7.48c-2.125,1.489-6.018,2.273-9.752,2.273S3.75,8.969,1.625,7.48Zm0-4.876c0,1.357,3.71,3.251,9.753,3.251s9.752-1.894,9.752-3.251-3.709-3.251-9.752-3.251S1.625,3.519,1.625,4.876Zm26.666,20.7.018-.5-.729-.025-.017.5-.665-.023.018-.5a4.874,4.874,0,0,1-2.128-.511,1.249,1.249,0,0,1-.737-1.151,1.9,1.9,0,0,1,.189-.706l.855.1a1.254,1.254,0,0,0-.209.628.753.753,0,0,0,.489.685,3.969,3.969,0,0,0,1.563.324l.038-1.074.664.023L27.6,24.413l.728.025.038-1.074.66.023-.038,1.074a4.235,4.235,0,0,0,1.592-.193q.574-.223.589-.671a1.175,1.175,0,0,0-.158-.638l.858-.039a1.707,1.707,0,0,1,.136.714,1.263,1.263,0,0,1-.822,1.107,4.869,4.869,0,0,1-2.217.353l-.017.5ZM12.2,6.224V5.793h-.846v.431h-.771V5.793A7.378,7.378,0,0,1,8.1,5.42q-.9-.35-.9-.961a1.277,1.277,0,0,1,.191-.608l.994.059a.872.872,0,0,0-.216.544q0,.356.594.57a6.073,6.073,0,0,0,1.825.23V4.334h.771v.919H12.2V4.334h.765v.919A6.488,6.488,0,0,0,14.8,5.04q.655-.207.655-.59a.822.822,0,0,0-.21-.54l.993-.059a1.155,1.155,0,0,1,.186.606q0,.614-.907.97a7.419,7.419,0,0,1-2.555.367v.431Z" fill="#50e6a8"/>
</svg>
