<svg xmlns="http://www.w3.org/2000/svg" xmlns:xlink="http://www.w3.org/1999/xlink" width="129" height="137" viewBox="0 0 129 137">
  <defs>
    <clipPath id="clip-path">
      <rect id="Rectangle_19221" data-name="Rectangle 19221" width="129" height="137" transform="translate(8640 3365)" fill="#fff"/>
    </clipPath>
  </defs>
  <g id="Mask_Group_246" data-name="Mask Group 246" transform="translate(-8640 -3365)" clip-path="url(#clip-path)">
    <g id="Group_60053" data-name="Group 60053" transform="translate(-816.172 -1514)">
      <g id="Group_60023" data-name="Group 60023" transform="translate(9333.086 4653.996)">
        <path id="Path_54175" data-name="Path 54175" d="M258.71,171.71s-43.762,17.974-48.451,19.928-7.033,6.642-7.033,11.331-3.517,65.872,55.484,95.453c0,0,5.355,1.482,9.418,0s55.64-26.489,55.64-95.649c0,0,0-7.033-8.205-10.941s-47.877-20.123-47.877-20.123S262.812,169.561,258.71,171.71Z" transform="translate(-76.186 58.245)" fill="#4dd4ab"/>
        <path id="Path_54176" data-name="Path 54176" d="M295.711,215.286V311.17s-44.153-21.254-43.762-77.129Z" transform="translate(-108.292 29.042)" fill="#56b9a4"/>
        <g id="Group_60019" data-name="Group 60019">
          <path id="Path_54174" data-name="Path 54174" d="M255.418,294.925a25.363,25.363,0,0,1-6.287-.813l-.4-.112-.376-.188a104.16,104.16,0,0,1-34.038-26.72,101.151,101.151,0,0,1-17.186-30.518,117.459,117.459,0,0,1-6.642-41.378c.006-.3.011-.524.011-.681a16.293,16.293,0,0,1,9.678-15.3c4.5-1.875,45.355-18.656,48.306-19.868,5.559-2.786,11.49-.461,12.439-.054,2.129.87,39.9,16.318,48.059,20.2,8.411,4.005,10.656,11.2,10.656,14.821a120.7,120.7,0,0,1-8.437,45.527,105.419,105.419,0,0,1-18.945,30.531c-15.465,17.4-30.934,23.573-31.084,23.628a16.9,16.9,0,0,1-5.749.918Zm-3.638-9.011c1.341.3,4.429.752,6.441.018,2.557-.932,15.5-7.646,27.6-21.262,16.717-18.812,25.2-42.46,25.211-70.288-.03-.564-.43-4.585-5.755-7.12-8-3.811-47.26-19.863-47.656-20.025l-.108-.046c-.823-.345-3.441-1.071-5.246-.125l-.361.168c-.438.18-43.806,17.992-48.431,19.919-3.235,1.348-4.388,4.688-4.388,7.364,0,.2-.005.48-.012.848-.369,19.041,4.037,65.894,52.7,90.55Z" transform="translate(-67.546 67.004)" fill="#3b3b3b"/>
        </g>
      </g>
      <path id="Path_54177" data-name="Path 54177" d="M161.756,173.733l-10.521-13.527,6.118-4.758,4.981,6.4,16.828-17.765,5.627,5.332Z" transform="translate(9352.766 4788.912)" fill="#fff"/>
    </g>
  </g>
</svg>
