<svg xmlns="http://www.w3.org/2000/svg" width="18.109" height="19.353" viewBox="0 0 18.109 19.353"><defs><style>.a{fill:#fff;}</style></defs><path class="a" d="M15.22,10.6H1a1,1,0,0,1-1-1V1A1,1,0,0,1,1,0H15.22a1,1,0,0,1,1,1V9.6A1,1,0,0,1,15.22,10.6ZM9.344,3.445V7h.733V5.747h.642a1.494,1.494,0,0,0,.99-.3,1.024,1.024,0,0,0,.358-.824,1.169,1.169,0,0,0-.164-.615,1.082,1.082,0,0,0-.467-.416,1.611,1.611,0,0,0-.7-.147Zm-1.411,0V7h.733V3.445Zm-3.615,0L5.55,7h.764L7.552,3.445H6.737L5.931,6.119l-.8-2.674Zm6.413,1.709h-.654V4.038h.671a.577.577,0,0,1,.425.166.587.587,0,0,1,.154.422.5.5,0,0,1-.153.391A.647.647,0,0,1,10.731,5.154Z" transform="matrix(0.588, -0.809, 0.809, 0.588, 0, 13.122)"/></svg>