<svg xmlns="http://www.w3.org/2000/svg" width="31.901" height="24.925" viewBox="0 0 31.901 24.925">
  <path id="Icon_awesome-exchange-alt" data-name="Icon awesome-exchange-alt" d="M0,10.916v-1a1.5,1.5,0,0,1,1.5-1.5H23.926V5.433a1.5,1.5,0,0,1,2.553-1.057L31.463,9.36a1.5,1.5,0,0,1,0,2.115l-4.985,4.985A1.5,1.5,0,0,1,23.926,15.4V12.411H1.5A1.5,1.5,0,0,1,0,10.916Zm30.406,9.471H7.975V17.4a1.5,1.5,0,0,0-2.553-1.057L.438,21.323a1.5,1.5,0,0,0,0,2.115l4.985,4.985a1.5,1.5,0,0,0,2.553-1.057V24.374H30.406a1.5,1.5,0,0,0,1.5-1.5v-1A1.5,1.5,0,0,0,30.406,20.386Z" transform="translate(0 -3.936)" fill="#efaf1e"/>
</svg>
