<svg xmlns="http://www.w3.org/2000/svg" xmlns:xlink="http://www.w3.org/1999/xlink" width="69" height="64" viewBox="0 0 69 64"><defs><style>.a{fill:#7087b8;}.b{fill:url(#a);}.c{opacity:0.35;}.d,.e{fill:none;stroke:#fff;}.d{stroke-linecap:round;}.e{stroke-dasharray:6;opacity:0.41;}.f{fill:#e9cc32;opacity:0.91;}</style><linearGradient id="a" x1="-0.059" y1="0.093" x2="1.412" y2="1.778" gradientUnits="objectBoundingBox"><stop offset="0" stop-color="#bc97f5"/><stop offset="1" stop-color="#59c8d1"/></linearGradient></defs><g transform="translate(2081 -1446.7)"><g transform="translate(-2218 737.7)"><g transform="translate(137 709)"><g transform="translate(0 0)"><g transform="translate(0 0)"><path class="a" d="M66,63H3a3,3,0,0,1-3-3V45.08a3.411,3.411,0,1,0,0-6.791V3A3,3,0,0,1,3,0H66a3,3,0,0,1,3,3V38.3a3.384,3.384,0,1,0,0,6.768V60A3,3,0,0,1,66,63Z" transform="translate(0 1)"/><g transform="translate(0)"><path class="b" d="M66,63H3a3,3,0,0,1-3-3V45.9A3.774,3.774,0,0,0,3.73,42.1,3.774,3.774,0,0,0,0,38.289V3A3,3,0,0,1,3,0H66a3,3,0,0,1,3,3V38.3a3.815,3.815,0,0,0,0,7.59V60A3,3,0,0,1,66,63Z"/></g></g><g class="c" transform="translate(4.595 25.661)"><line class="d" x2="59.766"/><line class="d" y2="11" transform="translate(39.406 0.339)"/></g></g><line class="e" x2="62.033" transform="translate(3.97 41.745)"/></g></g><g transform="translate(-2081.169 1446.7)"><path class="f" d="M-3406.085,4341h11.294l9.01,8.532v10.422Z" transform="translate(3454.951 -4341)"/></g></g></svg>