<svg xmlns="http://www.w3.org/2000/svg" xmlns:xlink="http://www.w3.org/1999/xlink" width="235.286" height="215.12" viewBox="0 0 235.286 215.12">
  <defs>
    <linearGradient id="linear-gradient" x1="-0.059" y1="0.093" x2="1.412" y2="1.778" gradientUnits="objectBoundingBox">
      <stop offset="0" stop-color="#bc97f5"/>
      <stop offset="1" stop-color="#59c8d1"/>
    </linearGradient>
  </defs>
  <g id="_2A" data-name="2A" transform="translate(0 0)">
    <g id="Group_57122" data-name="Group 57122" transform="translate(0)">
      <g id="Group_57121" data-name="Group 57121" transform="translate(0 0)">
        <g id="Group_57119" data-name="Group 57119" transform="translate(0 0)">
          <path id="Subtraction_2" data-name="Subtraction 2" d="M227.286,211.759H8a8.009,8.009,0,0,1-8-8V151.525c7.015,0,12.719-5.12,12.719-11.413S7.013,128.7,0,128.7V8A8.009,8.009,0,0,1,8,0H227.286a8.009,8.009,0,0,1,8,8V128.737c-6.538.484-11.659,5.48-11.659,11.375s5.121,10.89,11.659,11.374v52.273A8.009,8.009,0,0,1,227.286,211.759Z" transform="translate(0 3.361)" fill="#7087b8"/>
          <g id="Group_57118" data-name="Group 57118" transform="translate(0)">
            <path id="Subtraction_1" data-name="Subtraction 1" d="M227.286,211.759H8a8.009,8.009,0,0,1-8-8V154.3a12.773,12.773,0,0,0,12.719-12.8A12.774,12.774,0,0,0,0,128.7V8A8.009,8.009,0,0,1,8,0H227.286a8.009,8.009,0,0,1,8,8V128.742a12.806,12.806,0,0,0,0,25.509v49.508A8.009,8.009,0,0,1,227.286,211.759Z" transform="translate(0)" fill="url(#linear-gradient)"/>
          </g>
        </g>
        <g id="Group_57120" data-name="Group 57120" transform="translate(15.443 86.253)" opacity="0.35">
          <line id="Line_95" data-name="Line 95" x2="204.248" fill="none" stroke="#fff" stroke-linecap="round" stroke-width="1"/>
          <line id="Line_96" data-name="Line 96" y2="36.974" transform="translate(134.667 1.139)" fill="none" stroke="#fff" stroke-linecap="round" stroke-width="1"/>
        </g>
      </g>
      <line id="Line_97" data-name="Line 97" x2="211.869" transform="translate(13.345 140.316)" fill="none" stroke="#fff" stroke-width="1" stroke-dasharray="6" opacity="0.41"/>
    </g>
  </g>
</svg>
