<svg id="_2A" data-name="2A" xmlns="http://www.w3.org/2000/svg" xmlns:xlink="http://www.w3.org/1999/xlink" width="235" height="215" viewBox="0 0 235 215">
  <defs>
    <linearGradient id="linear-gradient" x1="-0.059" y1="0.093" x2="1.412" y2="1.778" gradientUnits="objectBoundingBox">
      <stop offset="0" stop-color="#bc97f5"/>
      <stop offset="1" stop-color="#59c8d1"/>
    </linearGradient>
  </defs>
  <g id="Group_57122" data-name="Group 57122">
    <g id="Group_57121" data-name="Group 57121">
      <g id="Group_57119" data-name="Group 57119">
        <path id="Subtraction_2" data-name="Subtraction 2" d="M227.01,211.639H7.99a8,8,0,0,1-7.99-8v-52.2c7.006,0,12.7-5.117,12.7-11.407S7,128.627,0,128.627V8A8,8,0,0,1,7.99,0H227.01A8,8,0,0,1,235,8V128.664c-6.53.484-11.645,5.477-11.645,11.369S228.47,150.916,235,151.4v52.243a8,8,0,0,1-7.99,8Z" transform="translate(0 3.361)" fill="#7087b8"/>
        <g id="Group_57118" data-name="Group 57118">
          <path id="Subtraction_1" data-name="Subtraction 1" d="M227.01,211.639H7.99a8,8,0,0,1-7.99-8V154.213A12.762,12.762,0,0,0,12.7,141.42,12.763,12.763,0,0,0,0,128.627V8A8,8,0,0,1,7.99,0H227.01A8,8,0,0,1,235,8V128.669a12.8,12.8,0,0,0,0,25.495v49.48a8,8,0,0,1-7.99,8Z" fill="url(#linear-gradient)"/>
        </g>
      </g>
      <g id="Group_57120" data-name="Group 57120" transform="translate(15.443 86.195)" opacity="0.35">
        <line id="Line_95" data-name="Line 95" x2="203.962" fill="none" stroke="#fff" stroke-linecap="round" stroke-width="1"/>
        <line id="Line_96" data-name="Line 96" y2="36.974" transform="translate(134.478 1.139)" fill="none" stroke="#fff" stroke-linecap="round" stroke-width="1"/>
      </g>
    </g>
    <line id="Line_97" data-name="Line 97" x2="211.583" transform="translate(13.345 140.238)" fill="none" stroke="#fff" stroke-width="1" stroke-dasharray="6" opacity="0.41"/>
  </g>
</svg>
