<svg id="_3A" data-name="3A" xmlns="http://www.w3.org/2000/svg" xmlns:xlink="http://www.w3.org/1999/xlink" width="235" height="215" viewBox="0 0 235 215">
  <defs>
    <linearGradient id="linear-gradient" x1="-0.059" y1="0.093" x2="1.412" y2="1.778" gradientUnits="objectBoundingBox">
      <stop offset="0" stop-color="#97f5f2"/>
      <stop offset="1" stop-color="#3469b7"/>
    </linearGradient>
  </defs>
  <g id="Group_57122" data-name="Group 57122">
    <g id="Group_57121" data-name="Group 57121">
      <g id="Group_57119" data-name="Group 57119">
        <path id="Subtraction_2" data-name="Subtraction 2" d="M226.894,211.639H8.106a8.06,8.06,0,0,1-8.106-8v-52.2c7.006,0,12.7-5.117,12.7-11.407S7,128.627,0,128.627V8A8.06,8.06,0,0,1,8.106,0H226.894A8.06,8.06,0,0,1,235,8V128.664c-6.529.484-11.643,5.477-11.643,11.369S228.472,150.916,235,151.4v52.243a8.06,8.06,0,0,1-8.106,8Z" transform="translate(0 3.361)" fill="#50819e"/>
        <g id="Group_57118" data-name="Group 57118">
          <path id="Subtraction_1" data-name="Subtraction 1" d="M226.894,211.639H8.106a8.06,8.06,0,0,1-8.106-8V154.213A12.761,12.761,0,0,0,12.7,141.42,12.761,12.761,0,0,0,0,128.627V8A8.06,8.06,0,0,1,8.106,0H226.894A8.06,8.06,0,0,1,235,8V128.669a12.8,12.8,0,0,0,0,25.495v49.48A8.06,8.06,0,0,1,226.894,211.639Z" fill="url(#linear-gradient)"/>
        </g>
      </g>
      <g id="Group_57120" data-name="Group 57120" transform="translate(14.404 85.458)" opacity="0.35">
        <line id="Line_95" data-name="Line 95" x2="204.596" fill="none" stroke="#fff" stroke-linecap="round" stroke-width="1"/>
        <line id="Line_96" data-name="Line 96" y2="36.974" transform="translate(135.528 1.877)" fill="none" stroke="#fff" stroke-linecap="round" stroke-width="1"/>
      </g>
    </g>
    <line id="Line_97" data-name="Line 97" x2="212.241" transform="translate(12.299 139.671)" fill="none" stroke="#fff" stroke-width="1" stroke-dasharray="6" opacity="0.41"/>
  </g>
</svg>
