<svg xmlns="http://www.w3.org/2000/svg" xmlns:xlink="http://www.w3.org/1999/xlink" width="68" height="64" viewBox="0 0 68 64"><defs><style>.a{fill:#7cae61;}.b{fill:url(#a);}.c{opacity:0.35;}.d,.e{fill:none;stroke:#fff;}.d{stroke-linecap:round;}.e{stroke-dasharray:6;opacity:0.41;}.f{fill:#e9cc32;opacity:0.91;}</style><linearGradient id="a" x1="-0.059" y1="0.093" x2="1.412" y2="1.778" gradientUnits="objectBoundingBox"><stop offset="0" stop-color="#f5ee97"/><stop offset="1" stop-color="#5ed475"/></linearGradient></defs><g transform="translate(1916 -1446.7)"><g transform="translate(-2053 737.7)"><g transform="translate(137 709)"><g transform="translate(0 0)"><g transform="translate(0 0)"><path class="a" d="M65,63H3a3,3,0,0,1-3-3V45.08a3.406,3.406,0,1,0,0-6.791V3A3,3,0,0,1,3,0H65a3,3,0,0,1,3,3V38.3a3.384,3.384,0,0,0,0,6.768V60A3,3,0,0,1,65,63Z" transform="translate(0 1)"/><g transform="translate(0 0)"><path class="b" d="M65,63H3a3,3,0,0,1-3-3V45.9A3.747,3.747,0,0,0,3.676,42.1,3.748,3.748,0,0,0,0,38.289V3A3,3,0,0,1,3,0H65a3,3,0,0,1,3,3V38.3a3.821,3.821,0,0,0,0,7.589V60A3,3,0,0,1,65,63Z"/></g></g><g class="c" transform="translate(4.568 25.51)"><line class="d" x2="59.415"/><line class="d" y2="11" transform="translate(39.432 0.49)"/></g></g><line class="e" x2="61.669" transform="translate(3.947 41.5)"/></g></g><g transform="translate(-1917.444 1446.7)"><path class="f" d="M-3406.085,4341h11.447l9.131,8.532v10.422Z" transform="translate(3454.951 -4341)"/></g></g></svg>