<svg xmlns="http://www.w3.org/2000/svg" xmlns:xlink="http://www.w3.org/1999/xlink" width="336" height="296" viewBox="0 0 336 296">
  <defs>
    <style>
      .cls-1, .cls-10, .cls-13, .cls-7, .cls-8, .cls-9 {
        fill: #fff;
      }

      .cls-2 {
        clip-path: url(#clip-path);
      }

      .cls-3 {
        fill: url(#linear-gradient);
      }

      .cls-4 {
        fill: url(#linear-gradient-2);
      }

      .cls-5 {
        opacity: 0.48;
        fill: url(#linear-gradient-3);
      }

      .cls-6 {
        fill: #ddcc3d;
      }

      .cls-7 {
        font-size: 13px;
        font-family: Raleway;
      }

      .cls-8 {
        font-size: 33px;
      }

      .cls-13, .cls-8 {
        font-family: Raleway-Medium, Raleway;
        font-weight: 500;
      }

      .cls-9 {
        opacity: 0.84;
      }

      .cls-10 {
        font-size: 14px;
        font-family: Raleway-Bold, Raleway;
        font-weight: 700;
      }

      .cls-11 {
        fill: #7e7100;
      }

      .cls-12 {
        fill: none;
        stroke: #ccfff7;
        stroke-linecap: round;
        stroke-width: 1.5px;
      }

      .cls-13 {
        font-size: 16px;
      }
    </style>
    <clipPath id="clip-path">
      <rect id="Rectangle_18966" data-name="Rectangle 18966" class="cls-1" width="336" height="296" transform="translate(15724 1478)"/>
    </clipPath>
    <linearGradient id="linear-gradient" x1="0.057" y1="0.026" x2="1.011" y2="1.014" gradientUnits="objectBoundingBox">
      <stop offset="0" stop-color="#24bb7d"/>
      <stop offset="1" stop-color="#43bed8"/>
    </linearGradient>
    <linearGradient id="linear-gradient-2" x1="0.706" y1="-0.177" x2="-0.165" y2="0.844" gradientUnits="objectBoundingBox">
      <stop offset="0" stop-color="#51ded8"/>
      <stop offset="1" stop-color="#34d597"/>
    </linearGradient>
    <linearGradient id="linear-gradient-3" x1="0.5" x2="0.5" y2="1" gradientUnits="objectBoundingBox">
      <stop offset="0" stop-color="#34d597"/>
      <stop offset="1" stop-color="#00e9ff"/>
    </linearGradient>
  </defs>
  <g id="Mask_Group_148" data-name="Mask Group 148" class="cls-2" transform="translate(-15724 -1478)">
    <g id="Group_57747" data-name="Group 57747" transform="translate(-2 157)">
      <g id="Group_57746" data-name="Group 57746" transform="translate(15726 1321)">
        <g id="sub_3" data-name="sub 3" transform="translate(0 0)">
          <g id="sub_3_background" data-name="sub 3 background" transform="translate(0)">
            <g id="BACKGROUND">
              <rect id="Rectangle_18956" data-name="Rectangle 18956" class="cls-3" width="336" height="296" rx="20"/>
              <path id="Path_54228" data-name="Path 54228" class="cls-4" d="M86.742,0a93.063,93.063,0,0,1,40.183,9.071c.324.152,2.154,1.268,2.154,1.268l.113,106.616a30.635,30.635,0,0,1-.363,7.525,21.472,21.472,0,0,1-4.911,10.392,18.655,18.655,0,0,1-7.068,4.822,29.636,29.636,0,0,1-10.471,1.524l-75.219-.094s-1.093-.845-1.881-1.478C11.524,125.39,0,103.85,0,79.833,0,35.742,38.836,0,86.742,0Z" transform="translate(206.276 154.762)"/>
              <path id="Path_54229" data-name="Path 54229" class="cls-5" d="M195.05,203.4s-.685.766-1.437,1.434C173.143,223.01,146.853,233.451,117,233.451c-64.617,0-117-52.249-117-116.7C0,77.009,19.916,41.907,50.776,20.535c.275-.191,1.217-.828,1.217-.828s66.647-.316,98.746-.11,32.448-1.877,41.676,9.113c4.762,6.918,2.636,20.623,2.636,38.657Z" transform="translate(140.445 -19.527)"/>
              <g id="Group_57733" data-name="Group 57733" transform="translate(242.749)">
                <path id="Path_54230" data-name="Path 54230" class="cls-6" d="M10899.105,699.494c.7.466,92.586,92.22,92.586,92.22l.22-36.578-55.169-55.642Z" transform="translate(-10899.105 -699.494)"/>
                <text id="Recomended" class="cls-7" transform="translate(22.98 13.158) rotate(45)"><tspan x="0" y="0">Recomended</tspan></text>
              </g>
            </g>
          </g>
          <g id="Sub_3_text" data-name="Sub 3 text" transform="translate(35 42)">
            <text id="_1_00_000" data-name="1,00,000" class="cls-8" transform="translate(0.477 60.627)"><tspan x="0" y="0">1,00,000</tspan></text>
            <path id="Path_54231" data-name="Path 54231" class="cls-9" d="M2.243-6.231V1.134H1.02V-8.514h.951L7.95-1V-8.5H9.173V1.134H8.14Zm9.24,7.365V-8.514h3.343a5.064,5.064,0,0,1,2.031.38A4.144,4.144,0,0,1,18.318-7.1a4.3,4.3,0,0,1,.876,1.529A5.871,5.871,0,0,1,19.487-3.7a5.753,5.753,0,0,1-.326,1.991,4.268,4.268,0,0,1-.938,1.522,4.2,4.2,0,0,1-1.474.978,5.118,5.118,0,0,1-1.923.347ZM18.25-3.7a4.811,4.811,0,0,0-.224-1.5A3.221,3.221,0,0,0,17.36-6.38a3.108,3.108,0,0,0-1.08-.768,3.6,3.6,0,0,0-1.454-.279h-2.12V.047h2.12A3.613,3.613,0,0,0,16.3-.238a2.955,2.955,0,0,0,1.073-.788,3.476,3.476,0,0,0,.652-1.189A4.765,4.765,0,0,0,18.25-3.7Zm2.337-.054a5.157,5.157,0,0,1,.306-1.733,4.817,4.817,0,0,1,.9-1.549,4.515,4.515,0,0,1,1.447-1.107,4.344,4.344,0,0,1,1.943-.421,4.058,4.058,0,0,1,2.215.584,3.633,3.633,0,0,1,1.372,1.522l-.965.625a2.8,2.8,0,0,0-.523-.775,2.686,2.686,0,0,0-.666-.5,2.866,2.866,0,0,0-.741-.272,3.56,3.56,0,0,0-.747-.082,2.948,2.948,0,0,0-1.42.333,3.283,3.283,0,0,0-1.04.87,3.76,3.76,0,0,0-.632,1.209A4.5,4.5,0,0,0,21.824-3.7a4.174,4.174,0,0,0,.251,1.447,3.988,3.988,0,0,0,.7,1.216,3.408,3.408,0,0,0,1.06.842,2.883,2.883,0,0,0,1.332.313,3.379,3.379,0,0,0,.781-.1,2.863,2.863,0,0,0,.768-.306,3.279,3.279,0,0,0,.686-.53,2.586,2.586,0,0,0,.523-.768l1.019.557a3,3,0,0,1-.645.958,4.083,4.083,0,0,1-.938.7,4.774,4.774,0,0,1-1.107.435,4.6,4.6,0,0,1-1.141.149A3.859,3.859,0,0,1,23.291.781,4.861,4.861,0,0,1,21.858-.354a5.191,5.191,0,0,1-.938-1.59A5.14,5.14,0,0,1,20.587-3.758Zm16.85-3.669H34.108V1.134H32.885V-7.427H29.556V-8.514h7.881Z" transform="translate(105.457 80.855)"/>
            <text id="ENTERPRISE" class="cls-10" transform="translate(0 13)"><tspan x="0" y="0">ENTERPRISE</tspan></text>
            <rect id="Rectangle_18957" data-name="Rectangle 18957" class="cls-11" width="9" height="2" rx="1" transform="translate(2 22)"/>
            <rect id="Rectangle_18958" data-name="Rectangle 18958" class="cls-11" width="3" height="2" rx="1" transform="translate(12 22)"/>
          </g>
        </g>
      </g>
      <g id="Group_57740" data-name="Group 57740" transform="translate(15762 1516.047)">
        <g id="Group_57622" data-name="Group 57622" transform="translate(0 6.667)">
          <line id="Line_1" data-name="Line 1" class="cls-12" x2="3.604" y2="2.949" transform="translate(0 6.468)"/>
          <line id="Line_2" data-name="Line 2" class="cls-12" x1="7.882" y2="9.417" transform="translate(3.604)"/>
        </g>
        <text id="Mint_1_00_000_NFT" data-name="Mint 1,00,000 NFT" class="cls-13" transform="translate(31.551 15)"><tspan x="0" y="0">Mint 1,00,000 NFT</tspan></text>
      </g>
      <g id="Group_57741" data-name="Group 57741" transform="translate(15762 1552.651)">
        <text id="Full_NDCT_Token_ownership" data-name="Full NDCT Token ownership" class="cls-13" transform="translate(31.497 15)"><tspan x="0" y="0">Full NDCT Token ownership</tspan></text>
        <g id="Group_57711" data-name="Group 57711" transform="translate(0 4.261)">
          <line id="Line_1-2" data-name="Line 1" class="cls-12" x2="3.604" y2="2.949" transform="translate(0 6.468)"/>
          <line id="Line_2-2" data-name="Line 2" class="cls-12" x1="7.882" y2="9.417" transform="translate(3.604)"/>
        </g>
      </g>
      <g id="Group_57742" data-name="Group 57742" transform="translate(15762 1479.338)">
        <text id="_5000_" data-name="5000 €" class="cls-13" transform="translate(31.551 15)"><tspan x="0" y="0">5000 €</tspan></text>
        <g id="Group_57712" data-name="Group 57712" transform="translate(0 7.177)">
          <line id="Line_1-3" data-name="Line 1" class="cls-12" x2="3.604" y2="2.949" transform="translate(0 6.468)"/>
          <line id="Line_2-3" data-name="Line 2" class="cls-12" x1="7.882" y2="9.417" transform="translate(3.604)"/>
        </g>
      </g>
    </g>
  </g>
</svg>
