<svg xmlns="http://www.w3.org/2000/svg" xmlns:xlink="http://www.w3.org/1999/xlink" width="336" height="296" viewBox="0 0 336 296">
  <defs>
    <clipPath id="clip-path">
      <rect id="Rectangle_18964" data-name="Rectangle 18964" width="336" height="296" transform="translate(13162 -4144)" fill="#fff"/>
    </clipPath>
    <linearGradient id="linear-gradient" x1="0.057" y1="0.026" x2="1.011" y2="1.014" gradientUnits="objectBoundingBox">
      <stop offset="0" stop-color="#262424"/>
      <stop offset="1" stop-color="#ffc65b"/>
    </linearGradient>
    <linearGradient id="linear-gradient-2" x1="0.706" y1="-0.177" x2="-0.165" y2="0.844" gradientUnits="objectBoundingBox">
      <stop offset="0" stop-color="#ce8a14"/>
      <stop offset="1" stop-color="#0a0a18"/>
    </linearGradient>
    <linearGradient id="linear-gradient-3" x1="0.5" x2="0.5" y2="1" gradientUnits="objectBoundingBox">
      <stop offset="0" stop-color="#d3982f"/>
      <stop offset="1" stop-color="#d59629"/>
    </linearGradient>
  </defs>
  <g id="Mask_Group_146" data-name="Mask Group 146" transform="translate(-13162 4144)" clip-path="url(#clip-path)">
    <g id="Group_57781" data-name="Group 57781">
      <path id="Sub1_Background" data-name="Sub1 Background" d="M20,0H316a20,20,0,0,1,20,20V276a20,20,0,0,1-20,20H20A20,20,0,0,1,0,276V20A20,20,0,0,1,20,0Z" transform="translate(13161.988 -4144)" fill="url(#linear-gradient)"/>
      <path id="Path_53746" data-name="Path 53746" d="M86.742,0a93.063,93.063,0,0,1,40.183,9.071c.324.152,2.154,1.268,2.154,1.268l.113,106.616a30.635,30.635,0,0,1-.363,7.525,21.472,21.472,0,0,1-4.911,10.392,18.655,18.655,0,0,1-7.068,4.822,29.636,29.636,0,0,1-10.471,1.524l-75.219-.094s-1.093-.845-1.881-1.478C11.524,125.39,0,103.85,0,79.833,0,35.742,38.836,0,86.742,0Z" transform="translate(13368.319 -3989.238)" opacity="0.12" fill="url(#linear-gradient-2)"/>
      <path id="Path_53747" data-name="Path 53747" d="M195.05,203.4s-.685.766-1.437,1.434C173.143,223.01,146.853,233.451,117,233.451c-64.617,0-117-52.249-117-116.7C0,77.009,19.916,41.907,50.776,20.535c.275-.191,1.217-.828,1.217-.828s66.647-.316,98.746-.11,32.448-1.877,41.676,9.113c4.762,6.918,2.636,20.623,2.636,38.657Z" transform="translate(13302.488 -4163.527)" opacity="0.26" fill="url(#linear-gradient-3)"/>
      <text id="_99" data-name="99" transform="translate(13196.988 -4037)" fill="#fff" font-size="33" font-family="MicrosoftYaHei, Microsoft YaHei"><tspan x="0" y="0">99</tspan></text>
      <text id="STARTER" transform="translate(13196.988 -4089)" fill="#fff" font-size="16" font-family="MicrosoftYaHei-Bold, Microsoft YaHei" font-weight="700" letter-spacing="0.1em"><tspan x="0" y="0">STARTER</tspan></text>
      <rect id="Rectangle_18962" data-name="Rectangle 18962" width="29.221" height="3.205" rx="1.602" transform="translate(13198.988 -4080)" fill="#faa300"/>
      <rect id="Rectangle_18963" data-name="Rectangle 18963" width="5.708" height="3.205" rx="1.602" transform="translate(13231.017 -4080)" fill="#faa300"/>
      <circle id="Ellipse_1538" data-name="Ellipse 1538" cx="21.5" cy="21.5" r="21.5" transform="translate(13354 -4099)" fill="#0a0a18" opacity="0.04"/>
      <circle id="Ellipse_1539" data-name="Ellipse 1539" cx="5" cy="5" r="5" transform="translate(13420 -4058)" fill="#0a0a18" opacity="0.04"/>
      <circle id="Ellipse_1540" data-name="Ellipse 1540" cx="13.5" cy="13.5" r="13.5" transform="translate(13423 -4101)" fill="#0a0a18" opacity="0.04"/>
      <text id="NDCT" transform="translate(13241 -4040)" fill="#fff" font-size="14" font-family="MicrosoftYaHei, Microsoft YaHei"><tspan x="0" y="0">NDCT</tspan></text>
      <g id="Group_57770" data-name="Group 57770" transform="translate(0 1)">
        <text id="_99_" data-name="99 €" transform="translate(13228.539 -3973)" fill="#fff" font-size="16" font-family="MicrosoftYaHei, Microsoft YaHei"><tspan x="0" y="0">99 €</tspan></text>
        <path id="Icon_feather-check" data-name="Icon feather-check" d="M15.124,9,8.851,15.273,6,12.422" transform="translate(13196.534 -3989.5)" fill="none" stroke="#fff" stroke-linecap="round" stroke-linejoin="round" stroke-width="2"/>
      </g>
      <g id="Group_57768" data-name="Group 57768" transform="translate(0 -8)">
        <text id="Mint_99_NFT" data-name="Mint 99 NFT" transform="translate(13228.539 -3934)" fill="#fff" font-size="16" font-family="MicrosoftYaHei, Microsoft YaHei"><tspan x="0" y="0">Mint 99 NFT</tspan></text>
        <path id="Icon_feather-check-2" data-name="Icon feather-check" d="M15.124,9,8.851,15.273,6,12.422" transform="translate(13196.534 -3951.5)" fill="none" stroke="#fff" stroke-linecap="round" stroke-linejoin="round" stroke-width="2"/>
      </g>
      <g id="Group_57769" data-name="Group 57769" transform="translate(0 -16)">
        <path id="Icon_feather-check-3" data-name="Icon feather-check" d="M15.124,9,8.851,15.273,6,12.422" transform="translate(13196.534 -3913.5)" fill="none" stroke="#fff" stroke-linecap="round" stroke-linejoin="round" stroke-width="2"/>
        <text id="Full_NDCT_Token_ownership_" data-name="Full NDCT Token ownership " transform="translate(13228.485 -3896)" fill="#fff" font-size="16" font-family="MicrosoftYaHei, Microsoft YaHei"><tspan x="0" y="0">Full NDCT Token ownership </tspan></text>
      </g>
    </g>
  </g>
</svg>
